# Blender 3.6.4
# www.blender.org
mtllib untitled.mtl
o bed_001
v 1.966094 0.520477 -0.545189
v 2.032753 0.469901 -0.545189
v 1.050439 0.520477 -0.468647
v 0.979735 0.465462 -0.468648
v 2.060884 0.296130 -0.284646
v 0.946547 0.237971 -0.469427
v 1.618932 0.525815 -0.496285
v 1.423415 0.545624 -0.469140
v 1.207362 0.525265 -0.471629
v 1.970065 0.527219 -0.285426
v 2.036725 0.476642 -0.285426
v 1.050439 0.520477 -0.208884
v 0.979735 0.465462 -0.208884
v 2.060675 0.296475 -0.547533
v 0.946547 0.237971 -0.207453
v 1.618932 0.525815 -0.236521
v 1.423415 0.530325 -0.220799
v 1.224513 0.525265 -0.212432
v 1.211398 0.511709 -0.569238
v 1.267309 0.529353 -0.602076
v 1.389508 0.534147 -0.612006
v 1.716817 0.527165 -0.637420
v 1.759911 0.482886 -0.965959
v 1.213766 0.498369 -0.584411
v 1.186027 0.531576 -1.046654
v 1.188902 0.541425 -1.046996
v 1.797392 0.525093 -0.640041
v 1.867660 0.522961 -0.648505
v 1.220141 0.544327 -0.677657
v 1.294828 0.593707 -0.697965
v 1.399767 0.617509 -0.768702
v 1.724989 0.619920 -0.743522
v 1.827321 0.536795 -0.756867
v 1.387323 0.622827 -0.881167
v 1.703134 0.604243 -0.892330
v 1.759560 0.572499 -0.935927
v 1.803151 0.545270 -0.944713
v 1.189748 0.537326 -0.990468
v 1.184325 0.515351 -0.989789
v 1.683361 0.582368 -1.033452
v 1.755329 0.572884 -1.012921
v 1.810127 0.563474 -1.000820
v 1.232575 0.531683 -1.044954
v 1.243930 0.552974 -1.011396
v 1.747665 0.568771 -1.055964
v 1.257328 0.502148 -0.605058
v 1.384909 0.508928 -0.616269
v 1.712843 0.502787 -0.647418
v 1.796039 0.499658 -0.648150
v 1.864179 0.508428 -0.653440
v 1.266249 0.474013 -0.661746
v 1.797389 0.467348 -0.717185
v 1.211859 0.513511 -0.669328
v 1.822460 0.508610 -0.748392
v 1.238783 0.433421 -0.933931
v 1.804977 0.524416 -0.947526
v 1.222198 0.466206 -1.000202
v 1.771547 0.501320 -1.040188
v 1.816024 0.536941 -1.013471
v 1.228341 0.516315 -1.043699
v 1.753543 0.549227 -1.070443
v 1.815817 0.585076 -1.075361
v 1.821177 0.576787 -1.080596
v 1.841491 0.510601 -0.651030
v 1.844244 0.528856 -0.645012
v 1.212723 0.499635 -0.595109
v 1.210592 0.517520 -0.583182
v 1.806791 0.523146 -0.524002
v 1.808776 0.519934 -0.274848
v 2.037616 0.323031 -0.547533
v 2.038018 0.323031 -0.284646
v 0.951471 0.244569 0.941144
v 2.035945 0.316315 0.956276
v 0.984638 0.461197 0.958124
v 1.049765 0.513112 0.969799
v 2.035155 0.437067 0.960197
v 1.983014 0.504476 0.962090
v 0.955619 0.245614 -0.361442
v 0.984533 0.461636 -0.361443
v 2.036458 0.317317 -0.361443
v 1.050312 0.512973 -0.361443
v 1.966222 0.512973 -0.361443
v 2.031999 0.461636 -0.361443
v 0.954237 0.245266 0.072753
v 0.953547 0.245092 0.289851
v 0.952853 0.244917 0.506949
v 0.952162 0.244743 0.724047
v 2.034631 0.441162 0.739924
v 2.034102 0.445257 0.519651
v 2.033577 0.449352 0.299377
v 2.033051 0.453447 0.079104
v 2.032526 0.457541 -0.141169
v 2.036031 0.316482 0.736656
v 2.036117 0.316649 0.517036
v 2.036202 0.316816 0.297416
v 1.857340 0.513120 0.960002
v 1.560853 0.512973 -0.361443
v 2.036288 0.316983 0.077797
v 2.036374 0.317150 -0.141823
v 2.018061 -0.000000 -1.087198
v 2.048901 0.049331 -1.068454
v 2.033907 0.021993 -1.109124
v 0.982629 0.021993 -1.109124
v 0.967633 0.022141 -1.095553
v 0.998473 -0.000000 -1.087198
v 2.017961 0.313197 -1.095082
v 2.032978 0.313197 -1.081413
v 2.033925 0.298116 -1.110083
v 2.048901 0.270926 -1.069194
v 0.983556 0.313197 -1.081413
v 0.998576 0.313197 -1.095082
v 0.967633 0.298116 -1.096474
v 0.982609 0.298116 -1.110083
v 2.018061 0.000000 1.079569
v 2.048901 0.049331 1.060826
v 2.033906 0.021994 1.101496
v 0.982629 0.021994 1.101496
v 0.967634 0.022142 1.087924
v 0.998473 0.000000 1.079569
v 2.017961 0.313197 1.087454
v 2.032978 0.313197 1.073784
v 2.033925 0.298116 1.102454
v 2.048901 0.270927 1.061565
v 0.983556 0.313197 1.073784
v 0.998576 0.313197 1.087454
v 0.967634 0.298116 1.088846
v 0.982609 0.298116 1.102454
v 1.919836 0.236171 -0.980028
v 1.096698 0.236171 -0.980028
v 1.961866 0.498663 0.976027
v 1.054665 0.498663 0.976026
v 1.919836 0.236171 0.990113
v 1.096699 0.236171 0.990113
v 1.931498 0.454004 -1.074062
v 2.019533 0.454004 -0.986028
v 1.961908 0.498631 -0.977472
v 0.997001 0.454004 -0.986027
v 1.085036 0.454004 -1.074062
v 1.054626 0.498631 -0.977472
v 2.019533 0.294330 -0.986028
v 1.931498 0.294330 -1.074061
v 1.960580 0.259939 -1.018458
v 1.085036 0.294330 -1.074061
v 0.997001 0.294330 -0.986027
v 1.055954 0.259939 -1.018457
v 2.019533 0.454004 0.996112
v 1.931498 0.454004 1.084146
v 1.085036 0.454004 1.084146
v 0.997001 0.454004 0.996112
v 1.931498 0.294331 1.084147
v 2.019533 0.294331 0.996112
v 1.960580 0.259940 1.028542
v 0.997001 0.294331 0.996112
v 1.085036 0.294330 1.084146
v 1.055954 0.259940 1.028542
v 0.954928 0.245440 -0.144345
v 0.984621 0.461270 0.738196
v 0.984604 0.461343 0.518268
v 0.984587 0.461417 0.298341
v 0.984569 0.461490 0.078413
v 0.984552 0.461563 -0.141515
v 1.049855 0.513089 0.747925
v 1.049948 0.513066 0.526052
v 1.050038 0.513043 0.304178
v 1.050129 0.513019 0.082304
v 1.050220 0.512996 -0.139569
v 1.980216 0.505892 0.741502
v 1.977416 0.507308 0.520913
v 1.974617 0.508724 0.300324
v 1.971820 0.510141 0.079735
v 1.969020 0.511557 -0.140854
v 1.807926 0.513095 0.739761
v 1.758512 0.513071 0.519520
v 1.709095 0.513046 0.299279
v 1.659682 0.513022 0.079038
v 1.610268 0.512998 -0.141202
v 2.057427 0.296250 0.956276
v 2.058553 0.296329 -0.361443
v 2.057619 0.296263 0.736656
v 2.057806 0.296276 0.517036
v 2.057992 0.296289 0.297416
v 2.058180 0.296302 0.077797
v 2.058366 0.296315 -0.141823
v 2.061563 0.228780 -0.284646
v 2.061159 0.228780 -0.547533
v 2.059491 0.222065 0.956276
v 2.060004 0.223067 -0.361443
v 2.059577 0.222232 0.736656
v 2.059662 0.222399 0.517036
v 2.059747 0.222566 0.297416
v 2.059833 0.222733 0.077797
v 2.059918 0.222900 -0.141823
v 2.048901 0.022141 -1.095553
v 2.048900 0.298116 -1.096474
v 2.048901 0.022142 1.087924
v 2.048901 0.298116 1.088846
v 2.019053 0.049331 -1.068454
v 2.019053 0.270926 -1.069194
v 2.019053 0.049331 1.060826
v 2.019053 0.270927 1.061565
vn 0.9874 0.1581 -0.0000
vn 0.9702 0.2424 0.0007
vn 0.9874 0.1583 -0.0006
vn -0.9388 0.3445 -0.0006
vn -0.9388 0.3445 -0.0000
vn -0.2455 0.9694 0.0006
vn 0.0005 0.9995 0.0312
vn 0.0004 0.9995 0.0312
vn 0.0449 0.9988 0.0183
vn 0.0449 0.9988 0.0184
vn -0.0464 0.9988 0.0181
vn -0.9895 0.1444 -0.0000
vn 0.2105 0.9775 -0.0156
vn 0.9449 0.3268 -0.0178
vn 0.0059 1.0000 0.0003
vn 0.0058 1.0000 0.0002
vn 0.0220 0.8370 0.5467
vn -0.0534 0.9622 0.2672
vn -0.2986 0.9442 0.1391
vn 0.0616 0.8539 0.5167
vn 0.0297 0.7472 0.6640
vn 0.1551 0.9553 0.2518
vn 0.0095 0.8232 0.5676
vn -0.8970 -0.4327 0.0903
vn -0.9952 0.0969 -0.0157
vn -0.5300 0.7893 0.3100
vn -0.6510 0.7582 0.0352
vn 0.0628 -0.2990 0.9522
vn 0.0418 -0.7621 0.6461
vn 0.0642 -0.7313 0.6790
vn 0.0483 -0.3344 0.9412
vn 0.1115 -0.3193 0.9411
vn 0.4496 -0.8337 0.3207
vn 0.0635 -0.3270 0.9429
vn -0.6296 0.7766 0.0211
vn -0.8963 -0.4353 0.0847
vn 0.0572 -0.7468 0.6626
vn -0.0646 -0.9884 0.1375
vn 0.1032 -0.9878 0.1169
vn 0.4532 0.8715 0.1875
vn 0.5750 0.8177 -0.0290
vn 0.7372 0.6691 -0.0938
vn -0.1924 0.9542 -0.2289
vn -0.0044 0.9388 -0.3445
vn -0.0835 0.7103 -0.6989
vn -0.0608 0.6584 -0.7502
vn 0.4742 0.8774 -0.0722
vn 0.7237 0.6891 -0.0370
vn 0.8427 -0.5289 -0.1002
vn 0.8311 -0.5328 -0.1593
vn -0.0633 -0.9976 -0.0280
vn -0.0809 0.9839 -0.1592
vn 0.0346 0.9814 -0.1886
vn 0.1079 -0.9928 -0.0522
vn 0.2144 0.9767 -0.0062
vn -0.0252 -0.8235 -0.5668
vn 0.2521 0.9479 0.1950
vn 0.0856 -0.8245 -0.5594
vn -0.2347 0.9609 -0.1471
vn -0.1385 0.9827 -0.1232
vn 0.8692 -0.4913 -0.0564
vn 0.9717 0.1632 0.1708
vn -0.0286 -0.4254 -0.9045
vn -0.0282 -0.4054 -0.9137
vn 0.2113 -0.2441 0.9465
vn 0.1646 -0.6684 0.7253
vn 0.0807 -0.2529 0.9641
vn -0.9859 -0.1651 0.0265
vn -0.0411 0.8391 0.5424
vn 0.3177 -0.7471 0.5839
vn -0.3241 -0.9436 0.0675
vn -0.6957 -0.4803 -0.5340
vn 0.9599 0.2229 0.1702
vn -0.3272 0.4546 -0.8284
vn 0.4499 -0.6331 -0.6299
vn 0.7718 -0.5921 -0.2318
vn 0.9021 -0.2075 -0.3784
vn 0.4976 -0.4306 0.7530
vn 0.9875 0.1577 -0.0000
vn 0.9702 0.2423 0.0007
vn 0.1302 0.9915 0.0039
vn 0.0015 1.0000 0.0009
vn 0.0031 1.0000 0.0006
vn 0.1576 0.9875 0.0026
vn 0.1927 0.9813 0.0018
vn 0.0047 1.0000 0.0003
vn 0.0062 1.0000 -0.0001
vn 0.2391 0.9710 0.0009
vn 0.0084 1.0000 -0.0006
vn 0.0077 1.0000 -0.0004
vn -0.0627 0.9980 -0.0001
vn -0.0609 0.9981 -0.0034
vn -0.0710 0.9975 -0.0001
vn -0.0666 0.9978 -0.0027
vn -0.0818 0.9966 -0.0001
vn -0.0760 0.9971 -0.0015
vn -0.9414 0.3372 -0.0011
vn -0.0851 0.9964 -0.0003
vn -0.9417 0.3363 -0.0008
vn 0.9484 0.3170 0.0011
vn 0.9520 0.3060 0.0009
vn -0.9391 0.3437 -0.0011
vn -0.9889 0.1483 -0.0014
vn -0.9887 0.1499 -0.0014
vn -0.9388 0.3445 -0.0011
vn 0.9429 0.3331 0.0015
vn 0.1187 0.9929 0.0044
vn 0.9447 0.3278 0.0014
vn 0.9877 0.1565 -0.0006
vn 0.9591 0.2830 0.0004
vn 0.9608 0.2771 0.0003
vn 0.9877 0.1563 -0.0001
vn 0.3027 0.9531 -0.0005
vn 0.3439 0.9390 -0.0014
vn 0.0008 1.0000 0.0012
vn -0.0143 0.9999 0.0001
vn -0.0143 0.9999 -0.0001
vn -0.9985 0.0546 -0.0068
vn -0.9985 0.0546 0.0068
vn -0.9947 -0.1023 -0.0066
vn -0.9947 -0.1023 0.0066
vn 0.9453 0.3238 -0.0404
vn 0.0143 0.9999 -0.0001
vn 0.0143 0.9999 0.0001
vn 0.9453 0.3238 0.0404
vn 0.0123 -0.0754 -0.9971
vn -0.0123 -0.0754 -0.9971
vn -0.0127 0.0481 -0.9988
vn 0.0127 0.0481 -0.9988
vn -0.4613 -0.8598 -0.2190
vn -0.4613 -0.8598 0.2190
vn 0.0060 0.8850 -0.4655
vn -0.0060 0.8850 -0.4655
vn -0.0000 1.0000 -0.0000
vn 0.8670 -0.4973 -0.0318
vn 0.4613 -0.8598 -0.2190
vn 0.0122 -0.0754 0.9971
vn 0.0127 0.0481 0.9988
vn -0.0128 0.0481 0.9988
vn -0.0123 -0.0754 0.9971
vn -0.0060 0.8850 0.4656
vn 0.0060 0.8850 0.4656
vn 0.4613 -0.8598 0.2190
vn 0.8670 -0.4973 0.0318
vn -0.0762 0.4170 -0.9057
vn 0.0763 0.4169 -0.9057
vn 0.0713 -0.3803 -0.9221
vn -0.0713 -0.3803 -0.9221
vn 0.9631 0.2666 -0.0367
vn 0.9628 0.2677 0.0367
vn 0.9117 -0.4096 0.0316
vn 0.9117 -0.4096 -0.0316
vn -0.3776 -0.9114 0.1634
vn -0.3801 -0.9097 0.1673
vn -0.9117 -0.4096 0.0316
vn -0.9117 -0.4096 -0.0316
vn -0.3802 -0.9097 -0.1673
vn -0.3776 -0.9114 -0.1634
vn 0.0455 0.9987 -0.0208
vn -0.0455 0.9987 -0.0209
vn -0.0452 0.9988 0.0207
vn 0.0452 0.9988 0.0207
vn -0.9631 0.2666 -0.0367
vn -0.9628 0.2677 0.0367
vn -0.0746 0.4573 0.8862
vn -0.0713 -0.3803 0.9221
vn 0.0713 -0.3803 0.9221
vn 0.0746 0.4573 0.8862
vn 0.3802 -0.9097 -0.1672
vn 0.3776 -0.9114 -0.1634
vn 0.3802 -0.9097 0.1673
vn 0.3776 -0.9114 0.1634
vn 0.9556 0.2946 0.0007
vn 0.9875 0.1574 -0.0006
vn 0.9876 0.1569 -0.0006
vn -0.9909 0.1342 -0.0014
vn -0.9907 0.1358 -0.0014
vn -0.9903 0.1389 -0.0014
vn -0.9409 0.3388 -0.0011
vn -0.9899 0.1421 -0.0014
vn -0.9403 0.3404 -0.0011
vn -0.9894 0.1452 -0.0014
vn -0.9397 0.3421 -0.0011
vn 0.9892 0.1462 -0.0043
vn 0.9892 0.1463 -0.0073
vn 0.9702 0.2424 -0.0009
vn 0.9702 0.2424 -0.0010
vn 0.9702 0.2424 0.0008
vn 0.9997 0.0225 0.0006
vn 0.9998 0.0211 0.0006
vn 0.9997 0.0264 0.0006
vn 0.9997 0.0251 0.0006
vn 0.9996 0.0271 0.0006
vn 0.9998 0.0205 0.0006
vn 0.9997 0.0238 0.0006
vn 1.0000 0.0086 -0.0012
vn 1.0000 -0.0000 -0.0000
vn -0.0000 0.0033 1.0000
vn -0.0000 -1.0000 -0.0000
vn -0.0000 0.0033 -1.0000
vt 0.598596 0.138484
vt 0.598596 0.138505
vt 0.617578 0.325606
vt 0.617578 0.325601
vt 0.617554 0.325600
vt 0.617558 0.325600
vt 0.617558 0.325593
vt 0.617553 0.325594
vt 0.617553 0.325590
vt 0.617558 0.325590
vt 0.617558 0.325597
vt 0.617554 0.325597
vt 0.617574 0.325606
vt 0.617574 0.325601
vt 0.617558 0.325583
vt 0.617554 0.325584
vt 0.617569 0.325601
vt 0.617569 0.325606
vt 0.617558 0.325586
vt 0.617554 0.325587
vt 0.846815 0.245813
vt 0.846820 0.245812
vt 0.846818 0.245816
vt 0.846816 0.245794
vt 0.846814 0.245799
vt 0.846818 0.245801
vt 0.846814 0.245801
vt 0.846819 0.245773
vt 0.846817 0.245773
vt 0.846815 0.245819
vt 0.846818 0.245819
vt 0.846817 0.245791
vt 0.846814 0.245797
vt 0.846816 0.245795
vt 0.846812 0.245766
vt 0.846811 0.245766
vt 0.846794 0.245782
vt 0.846795 0.245782
vt 0.846817 0.245779
vt 0.846819 0.245775
vt 0.846819 0.245794
vt 0.846811 0.245770
vt 0.846829 0.245816
vt 0.846828 0.245801
vt 0.846795 0.245800
vt 0.846831 0.245817
vt 0.846825 0.245799
vt 0.846812 0.245777
vt 0.846827 0.245795
vt 0.846812 0.245770
vt 0.846829 0.245775
vt 0.846824 0.245812
vt 0.846823 0.245801
vt 0.846828 0.245794
vt 0.846827 0.245799
vt 0.846797 0.245818
vt 0.846827 0.245797
vt 0.846814 0.245780
vt 0.846831 0.245818
vt 0.846829 0.245796
vt 0.846813 0.245779
vt 0.846795 0.245818
vt 0.846795 0.245799
vt 0.846815 0.245794
vt 0.846815 0.245796
vt 0.846816 0.245796
vt 0.846795 0.245819
vt 0.846812 0.245782
vt 0.617806 0.326547
vt 0.617806 0.326551
vt 0.617822 0.326535
vt 0.617828 0.326535
vt 0.617827 0.326539
vt 0.617822 0.326539
vt 0.617802 0.326543
vt 0.617827 0.326542
vt 0.617826 0.326546
vt 0.617802 0.326539
vt 0.617824 0.326554
vt 0.617825 0.326550
vt 0.617838 0.326550
vt 0.617838 0.326554
vt 0.617838 0.326543
vt 0.617838 0.326546
vt 0.617838 0.326535
vt 0.617838 0.326539
vt 0.598780 0.138393
vt 0.598774 0.138393
vt 0.598774 0.138371
vt 0.598780 0.138371
vt 0.598575 0.138462
vt 0.598569 0.138462
vt 0.598569 0.138440
vt 0.598576 0.138440
vt 0.617839 0.326550
vt 0.617817 0.326535
vt 0.617817 0.326532
vt 0.617839 0.326554
vt 0.598676 0.138371
vt 0.598683 0.138371
vt 0.598683 0.138393
vt 0.598676 0.138393
vt 0.617806 0.326535
vt 0.617803 0.326535
vt 0.617803 0.326531
vt 0.617806 0.326531
vt 0.598708 0.138436
vt 0.598713 0.138415
vt 0.598774 0.138415
vt 0.598774 0.138437
vt 0.617822 0.326550
vt 0.617822 0.326554
vt 0.598699 0.138480
vt 0.598704 0.138458
vt 0.598774 0.138459
vt 0.598774 0.138481
vt 0.598718 0.138393
vt 0.598723 0.138371
vt 0.598682 0.138458
vt 0.598682 0.138480
vt 0.598682 0.138415
vt 0.598682 0.138437
vt 0.774533 0.389286
vt 0.774533 0.389220
vt 0.774589 0.389285
vt 0.774599 0.389252
vt 0.774598 0.389285
vt 0.774607 0.389252
vt 0.774550 0.389219
vt 0.774616 0.389286
vt 0.774616 0.389352
vt 0.774550 0.389287
vt 0.774598 0.389253
vt 0.774589 0.389253
vt 0.774598 0.389284
vt 0.774583 0.389352
vt 0.774617 0.389285
vt 0.774648 0.389285
vt 0.774649 0.389286
vt 0.774542 0.389286
vt 0.774542 0.389220
vt 0.774649 0.389352
vt 0.774541 0.389219
vt 0.774615 0.389286
vt 0.774607 0.389285
vt 0.774607 0.389253
vt 0.774648 0.389352
vt 0.774617 0.389352
vt 0.774649 0.389353
vt 0.774583 0.389353
vt 0.774607 0.389284
vt 0.774541 0.389286
vt 0.846799 0.245786
vt 0.846799 0.245757
vt 0.846797 0.245786
vt 0.846797 0.245780
vt 0.846719 0.245824
vt 0.846683 0.245749
vt 0.846689 0.245748
vt 0.846690 0.245818
vt 0.846687 0.245893
vt 0.846685 0.245895
vt 0.846698 0.245818
vt 0.846698 0.245749
vt 0.846685 0.245824
vt 0.846687 0.245825
vt 0.846721 0.245825
vt 0.846685 0.245821
vt 0.846692 0.245746
vt 0.846753 0.245825
vt 0.846753 0.245893
vt 0.846721 0.245893
vt 0.846692 0.245749
vt 0.846692 0.245818
vt 0.846803 0.245819
vt 0.846697 0.245821
vt 0.846799 0.245790
vt 0.846804 0.245790
vt 0.846697 0.245746
vt 0.846690 0.245821
vt 0.846799 0.245785
vt 0.846716 0.245825
vt 0.846719 0.245894
vt 0.846717 0.245895
vt 0.846716 0.245893
vt 0.846692 0.245821
vt 0.846722 0.245897
vt 0.846716 0.245897
vt 0.846797 0.245783
vt 0.846799 0.245781
vt 0.846804 0.245786
vt 0.846797 0.245788
vt 0.846798 0.245786
vt 0.846775 0.245781
vt 0.617803 0.326551
vt 0.617803 0.326547
vt 0.617803 0.326543
vt 0.617803 0.326539
vt 0.598576 0.138418
vt 0.598570 0.138418
vt 0.598570 0.138396
vt 0.598577 0.138396
vt 0.598575 0.138505
vt 0.598575 0.138484
vt 0.598596 0.138462
vt 0.598596 0.138440
vt 0.617806 0.326543
vt 0.617806 0.326539
vt 0.598596 0.138418
vt 0.598596 0.138397
vt 0.598676 0.138505
vt 0.598655 0.138505
vt 0.598655 0.138484
vt 0.598676 0.138483
vt 0.617839 0.326535
vt 0.617817 0.326551
vt 0.617817 0.326547
vt 0.617839 0.326539
vt 0.598676 0.138462
vt 0.598655 0.138462
vt 0.598655 0.138441
vt 0.598676 0.138440
vt 0.617839 0.326542
vt 0.617817 0.326543
vt 0.617817 0.326539
vt 0.617839 0.326546
vt 0.598676 0.138418
vt 0.598655 0.138419
vt 0.598655 0.138398
vt 0.598676 0.138396
vt 0.598780 0.138480
vt 0.598780 0.138458
vt 0.598780 0.138437
vt 0.598780 0.138415
vt 0.617573 0.325601
vt 0.617573 0.325606
vt 0.774549 0.389220
vt 0.774549 0.389286
vt 0.850939 0.120451
vt 0.850934 0.120451
vt 0.850934 0.120406
vt 0.850939 0.120406
s 1
usemtl Material.001
f 99/1/1 183/1/2 178/2/2 80/2/3
f 4/3/4 13/4/5 12/5/6 3/6/6
f 8/7/7 17/8/8 16/9/9 7/10/10
f 9/11/11 18/12/11 17/8/8 8/7/7
f 6/13/12 15/14/12 13/4/5 4/3/4
f 1/15/13 10/16/13 11/17/14 2/18/14
f 3/6/6 12/5/6 18/12/11 9/11/11
f 68/19/15 69/20/16 10/16/13 1/15/13
f 21/21/17 31/22/18 30/23/19 20/24/20
f 27/25/21 32/26/22 22/27/23
f 53/28/24 66/29/25 67/30/26 29/31/27
f 22/27/28 48/32/29 49/24/30 27/25/31
f 65/33/32 64/34/33 50/35/34 28/36/34
f 29/31/27 38/37/35 39/38/36 53/28/24
f 47/39/37 51/40/38 52/41/39 48/32/29
f 65/33/40 28/36/41 33/42/42 32/26/22
f 44/43/43 40/44/44 45/45/45 43/46/46
f 36/47/47 32/26/22 33/42/42 37/48/48
f 56/49/49 37/48/48 33/42/42 54/50/50
f 55/51/51 51/40/38 53/28/24 39/38/36
f 29/31/27 30/23/19 44/43/43 38/37/35
f 34/52/52 35/53/53 40/44/44 44/43/43
f 31/22/18 32/26/22 35/53/53 34/52/52
f 54/50/50 52/41/39 23/54/54 56/49/49
f 40/44/44 35/53/53 36/47/47 41/55/55
f 55/51/51 39/38/36 57/56/56
f 41/55/55 36/47/47 37/48/48 42/57/57
f 23/54/54 55/51/51 57/56/56 58/58/58
f 45/45/45 40/44/44 41/55/55
f 26/59/59 38/37/35 44/43/43
f 41/55/55 62/60/60 45/45/45
f 59/61/61 42/57/62 37/48/48 56/49/49
f 58/58/58 57/56/56 60/62/63 61/63/64
f 61/63/64 60/62/63 43/46/46 45/45/45
f 20/24/65 46/64/66 47/39/37 21/21/67
f 21/21/67 47/39/37 48/32/29 22/27/28
f 46/64/66 51/40/38 47/39/37
f 27/25/31 49/24/30 64/34/33 65/33/32
f 30/23/19 31/22/18 34/52/52 44/43/43
f 56/49/49 23/54/54 58/58/58 59/61/61
f 23/54/54 52/41/39 51/40/38 55/51/51
f 66/29/25 24/65/68 19/66/69 67/30/26
f 48/32/29 52/41/39 49/24/30
f 32/26/22 36/47/47 35/53/53
f 46/64/66 24/65/70 66/29/71 51/40/38
f 39/38/36 38/37/35 26/59/59 25/67/72
f 39/38/36 25/67/72 57/56/56
f 60/62/63 25/67/72 26/59/59 43/46/46
f 63/68/73 62/60/73 42/57/62 59/61/61
f 62/60/60 63/68/74 61/63/64 45/45/45
f 26/59/59 44/43/43 43/46/46
f 25/67/72 60/62/63 57/56/56
f 61/63/64 63/68/75 58/58/58
f 42/57/57 62/60/60 41/55/55
f 58/58/58 63/68/75 59/61/61
f 54/50/50 50/35/76 64/34/33 52/41/39
f 65/33/40 32/26/22 27/25/21
f 52/41/39 64/34/33 49/24/30
f 30/23/19 67/30/26 19/66/69 20/24/20
f 66/29/71 53/28/24 51/40/38
f 54/50/50 33/42/42 28/36/77 50/35/76
f 29/31/27 67/30/26 30/23/19
f 20/24/65 19/66/78 24/65/70 46/64/66
f 31/22/18 21/21/17 22/27/23 32/26/22
f 7/10/10 16/9/9 69/20/16 68/19/15
f 98/69/79 182/69/80 183/70/2 99/70/1
f 171/71/81 176/72/82 175/73/83 170/74/84
f 169/75/85 174/76/86 173/77/87 168/78/88
f 96/79/89 172/80/90 162/81/91 75/82/92
f 173/77/87 174/76/86 164/83/93 163/84/94
f 175/73/83 176/72/82 166/85/95 165/86/96
f 161/87/97 166/88/95 81/89/98 79/90/99
f 91/91/100 170/92/84 169/93/85 90/94/101
f 157/95/102 87/96/103 72/97/104 74/98/105
f 83/99/106 82/100/107 171/101/81 92/102/108
f 93/103/109 88/104/110 76/105/111 73/106/112
f 174/107/86 175/108/83 165/109/96 164/110/93
f 88/104/110 167/111/113 77/112/114 76/105/111
f 172/113/90 173/114/87 163/115/94 162/116/91
f 176/117/82 97/118/115 81/89/98 166/88/95
f 168/119/88 173/114/87 172/113/90 167/120/113
f 167/111/113 172/80/90 96/79/89 77/112/114
f 170/121/84 175/108/83 174/107/86 169/122/85
f 82/100/107 97/118/115 176/117/82 171/101/81
f 124/123/116 110/124/117 112/125/118 126/126/119
f 112/125/118 104/127/120 118/128/121 126/126/119
f 194/129/122 107/130/123 121/131/124 196/132/125
f 102/133/126 103/127/127 113/125/128 108/134/129
f 104/127/120 105/135/130 119/136/131 118/136/121
f 107/130/123 106/137/132 111/138/133 110/139/117
f 106/137/132 108/134/129 113/125/128 111/138/133
f 115/140/134 101/141/134 197/141/134 199/140/134
f 107/130/123 110/139/117 124/142/116 121/131/124
f 105/135/130 104/127/120 103/127/127
f 102/133/126 193/143/135 100/144/136
f 194/129/122 108/134/129 106/137/132 107/130/123
f 110/139/117 111/138/133 113/125/128 112/125/118
f 108/134/129 194/129/122 193/143/135 102/133/126
f 103/127/127 104/127/120 112/125/118 113/125/128
f 100/144/136 105/135/130 103/127/127 102/133/126
f 116/145/137 122/127/138 127/133/139 117/146/140
f 121/131/124 124/142/116 125/147/141 120/148/142
f 120/148/142 125/147/141 127/149/139 122/127/138
f 119/136/131 117/150/140 118/136/121
f 116/145/137 114/151/143 195/152/144
f 196/132/125 121/131/124 120/148/142 122/127/138
f 124/142/116 126/142/119 127/149/139 125/147/141
f 122/127/138 116/145/137 195/152/144 196/132/125
f 117/146/140 127/133/139 126/126/119 118/128/121
f 114/151/143 116/145/137 117/146/140 119/136/131
f 114/151/143 100/144/136 193/143/135 195/152/144
f 138/153/145 134/154/146 141/155/147 143/156/148
f 135/157/149 146/158/150 151/159/151 140/160/152
f 133/161/153 155/162/154 153/163/155 144/164/156 145/165/157 129/166/158
f 136/167/159 134/168/146 138/169/145 139/170/160
f 136/167/159 139/170/160 131/171/161 130/172/162
f 131/171/161 139/170/160 137/173/163 149/174/164
f 148/175/165 154/176/166 150/177/167 147/178/168
f 129/166/158 145/165/157 143/179/148 141/180/147 142/181/169 128/182/170
f 140/160/152 151/183/151 152/184/171 132/185/172 128/182/170 142/181/169
f 130/172/162 131/171/161 148/186/165 147/187/168
f 133/161/153 132/185/172 152/184/171 150/188/167 154/176/166 155/162/154
f 144/164/156 153/163/155 149/174/164 137/173/163
f 134/168/146 136/167/159 135/157/149
f 137/173/163 139/170/160 138/169/145
f 140/189/152 142/181/169 141/155/147
f 143/156/148 145/190/157 144/164/156
f 146/191/150 130/172/162 147/178/168
f 148/186/165 131/171/161 149/174/164
f 150/177/167 152/192/171 151/193/151
f 153/163/155 155/194/154 154/176/166
f 134/168/146 135/157/149 140/160/152 141/180/147
f 143/179/148 144/164/156 137/173/163 138/169/145
f 146/191/150 147/178/168 150/177/167 151/193/151
f 153/163/155 154/176/166 148/186/165 149/174/164
f 136/167/159 130/172/162 146/183/150 135/157/149
f 92/195/108 171/71/81 170/74/84 91/196/100
f 90/197/101 169/75/85 168/78/88 89/198/173
f 89/199/173 168/200/88 167/201/113 88/202/110
f 80/2/3 83/203/106 92/204/108 99/1/1
f 99/70/1 92/195/108 91/196/100 98/69/79
f 98/205/79 91/91/100 90/94/101 95/206/174
f 95/207/174 90/197/101 89/198/173 94/208/175
f 94/209/175 89/199/173 88/202/110 93/210/109
f 79/211/99 78/212/176 156/213/177 161/214/97
f 161/215/97 156/216/177 84/217/178 160/218/179
f 160/219/179 84/220/178 85/221/180 159/222/181
f 159/223/181 85/224/180 86/225/182 158/226/183
f 158/227/183 86/228/182 87/229/103 157/230/102
f 74/98/105 75/82/92 162/81/91 157/95/102
f 157/231/102 162/116/91 163/115/94 158/232/183
f 158/226/183 163/84/94 164/83/93 159/223/181
f 159/233/181 164/110/93 165/109/96 160/234/179
f 160/218/179 165/86/96 166/85/95 161/215/97
f 2/18/14 11/17/14 71/235/184 70/236/185
f 93/210/109 179/210/80 180/209/2 94/209/175
f 71/235/184 5/235/186 14/236/187 70/236/185
f 95/206/174 181/206/2 182/205/80 98/205/79
f 73/106/112 177/106/188 179/103/80 93/103/109
f 94/208/175 180/208/2 181/207/2 95/207/174
f 182/69/80 191/69/189 192/70/190 183/70/2
f 179/210/80 188/210/191 189/209/192 180/209/2
f 177/106/188 186/106/193 188/103/191 179/103/80
f 183/1/2 192/1/190 187/2/194 178/2/2
f 180/208/2 189/208/192 190/207/195 181/207/2
f 5/235/186 184/235/196 185/236/196 14/236/187
f 181/206/2 190/206/195 191/205/189 182/205/80
f 109/237/197 101/141/197 193/143/135 194/129/122
f 115/140/197 123/238/197 196/132/125 195/152/144
f 101/141/197 115/140/197 195/152/144 193/143/135
f 123/238/197 109/237/197 194/129/122 196/132/125
f 197/239/197 198/240/197 200/241/197 199/242/197
f 101/141/198 109/237/198 198/237/198 197/141/198
f 109/237/199 123/238/199 200/238/199 198/237/199
f 123/238/200 115/140/200 199/140/200 200/238/200
f 119/136/199 105/135/199 100/144/199 114/151/199
