# Blender 3.3.1
# www.blender.org
mtllib camera_001.mtl
o camera_001
v 0.040775 0.041835 0.111137
v 0.027524 0.018881 0.111137
v 0.001020 0.018881 0.111137
v -0.012237 0.041835 0.111137
v 0.001020 0.064790 0.111137
v 0.027524 0.064790 0.111137
v 0.031635 0.011757 0.111137
v 0.049003 0.041835 0.111137
v -0.003092 0.011757 0.111137
v -0.020460 0.041835 0.111137
v -0.003092 0.071914 0.111137
v 0.031635 0.071914 0.111137
v 0.027138 0.019550 0.100219
v 0.040004 0.041835 0.100219
v 0.001405 0.019550 0.100219
v -0.011461 0.041835 0.100219
v 0.001405 0.064121 0.100219
v 0.027138 0.064121 0.100219
v 0.052138 0.041835 0.090221
v 0.033202 0.009041 0.090221
v -0.004664 0.009041 0.090221
v -0.023595 0.041835 0.090221
v -0.004664 0.074630 0.090221
v 0.033202 0.074630 0.090221
v 0.033466 0.008590 0.054415
v -0.004923 0.008590 0.054415
v -0.024117 0.041835 0.054415
v -0.004923 0.075080 0.054415
v 0.033466 0.075081 0.054415
v 0.052660 0.041835 0.054415
v 0.054193 0.041835 0.004110
v 0.034232 0.007262 0.004110
v -0.005689 0.007262 0.004110
v -0.025650 0.041835 0.004110
v -0.005689 0.076409 0.004110
v 0.034232 0.076409 0.004110
v 0.033871 0.007882 0.056434
v -0.005333 0.007882 0.056434
v -0.024933 0.041835 0.056434
v -0.005333 0.075788 0.056434
v 0.033871 0.075788 0.056434
v 0.053476 0.041835 0.056434
v 0.085468 0.000000 0.021984
v -0.004059 0.083671 -0.017674
v -0.004059 0.083671 0.021984
v 0.048051 0.083671 -0.017675
v 0.048051 0.083671 0.021984
v 0.042963 0.099206 0.021984
v 0.042963 0.099206 -0.028636
v 0.035019 0.083671 0.037357
v 0.008969 0.083671 0.037357
v 0.029931 0.099206 0.037357
v 0.001024 0.099206 0.021984
v 0.014057 0.099206 0.037357
v -0.035025 0.083671 0.021984
v -0.063614 0.083671 -0.017674
v -0.035025 0.000000 0.021984
v 0.085468 0.000000 -0.017674
v -0.000123 0.058339 -0.017674
v 0.045839 0.058339 -0.017674
v -0.047115 0.077942 0.051491
v -0.035025 0.082146 0.040219
v -0.060396 -0.000000 0.046527
v -0.072486 -0.000000 0.034279
v -0.035025 -0.000000 0.034279
v -0.047115 -0.000000 0.046527
v -0.060396 0.058339 0.046527
v -0.072486 0.052209 0.034274
v -0.035025 0.052209 0.034274
v -0.047115 0.058339 0.046527
v -0.004059 0.083671 -0.028636
v 0.048051 0.083671 -0.028636
v 0.003554 0.095717 -0.028636
v 0.040434 0.095717 -0.028636
v 0.002865 0.061828 -0.028636
v 0.042641 0.061828 -0.028636
v 0.001024 0.099206 -0.028636
v 0.044511 0.083263 -0.028636
v -0.000484 0.083380 -0.028636
v -0.000123 0.058339 -0.028636
v 0.045839 0.058339 -0.028636
v 0.004423 0.082712 -0.025155
v 0.039706 0.082621 -0.025155
v 0.007592 0.092386 -0.025155
v 0.036508 0.092386 -0.025155
v 0.007050 0.065814 -0.025155
v 0.038236 0.065814 -0.025155
v -0.063517 0.082146 0.040219
v -0.072486 0.074078 0.038204
v -0.054083 0.077942 0.051491
v -0.060396 0.069884 0.049452
v -0.072486 -0.000000 -0.008612
v -0.063424 -0.000000 -0.017674
v -0.072486 0.075432 -0.008612
v 0.039125 0.101862 0.005836
v 0.039125 0.101862 -0.020370
v 0.004862 0.101862 0.005836
v 0.004862 0.101862 -0.020370
v 0.039125 0.096964 -0.020370
v 0.039125 0.096964 0.005836
v 0.004862 0.096964 0.005836
v 0.004862 0.096964 -0.020370
v -0.010606 0.083975 -0.011942
v -0.010606 0.083975 0.011039
v -0.058746 0.083975 0.011039
v -0.058746 0.083975 -0.011942
v 0.072494 0.083671 -0.017675
v 0.085468 0.070694 -0.017675
v 0.085468 0.070694 0.021984
v 0.072494 0.083671 0.021984
v 0.052611 0.085838 0.002152
v 0.052611 0.079787 0.002152
v 0.058329 0.085838 -0.007750
v 0.058329 0.079787 -0.007750
v 0.069765 0.085838 -0.007750
v 0.069765 0.079787 -0.007750
v 0.075482 0.085838 0.002152
v 0.075482 0.079787 0.002152
v 0.069765 0.085838 0.012057
v 0.069765 0.079787 0.012057
v 0.058329 0.085838 0.012057
v 0.058329 0.079787 0.012057
v -0.051822 0.006488 -0.015773
v -0.051822 0.056975 -0.015773
v 0.034189 0.006488 -0.015773
v 0.034189 0.056975 -0.015773
v 0.034189 0.006488 -0.023539
v -0.051822 0.006488 -0.023539
v -0.051822 0.056975 -0.023539
v 0.034189 0.056975 -0.023539
v 0.027538 0.010392 -0.023617
v -0.045172 0.010392 -0.023617
v -0.045172 0.053072 -0.023617
v 0.027538 0.053072 -0.023617
vn 0.9968 -0.0000 0.0799
vn 0.9890 -0.0000 0.1482
vn 0.4945 -0.8565 0.1483
vn 0.4984 -0.8633 0.0799
vn -0.4944 -0.8565 0.1483
vn -0.4984 -0.8632 0.0799
vn -0.9889 -0.0000 0.1484
vn -0.9968 -0.0000 0.0799
vn -0.4944 0.8565 0.1483
vn -0.4984 0.8632 0.0799
vn -0.9975 -0.0000 0.0705
vn -0.4988 -0.8639 0.0705
vn 0.4945 0.8565 0.1483
vn 0.4984 0.8633 0.0799
vn -0.0000 -0.0000 1.0000
vn 0.4987 -0.8639 0.0706
vn 0.9975 -0.0000 0.0707
vn 0.4987 0.8639 0.0706
vn -0.4988 0.8639 0.0705
vn 0.5000 0.8659 0.0146
vn 0.9999 -0.0000 0.0146
vn -0.5000 0.8659 0.0145
vn -0.9999 -0.0000 0.0145
vn -0.5000 -0.8659 0.0145
vn 0.5000 -0.8659 0.0146
vn 0.9999 -0.0000 0.0137
vn 0.4999 -0.8660 0.0137
vn 0.5000 -0.8659 0.0137
vn -0.5000 -0.8659 0.0137
vn -0.9999 -0.0000 0.0137
vn -0.5000 0.8659 0.0137
vn 0.4999 0.8660 0.0137
vn 0.5000 0.8659 0.0137
vn -0.0000 -0.0000 -1.0000
vn -0.0149 0.9997 0.0214
vn -0.2694 0.9629 0.0189
vn -0.4258 0.8320 0.3557
vn -0.0188 0.9893 0.1446
vn -0.2978 -0.0004 -0.9546
vn 1.0000 -0.0000 -0.0000
vn 0.9239 0.3826 -0.0000
vn 0.9503 0.3112 -0.0000
vn 0.9833 0.1818 -0.0000
vn 0.9934 0.1144 -0.0000
vn -0.0000 1.0000 -0.0000
vn 0.9036 0.2959 0.3096
vn 0.8893 0.2912 0.3527
vn -0.0000 -1.0000 -0.0000
vn -0.9871 0.1600 -0.0000
vn -0.9037 0.2957 0.3096
vn -0.8893 0.2911 0.3526
vn -0.9504 0.3110 -0.0000
vn -0.4790 0.1568 0.8637
vn 0.4789 0.1569 0.8637
vn 0.3438 0.1126 0.9323
vn -0.3438 0.1126 0.9323
vn -0.9001 0.3265 -0.2887
vn -0.9248 -0.0005 -0.3804
vn -0.9305 -0.0278 0.3653
vn -0.8720 0.3067 0.3816
vn -0.3845 -0.0005 -0.9231
vn 0.3857 -0.1198 0.9148
vn 0.3754 -0.2153 0.9015
vn -0.1697 0.4623 0.8703
vn -0.4164 -0.0196 0.9090
vn 0.3857 -0.0000 0.9226
vn -0.3861 -0.1162 0.9151
vn -0.3857 -0.0000 0.9226
vn 0.9312 -0.0294 0.3633
vn 0.9251 -0.0000 0.3796
vn -0.9251 -0.0000 0.3796
vn -0.0000 0.9370 0.3494
vn 0.9172 -0.0857 0.3892
vn 0.1006 0.1119 -0.9886
vn 0.2587 -0.0225 -0.9657
vn 0.3410 -0.0250 -0.9397
vn 0.2215 0.3028 -0.9270
vn -0.0978 0.1020 -0.9900
vn -0.2290 0.2928 -0.9283
vn 0.9962 -0.0870 -0.0000
vn -0.9881 -0.1535 -0.0000
vn -0.9967 0.0810 -0.0000
vn -0.1147 -0.1422 -0.9832
vn 0.1138 -0.1402 -0.9836
vn -0.2681 -0.0313 -0.9629
vn -0.3390 -0.0383 -0.9400
vn 0.1901 -0.3623 -0.9125
vn -0.1942 -0.3623 -0.9116
vn -1.0000 -0.0000 -0.0000
vn 0.3827 0.9239 -0.0000
vn -1.0000 -0.0000 -0.0001
vn -0.5000 -0.0000 -0.8660
vn 0.5000 -0.0000 -0.8660
vn 1.0000 -0.0000 -0.0001
vn 0.8661 -0.0000 0.4999
vn -0.8661 -0.0000 0.5000
vt 0.866686 0.671985
vt 0.866865 0.675258
vt 0.866191 0.672270
vt 0.871083 0.674950
vt 0.866879 0.675763
vt 0.866191 0.672840
vt 0.871083 0.675520
vt 0.872994 0.669972
vt 0.866686 0.673126
vt 0.872981 0.670478
vt 0.867180 0.672840
vt 0.872994 0.670959
vt 0.872987 0.671786
vt 0.866879 0.674776
vt 0.867180 0.672270
vt 0.872987 0.671216
vt 0.870555 0.674825
vt 0.866825 0.675669
vt 0.866038 0.672182
vt 0.870538 0.674194
vt 0.866686 0.671808
vt 0.866077 0.675669
vt 0.871567 0.670410
vt 0.866038 0.672929
vt 0.871549 0.671042
vt 0.866686 0.673303
vt 0.871567 0.671703
vt 0.868783 0.674312
vt 0.867334 0.672929
vt 0.869532 0.674312
vt 0.870555 0.673531
vt 0.867334 0.672182
vt 0.333411 0.418576
vt 0.871256 0.674958
vt 0.867051 0.675749
vt 0.334100 0.418972
vt 0.867037 0.675258
vt 0.332723 0.418973
vt 0.871256 0.675512
vt 0.873166 0.669987
vt 0.332723 0.419767
vt 0.873154 0.670477
vt 0.333411 0.420164
vt 0.873166 0.670945
vt 0.872814 0.671778
vt 0.867051 0.674790
vt 0.334100 0.419766
vt 0.872814 0.671224
vt 0.870206 0.674196
vt 0.896198 0.795329
vt 0.870225 0.674884
vt 0.866859 0.675339
vt 0.892710 0.796519
vt 0.896217 0.796046
vt 0.866043 0.675339
vt 0.871237 0.670351
vt 0.897271 0.791323
vt 0.891860 0.796519
vt 0.871216 0.671040
vt 0.897250 0.792041
vt 0.871237 0.671761
vt 0.868750 0.674645
vt 0.894680 0.795796
vt 0.897271 0.792792
vt 0.869566 0.674645
vt 0.870225 0.673474
vt 0.896217 0.794576
vt 0.895530 0.795796
vt 0.892716 0.795933
vt 0.895630 0.796055
vt 0.896684 0.791314
vt 0.891854 0.795933
vt 0.896663 0.792041
vt 0.894674 0.796382
vt 0.896684 0.792803
vt 0.895630 0.794565
vt 0.895536 0.796382
vt 0.895611 0.795328
vt 0.871400 0.674224
vt 0.871419 0.674950
vt 0.873066 0.674322
vt 0.873066 0.673463
vt 0.870577 0.673463
vt 0.870555 0.674189
vt 0.870577 0.674950
vt 0.872243 0.674322
vt 0.872243 0.675181
vt 0.871419 0.673463
vt 0.872243 0.674938
vt 0.872243 0.674314
vt 0.872243 0.673471
vt 0.871400 0.673475
vt 0.871379 0.674188
vt 0.871400 0.674935
vt 0.873065 0.674330
vt 0.873065 0.675174
vt 0.872243 0.673478
vt 0.872223 0.674225
vt 0.867133 0.673303
vt 0.870029 0.671808
vt 0.867840 0.668687
vt 0.867840 0.670159
vt 0.867133 0.673303
vt 0.871572 0.675491
vt 0.872196 0.675491
vt 0.867674 0.671808
vt 0.872841 0.671808
vt 0.866511 0.673303
vt 0.869643 0.670335
vt 0.867840 0.671281
vt 0.870271 0.675435
vt 0.871083 0.674950
vt 0.869643 0.669214
vt 0.869647 0.675435
vt 0.867674 0.672929
vt 0.872841 0.672929
vt 0.871083 0.675571
vt 0.869643 0.675774
vt 0.867840 0.675105
vt 0.867339 0.672820
vt 0.867840 0.674312
vt 0.870439 0.675774
vt 0.872599 0.672820
vt 0.867668 0.672649
vt 0.872599 0.672649
vt 0.867668 0.672088
vt 0.872599 0.672088
vt 0.868121 0.675346
vt 0.867334 0.672539
vt 0.872200 0.675830
vt 0.868744 0.675105
vt 0.867339 0.671917
vt 0.868463 0.675346
vt 0.867334 0.672198
vt 0.866511 0.673969
vt 0.869643 0.671001
vt 0.872814 0.671772
vt 0.867133 0.674584
vt 0.867840 0.668878
vt 0.872814 0.669973
vt 0.867840 0.671001
vt 0.870029 0.669493
vt 0.867756 0.673304
vt 0.870653 0.671808
vt 0.866038 0.671808
vt 0.873008 0.671808
vt 0.871577 0.674950
vt 0.867294 0.670244
vt 0.873008 0.672797
vt 0.867294 0.671233
vt 0.870268 0.674893
vt 0.866038 0.674229
vt 0.871951 0.668773
vt 0.866222 0.673969
vt 0.871691 0.668687
vt 0.872528 0.671738
vt 0.869643 0.668947
vt 0.894879 0.798298
vt 0.868937 0.674279
vt 0.895150 0.798303
vt 0.869835 0.668687
vt 0.872621 0.669972
vt 0.894309 0.798303
vt 0.869835 0.669493
vt 0.869643 0.669233
vt 0.894580 0.798298
vt 0.894879 0.796991
vt 0.872238 0.669196
vt 0.868939 0.673024
vt 0.895150 0.796996
vt 0.872498 0.669201
vt 0.894309 0.796996
vt 0.871691 0.669201
vt 0.872621 0.671227
vt 0.894580 0.796991
vt 0.871951 0.669196
vt 0.871400 0.675491
vt 0.872265 0.671808
vt 0.870443 0.675435
vt 0.872265 0.672929
vt 0.872524 0.671972
vt 0.872524 0.672765
vt 0.871794 0.671957
vt 0.871794 0.672813
vt 0.868744 0.674312
vt 0.871405 0.675830
vt 0.872599 0.671917
vt 0.872256 0.672853
vt 0.872258 0.671885
vt 0.873181 0.671808
vt 0.871405 0.674950
vt 0.871719 0.671892
vt 0.873181 0.672797
vt 0.870440 0.674893
vt 0.871719 0.672882
vt 0.317437 0.338875
vt 0.872245 0.671990
vt 0.317435 0.339592
vt 0.872243 0.672750
vt 0.317634 0.338939
vt 0.872453 0.672058
vt 0.317634 0.339527
vt 0.872453 0.672681
vt 0.871881 0.672047
vt 0.317093 0.338928
vt 0.317093 0.339562
vt 0.871881 0.672718
vt 0.872305 0.668687
vt 0.866222 0.674582
vt 0.868878 0.672686
vt 0.872498 0.668861
vt 0.866239 0.674776
vt 0.866038 0.674379
vt 0.872102 0.668773
vt 0.872238 0.668947
vt 0.869611 0.674279
vt 0.866041 0.668687
vt 0.870510 0.668687
vt 0.870653 0.668882
vt 0.866038 0.668882
vt 0.869614 0.672657
vt 0.866976 0.674776
vt 0.867666 0.668687
vt 0.846020 0.245146
vt 0.846020 0.245483
vt 0.845635 0.245146
vt 0.845635 0.245483
vt 0.846020 0.245483
vt 0.846020 0.245146
vt 0.845635 0.245146
vt 0.845635 0.245483
vt 0.327624 0.107890
vt 0.326449 0.107890
vt 0.326449 0.109148
vt 0.327624 0.110310
vt 0.867840 0.671529
vt 0.870835 0.674950
vt 0.867561 0.671808
vt 0.867756 0.674824
vt 0.870555 0.674950
vt 0.869363 0.668687
vt 0.867133 0.674823
vt 0.870555 0.675571
vt 0.869643 0.668966
vt 0.870835 0.675571
vt 0.895779 0.793315
vt 0.893081 0.793315
vt 0.895105 0.793288
vt 0.895779 0.794664
vt 0.893081 0.794664
vt 0.895330 0.793315
vt 0.895666 0.792964
vt 0.895330 0.794664
vt 0.894880 0.793315
vt 0.895666 0.792316
vt 0.894880 0.794664
vt 0.894430 0.793315
vt 0.895105 0.791993
vt 0.894430 0.794664
vt 0.893981 0.793315
vt 0.894544 0.792316
vt 0.893981 0.794664
vt 0.893531 0.793315
vt 0.894544 0.792964
vt 0.893531 0.794664
vt 0.894199 0.790869
vt 0.897199 0.790869
vt 0.894199 0.793869
vt 0.897199 0.793869
vt 0.894199 0.793869
vt 0.894199 0.790869
vt 0.897199 0.790869
vt 0.897199 0.793869
vt 0.325195 0.108071
vt 0.325195 0.102635
vt 0.330631 0.102635
vt 0.330631 0.108071
s 1
usemtl Material
f 19/49/1 8/20/2 7/17/3 20/51/4
f 20/52/4 7/18/3 9/22/5 21/55/6
f 21/56/6 9/23/5 10/25/7 22/59/8
f 22/59/8 10/25/7 11/27/9 23/61/10
f 1/2/11 6/14/12 18/46/12 14/37/11
f 23/62/10 11/28/9 12/30/13 24/65/14
f 24/66/14 12/31/13 8/20/2 19/49/1
f 1/1/15 2/3/15 7/19/15 8/21/15
f 2/3/15 3/6/15 9/24/15 7/19/15
f 3/6/15 4/9/15 10/26/15 9/24/15
f 4/9/15 5/11/15 11/29/15 10/26/15
f 5/11/15 6/15/15 12/32/15 11/29/15
f 6/15/15 1/1/15 8/21/15 12/32/15
f 13/33/15 14/36/15 18/47/15 17/43/15 16/41/15 15/38/15
f 5/12/16 4/10/17 16/42/17 17/44/16
f 3/7/18 2/4/19 13/34/19 15/39/18
f 6/16/12 5/13/16 17/45/16 18/48/12
f 4/10/17 3/8/18 15/40/18 16/42/17
f 2/5/19 1/2/11 14/37/11 13/35/19
f 29/76/20 24/67/14 19/50/1 30/78/21
f 28/74/22 23/63/10 24/68/14 29/77/20
f 27/73/23 22/60/8 23/64/10 28/75/22
f 26/71/24 21/57/6 22/60/8 27/73/23
f 25/69/25 20/53/4 21/58/6 26/72/24
f 30/78/21 19/50/1 20/54/4 25/70/25
f 31/79/26 42/98/26 37/89/27 32/80/28
f 32/81/28 37/90/27 38/91/29 33/82/29
f 33/83/29 38/92/29 39/93/30 34/84/30
f 34/84/30 39/93/30 40/94/31 35/85/31
f 35/86/31 40/95/31 41/96/32 36/87/33
f 36/88/33 41/97/32 42/98/26 31/79/26
f 43/101/15 109/241/15 110/244/15 47/113/15
f 60/150/34 46/110/34 107/236/34 108/238/34 58/145/34
f 55/135/35 56/138/36 88/209/37 62/154/38
f 43/101/15 47/113/15 45/109/15
f 56/139/39 44/102/34 59/148/34
f 58/143/40 108/239/41 109/242/41 43/99/40
f 49/122/42 46/111/43 72/179/44
f 48/119/45 49/121/45 77/185/45 53/131/45
f 47/114/46 46/111/43 49/122/42 48/118/47
f 60/149/48 59/146/48 80/190/48 81/193/48
f 44/104/49 45/105/50 53/130/51 77/186/52
f 51/126/53 50/124/54 52/129/55 54/134/56
f 48/119/45 53/131/45 54/133/45 52/128/45
f 47/115/46 48/120/47 52/129/55 50/124/54
f 53/132/51 45/106/50 51/126/53 54/134/56
f 45/107/48 47/116/48 50/125/48 51/127/48
f 94/221/57 92/216/58 68/169/59 89/210/60
f 45/108/45 44/103/45 56/138/36 55/135/35
f 58/144/48 43/100/48 57/142/48
f 43/101/15 45/109/15 55/136/15
f 58/145/34 93/220/61 56/139/39
f 64/161/48 65/164/48 66/165/48 63/157/48
f 70/176/62 61/153/63 90/214/64 91/215/65
f 66/166/66 70/175/62 67/167/67 63/158/68
f 57/140/40 55/137/40 69/174/69 65/162/70
f 43/101/15 55/136/15 57/141/15
f 92/216/58 64/159/71 68/169/59
f 58/145/34 59/148/34 60/150/34
f 58/144/48 57/142/48 92/218/48 93/219/48
f 68/170/59 64/160/71 63/158/68 67/167/67
f 70/175/62 66/166/66 65/163/70 69/172/69
f 62/154/38 88/209/37 90/213/64 61/152/72
f 61/153/63 70/176/62 69/173/69 62/155/73
f 55/137/40 62/156/73 69/174/69
f 89/211/60 68/171/59 67/168/67 91/215/65
f 75/183/74 79/189/75 82/197/76 86/204/77
f 76/184/78 75/183/74 86/204/77 87/207/79
f 46/111/43 60/151/80 81/194/80 72/179/44
f 59/147/81 44/104/49 71/177/82 80/191/81
f 44/104/49 77/186/52 71/177/82
f 74/182/83 73/181/84 77/187/34 49/123/34
f 78/188/85 74/182/83 49/123/34 72/180/34
f 73/181/84 79/189/75 71/178/34 77/187/34
f 79/189/75 75/183/74 80/192/34 71/178/34
f 76/184/78 78/188/85 72/180/34 81/195/34
f 75/183/74 76/184/78 81/195/34 80/192/34
f 86/205/77 82/196/76 83/198/86 87/206/79
f 83/198/86 82/196/76 84/200/87 85/202/88
f 74/182/83 78/188/85 83/199/86 85/203/88
f 78/188/85 76/184/78 87/207/79 83/199/86
f 79/189/75 73/181/84 84/201/87 82/197/76
f 73/181/84 74/182/83 85/203/88 84/201/87
f 90/214/64 88/208/37 89/211/60 91/215/65
f 94/222/57 89/212/60 88/209/37 56/138/36
f 92/217/58 94/223/57 56/139/39 93/220/61
f 58/145/34 56/139/39 59/148/34
f 67/168/67 70/176/62 91/215/65
f 95/224/45 96/225/45 98/227/45 97/226/45
f 98/227/89 102/231/89 101/230/89 97/226/89
f 97/226/15 101/230/15 100/229/15 95/224/15
f 96/225/34 99/228/34 102/231/34 98/227/34
f 95/224/40 100/229/40 99/228/40 96/225/40
f 104/233/45 103/232/45 106/235/45 105/234/45
f 107/237/90 110/245/90 109/243/41 108/240/41
f 110/245/90 107/237/90 46/112/45 47/117/45
f 111/246/91 113/251/92 114/253/92 112/249/91
f 113/251/92 115/254/93 116/256/93 114/253/92
f 115/254/93 117/257/94 118/259/94 116/256/93
f 117/257/94 119/260/95 120/262/95 118/259/94
f 119/260/15 121/263/15 122/265/15 120/262/15
f 121/263/96 111/247/91 112/250/91 122/265/96
f 111/248/45 121/264/45 119/261/45 117/258/45 115/255/45 113/252/45
f 92/218/48 57/142/48 65/164/48 64/161/48
f 128/271/34 129/272/34 130/273/34 127/270/34
f 125/268/48 123/266/48 128/271/48 127/270/48
f 126/269/40 125/268/40 127/270/40 130/273/40
f 123/266/89 124/267/89 129/272/89 128/271/89
f 124/267/45 126/269/45 130/273/45 129/272/45
f 132/275/34 133/276/34 134/277/34 131/274/34
