# Blender 3.3.1
# www.blender.org
mtllib closet_002.mtl
o closet_002
v 0.178187 0.770477 0.123821
v -0.178189 0.770477 0.123821
v 0.178188 0.134583 0.123821
v -0.178189 0.134583 0.123821
v 0.178187 1.899821 0.123821
v -0.178190 1.899821 0.123821
v 0.178187 1.263927 0.123821
v -0.178190 1.263927 0.123821
v -0.132242 1.395884 0.117779
v -0.132242 1.396054 0.149569
v -0.100450 1.395884 0.117779
v -0.100450 1.396054 0.149569
v -0.132242 1.364094 0.117949
v -0.132242 1.364264 0.149740
v -0.100450 1.364094 0.117949
v -0.100450 1.364264 0.149740
v -0.132242 0.687260 0.117780
v -0.132242 0.687430 0.149569
v -0.100450 0.687260 0.117780
v -0.100450 0.687430 0.149569
v -0.132242 0.655470 0.117949
v -0.132242 0.655640 0.149740
v -0.100450 0.655470 0.117949
v -0.100450 0.655640 0.149740
v 0.199960 1.961282 -0.125145
v -0.199957 1.961282 -0.125145
v -0.179195 1.230569 0.122811
v 0.179193 1.230569 0.122811
v 0.179193 0.843625 0.122811
v 0.199960 0.112912 -0.125145
v -0.199957 0.112912 -0.125145
v -0.179195 0.843625 0.122811
v 0.197201 0.000000 0.120286
v -0.197203 -0.000000 0.120286
v -0.197203 -0.000000 0.087288
v 0.197201 0.000000 0.087288
v 0.165790 0.000000 0.120286
v -0.165787 -0.000000 0.120286
v -0.165787 -0.000000 0.087288
v 0.165790 0.000000 0.087288
v -0.165787 0.121315 0.087288
v -0.197203 0.121315 0.087288
v -0.197203 0.121315 0.120286
v 0.165790 0.121315 0.120286
v 0.165790 0.121315 0.087288
v 0.197201 0.121315 0.120286
v 0.197201 0.121315 0.087288
v -0.165787 0.121315 0.120286
v 0.199960 1.961282 0.122811
v -0.199957 1.961282 0.122811
v 0.199960 0.112912 0.122811
v -0.199957 0.112912 0.122811
v 0.179193 1.230569 -0.115468
v -0.179195 1.230569 -0.115468
v 0.179193 0.843625 -0.115468
v -0.179195 0.843625 -0.115468
v 0.197201 0.000000 -0.087288
v -0.197203 -0.000000 -0.087287
v -0.197203 -0.000000 -0.120286
v 0.197201 0.000000 -0.120286
v 0.165790 0.000000 -0.087288
v -0.165787 -0.000000 -0.087287
v -0.165787 -0.000000 -0.120286
v 0.165790 0.000000 -0.120286
v -0.165787 0.121315 -0.120286
v -0.197203 0.121315 -0.120286
v -0.197203 0.121315 -0.087287
v 0.165790 0.121315 -0.087288
v 0.165790 0.121315 -0.120286
v 0.197201 0.121315 -0.087288
v 0.197201 0.121315 -0.120286
v -0.165787 0.121315 -0.087287
vn -0.0000 -0.0000 1.0000
vn -0.0000 1.0000 -0.0054
vn 1.0000 -0.0000 -0.0000
vn -0.0000 -1.0000 0.0054
vn -1.0000 -0.0000 -0.0000
vn -0.0000 0.0054 1.0000
vn -0.0000 1.0000 -0.0000
vn -0.0000 -1.0000 -0.0000
vn -0.0000 -0.0000 -1.0000
vt 0.956057 0.399726
vt 0.955109 0.399726
vt 0.956057 0.401388
vt 0.955109 0.401388
vt 0.956057 0.401388
vt 0.955109 0.401388
vt 0.956057 0.403051
vt 0.955109 0.403051
vt 0.943413 0.231951
vt 0.942705 0.233658
vt 0.943413 0.231870
vt 0.942616 0.233658
vt 0.943413 0.232086
vt 0.943494 0.231951
vt 0.942705 0.233658
vt 0.943494 0.231870
vt 0.942616 0.233658
vt 0.943494 0.232086
vt 0.943440 0.233604
vt 0.942705 0.233738
vt 0.943440 0.233684
vt 0.942616 0.233738
vt 0.943413 0.232006
vt 0.942705 0.233578
vt 0.943521 0.233604
vt 0.942616 0.233578
vt 0.943521 0.233684
vt 0.943494 0.232006
vt 0.943413 0.232166
vt 0.942616 0.233738
vt 0.943413 0.232086
vt 0.942616 0.233658
vt 0.943440 0.233764
vt 0.943494 0.232166
vt 0.942616 0.233658
vt 0.943494 0.232086
vt 0.942527 0.233658
vt 0.943521 0.233764
vt 0.942527 0.233738
vt 0.942983 0.233671
vt 0.942616 0.233578
vt 0.943024 0.233631
vt 0.969505 0.583025
vt 0.969505 0.582458
vt 0.966046 0.580062
vt 0.971703 0.580378
vt 0.970885 0.580196
vt 0.970066 0.581394
vt 0.967174 0.580062
vt 0.971703 0.581394
vt 0.970066 0.580196
vt 0.967174 0.581260
vt 0.970885 0.580014
vt 0.968518 0.580336
vt 0.968518 0.579769
vt 0.966046 0.581260
vt 0.970885 0.578998
vt 0.966629 0.576420
vt 0.967864 0.576452
vt 0.967864 0.576452
vt 0.966856 0.576420
vt 0.966742 0.576420
vt 0.966742 0.576420
vt 0.967963 0.576452
vt 0.967751 0.576828
vt 0.967751 0.576077
vt 0.967963 0.576452
vt 0.967864 0.576077
vt 0.967864 0.576828
vt 0.967864 0.576452
vt 0.966742 0.576796
vt 0.966856 0.576796
vt 0.967864 0.576828
vt 0.967751 0.576452
vt 0.967963 0.576077
vt 0.967864 0.576452
vt 0.966629 0.576796
vt 0.967864 0.576077
vt 0.966742 0.576796
vt 0.967751 0.576452
vt 0.967963 0.576828
vt 0.970066 0.582528
vt 0.968944 0.583522
vt 0.967240 0.577800
vt 0.970066 0.581394
vt 0.967240 0.583522
vt 0.965981 0.577800
vt 0.969796 0.582871
vt 0.968944 0.577800
vt 0.967240 0.583522
vt 0.969796 0.581737
vt 0.967240 0.577800
vt 0.965981 0.583522
vt 0.971194 0.577800
vt 0.970885 0.581394
vt 0.970066 0.577800
vt 0.970885 0.580378
vt 0.970066 0.580196
vt 0.970885 0.580196
vt 0.971194 0.578998
vt 0.971703 0.580014
vt 0.970066 0.578998
vt 0.971703 0.578998
vt 0.966629 0.576420
vt 0.967864 0.576452
vt 0.967864 0.576452
vt 0.966856 0.576420
vt 0.966742 0.576420
vt 0.966742 0.576420
vt 0.967963 0.576452
vt 0.967751 0.576828
vt 0.967751 0.576077
vt 0.967963 0.576452
vt 0.967864 0.576077
vt 0.967864 0.576828
vt 0.967864 0.576452
vt 0.966742 0.576796
vt 0.966856 0.576796
vt 0.967864 0.576828
vt 0.967751 0.576452
vt 0.967963 0.576077
vt 0.967864 0.576452
vt 0.966629 0.576796
vt 0.967864 0.576077
vt 0.966742 0.576796
vt 0.967751 0.576452
vt 0.967963 0.576828
s 1
usemtl Material
f 2/2/1 4/4/1 3/3/1 1/1/1
f 6/6/1 8/8/1 7/7/1 5/5/1
f 9/9/2 10/11/2 12/16/2 11/14/2
f 11/15/3 12/17/3 16/26/3 15/24/3
f 15/25/4 16/27/4 14/21/4 13/19/4
f 13/20/5 14/22/5 10/12/5 9/10/5
f 17/29/2 18/31/2 20/36/2 19/34/2
f 16/28/6 12/18/6 10/13/6 14/23/6
f 19/35/3 20/37/3 24/42/3 23/41/3
f 21/39/5 22/40/5 18/32/5 17/30/5
f 24/42/6 20/38/6 18/33/6 22/40/6
f 49/82/7 25/43/7 26/44/7 50/85/7
f 51/88/8 52/91/8 31/55/8 30/54/8
f 28/48/5 53/95/5 55/99/5 29/51/5
f 26/44/5 31/55/5 52/92/5 50/86/5
f 49/83/3 51/89/3 30/54/3 25/43/3
f 33/58/3 36/63/3 47/79/3 46/77/3
f 38/66/3 39/68/3 41/70/3 48/80/3
f 40/69/5 37/65/5 44/74/5 45/76/5
f 37/64/1 33/59/1 46/78/1 44/75/1
f 35/62/5 34/61/5 43/72/5 42/71/5
f 34/60/1 38/67/1 48/81/1 43/73/1
f 28/49/1 49/84/1 50/87/1 27/45/1
f 32/56/1 52/93/1 51/90/1 29/52/1
f 29/52/1 51/90/1 49/84/1 28/49/1
f 27/45/1 50/87/1 52/93/1 32/56/1
f 54/96/1 56/102/1 55/100/1 53/94/1
f 27/46/8 54/97/8 53/95/8 28/50/8
f 32/57/3 56/102/3 54/98/3 27/47/3
f 29/53/7 55/101/7 56/103/7 32/57/7
f 31/55/9 26/44/9 25/43/9 30/54/9
f 41/70/9 39/68/9 35/62/9 42/71/9
f 47/79/9 36/63/9 40/69/9 45/76/9
f 57/104/3 60/109/3 71/125/3 70/123/3
f 62/112/3 63/114/3 65/116/3 72/126/3
f 64/115/5 61/111/5 68/120/5 69/122/5
f 61/110/1 57/105/1 70/124/1 68/121/1
f 59/108/5 58/107/5 67/118/5 66/117/5
f 58/106/1 62/113/1 72/127/1 67/119/1
f 65/116/9 63/114/9 59/108/9 66/117/9
f 71/125/9 60/109/9 64/115/9 69/122/9
f 64/115/8 60/109/8 57/105/8 61/111/8
f 40/69/8 36/63/8 33/59/8 37/65/8
f 35/62/8 39/68/8 38/67/8 34/61/8
f 59/108/8 63/114/8 62/113/8 58/107/8
f 23/41/4 24/42/4 22/40/4 21/39/4
