# Blender 3.3.1
# www.blender.org
mtllib coffee_machine_001.mtl
o coffee_machine_001
v 0.117687 0.306757 0.134180
v -0.117679 0.306756 0.134180
v 0.117687 0.306757 0.077907
v -0.117679 0.306756 0.077907
v 0.117687 0.153378 0.134180
v -0.117679 0.153378 0.134180
v 0.117687 0.208970 0.077907
v -0.117679 0.208970 0.077907
v -0.115554 0.000000 0.133045
v 0.115563 0.000000 0.133045
v 0.115563 0.000000 0.079043
v -0.115554 0.000000 0.079043
v 0.115563 0.155964 0.133045
v -0.115554 0.155964 0.133045
v 0.115563 0.215808 0.079043
v -0.115554 0.215808 0.079043
v 0.040436 0.000000 0.133045
v -0.040428 0.000000 0.133045
v -0.040428 0.155964 0.133045
v 0.040436 0.155964 0.133045
v -0.086221 0.280305 -0.119505
v -0.080217 0.329937 -0.113497
v 0.086229 0.280305 -0.119505
v 0.080225 0.329937 -0.113497
v -0.086221 0.280305 0.052953
v -0.080217 0.329937 0.046945
v 0.086229 0.280305 0.052953
v 0.080225 0.329937 0.046945
v -0.108195 -0.000000 -0.134409
v -0.108195 0.297186 -0.134409
v 0.108196 -0.000000 -0.134409
v 0.108196 0.297186 -0.134409
v -0.108195 0.000000 0.134411
v 0.108196 0.000000 0.134411
v -0.108083 0.299196 0.134537
v 0.108084 0.299196 0.134537
v -0.026876 0.167923 0.133251
v 0.026884 0.167923 0.133251
v -0.099305 -0.000463 0.086057
v -0.099305 0.033099 0.086057
v 0.099313 -0.000462 0.086057
v 0.099313 0.033099 0.086057
v -0.099305 -0.000463 0.182626
v -0.099305 0.033099 0.182626
v 0.099313 -0.000462 0.182626
v 0.099313 0.033099 0.182626
v -0.103149 0.036207 0.085333
v 0.103157 0.036207 0.085333
v -0.103149 0.036207 0.185645
v 0.103157 0.036207 0.185645
v -0.103149 0.025335 0.085333
v 0.103157 0.025335 0.085333
v 0.103157 0.025335 0.185645
v -0.103149 0.025335 0.185645
v -0.017056 0.206795 0.161047
v -0.017056 0.218864 0.161047
v 0.017065 0.206795 0.161047
v 0.017065 0.218864 0.161047
v 0.108196 0.297186 0.134411
v -0.108195 0.297186 0.134411
v 0.108084 0.238028 0.134537
v -0.108083 0.238028 0.134537
v -0.063150 0.341042 -0.096430
v 0.063151 0.341042 -0.096430
v -0.063150 0.341042 0.029874
v 0.063151 0.341042 0.029874
v -0.074619 0.329090 -0.107896
v 0.074620 0.329090 -0.107896
v 0.074620 0.329090 0.041344
v -0.074619 0.329090 0.041344
v -0.026876 0.234368 0.133251
v -0.018468 0.242772 0.133251
v 0.018476 0.242772 0.133251
v 0.026884 0.234368 0.133251
v -0.018468 0.167923 0.160931
v -0.026876 0.167923 0.152530
v -0.018468 0.242772 0.152530
v -0.026876 0.234368 0.152530
v -0.018468 0.234368 0.160931
v 0.026884 0.167923 0.152530
v 0.018476 0.167923 0.160931
v 0.018476 0.242772 0.152530
v 0.018476 0.234368 0.160931
v 0.026884 0.234368 0.152530
v 0.058217 0.001969 0.121034
v -0.058216 0.001969 0.121034
v 0.058217 0.215808 0.121034
v -0.058216 0.215808 0.121034
v -0.089345 0.035908 0.182626
v -0.096872 0.035908 0.175102
v -0.089345 0.139974 0.175102
v -0.096873 0.132450 0.175102
v -0.089345 0.132450 0.182626
v -0.048745 0.035908 0.175102
v -0.056273 0.035908 0.182626
v -0.056273 0.139974 0.175102
v -0.056273 0.132450 0.182626
v -0.048745 0.132450 0.175102
v -0.089345 0.035908 0.133059
v -0.096872 0.035908 0.140583
v -0.089345 0.139974 0.140583
v -0.096873 0.132450 0.140583
v -0.089345 0.132450 0.133059
v -0.048745 0.035908 0.140583
v -0.056273 0.035908 0.133059
v -0.056273 0.139974 0.140582
v -0.056273 0.132450 0.133059
v -0.048745 0.132450 0.140582
v -0.056273 0.118954 0.182626
v -0.048745 0.118954 0.175102
v -0.096873 0.118954 0.175102
v -0.089345 0.118954 0.182626
v -0.056273 0.118954 0.133059
v -0.048745 0.118954 0.140582
v -0.096873 0.118954 0.140583
v -0.089345 0.118954 0.133059
v -0.082608 0.067362 0.182164
v -0.082608 0.132370 0.182164
v -0.063003 0.067362 0.182164
v -0.063003 0.132370 0.182164
v -0.082608 0.069673 0.195301
v -0.082608 0.077382 0.200696
v -0.082608 0.122350 0.200696
v -0.082608 0.130059 0.195301
v -0.063003 0.077382 0.200696
v -0.063003 0.069673 0.195301
v -0.063003 0.130059 0.195301
v -0.063003 0.122350 0.200696
v -0.082608 0.074195 0.187899
v -0.082608 0.125537 0.187899
v -0.063003 0.074195 0.187899
v -0.063003 0.125537 0.187899
v -0.082608 0.074910 0.191967
v -0.082608 0.079190 0.194965
v -0.082608 0.120542 0.194965
v -0.082608 0.124822 0.191967
v -0.063003 0.079190 0.194965
v -0.063003 0.074910 0.191967
v -0.063003 0.124822 0.191967
v -0.063003 0.120542 0.194965
v 0.034461 0.044890 0.151227
v 0.034461 0.092275 0.151227
v 0.016897 0.044890 0.181640
v 0.016897 0.092275 0.181640
v -0.018224 0.044890 0.181640
v -0.018224 0.092275 0.181640
v -0.035780 0.044890 0.151227
v -0.035780 0.092275 0.151227
v -0.018224 0.044890 0.120817
v -0.018224 0.092275 0.120817
v 0.016897 0.044890 0.120817
v 0.016897 0.092275 0.120817
v -0.000660 0.035577 0.151227
v 0.019483 0.034048 0.151227
v 0.009411 0.034048 0.168672
v -0.010731 0.034048 0.168672
v -0.020803 0.034048 0.151227
v -0.010731 0.034048 0.133786
v 0.009411 0.034048 0.133786
v 0.016708 0.092275 0.121142
v -0.018035 0.092275 0.121142
v -0.035403 0.092275 0.151227
v -0.018035 0.092275 0.181315
v 0.016708 0.092275 0.181315
v 0.034083 0.092275 0.151227
v 0.016121 0.045902 0.180291
v 0.032902 0.045902 0.151227
v -0.017441 0.045902 0.180291
v -0.034222 0.045902 0.151227
v -0.017441 0.045902 0.122163
v 0.016121 0.045902 0.122163
vn 1.0000 -0.0000 -0.0000
vn -0.0000 1.0000 -0.0000
vn -1.0000 -0.0000 -0.0000
vn -0.0000 -0.0000 1.0000
vn 0.9928 0.1201 -0.0000
vn -0.0000 0.1202 0.9928
vn -0.9928 0.1201 -0.0000
vn -0.1785 -0.0000 0.9839
vn -0.2459 -0.0639 0.9672
vn 0.0433 -0.2503 0.9672
vn 0.1783 -0.0000 0.9840
vn -0.0549 0.9835 -0.1724
vn -0.1785 0.9839 -0.0000
vn 0.1785 0.9839 -0.0000
vn 0.1797 0.9835 -0.0212
vn 0.9711 -0.2385 -0.0000
vn 0.9751 -0.2208 -0.0190
vn 0.9965 -0.0000 -0.0839
vn -0.1754 0.9688 -0.1754
vn -0.1754 0.9688 0.1754
vn 0.1754 0.9688 0.1754
vn 0.1754 0.9688 -0.1754
vn -0.8511 0.5122 0.1151
vn -0.7215 0.6924 -0.0000
vn -0.8511 0.5122 -0.1151
vn 0.8511 0.5122 -0.1151
vn 0.7215 0.6924 -0.0000
vn 0.8511 0.5122 0.1151
vn 0.1151 0.5122 0.8511
vn -0.0000 0.6924 0.7215
vn -0.1151 0.5122 0.8511
vn -0.6894 0.4345 0.5796
vn -0.3847 0.6800 0.6242
vn -0.5818 0.7251 0.3684
vn 0.5977 0.4275 0.6782
vn 0.7178 0.5934 0.3641
vn 0.4011 0.7142 0.5736
vn 0.6956 0.6959 0.1785
vn 0.8172 0.5737 -0.0549
vn 0.6760 0.7031 -0.2208
vn 0.6866 0.6869 0.2385
vn 0.7288 -0.2459 0.6390
vn 0.6955 0.1785 0.6960
vn 0.7043 0.0839 0.7049
vn 0.5331 -0.0190 0.8459
vn -0.1724 0.6565 0.7344
vn 0.0212 0.5682 0.8226
vn 0.2503 0.7144 0.6534
vn -0.0639 0.8577 0.5102
vn -0.5529 -0.1093 0.8261
vn -0.7043 0.0839 0.7049
vn -0.6955 0.1783 0.6961
vn -0.8607 -0.0433 0.5073
vn -0.7103 0.6806 -0.1797
vn -0.6956 0.6959 0.1785
vn -0.6866 0.6868 0.2385
vn -0.6121 0.7669 -0.1928
vn -0.9965 -0.0000 -0.0839
vn -0.9751 -0.1928 -0.1093
vn -0.9711 -0.2385 -0.0000
vn -0.1151 0.5121 -0.8512
vn -0.0000 0.6923 -0.7216
vn 0.1151 0.5121 -0.8512
vn -0.0708 0.1709 0.9827
vn -0.1736 -0.0111 0.9848
vn 0.0616 -0.1627 0.9848
vn 0.1850 -0.0000 0.9827
vn 0.9817 -0.0000 -0.1905
vn 0.9817 0.1760 0.0729
vn 0.9841 -0.0109 0.1774
vn 0.9841 -0.1661 -0.0633
vn -0.6377 0.3823 0.6687
vn -0.4229 0.6400 0.6415
vn -0.6023 0.6711 0.4322
vn 0.6676 0.3822 0.6389
vn 0.6883 0.5747 0.4427
vn 0.4285 0.6727 0.6031
vn -0.8155 0.5634 0.1325
vn -0.5702 0.8214 0.0109
vn -0.6060 0.7856 -0.1246
vn -0.8155 0.5634 -0.1325
vn 0.7448 -0.1709 0.6450
vn 0.6956 0.1784 0.6959
vn 0.6949 0.1838 0.6952
vn 0.5593 -0.0000 0.8290
vn -0.1340 0.5640 0.8149
vn 0.1785 0.5957 0.7831
vn 0.1627 0.7399 0.6528
vn -0.0111 0.8191 0.5736
vn -0.5695 -0.0729 0.8188
vn -0.6949 0.1838 0.6952
vn -0.6956 0.1785 0.6959
vn -0.8256 -0.0000 0.5643
vn -0.9817 -0.0000 0.1905
vn -0.9817 0.0729 -0.1760
vn -0.9841 -0.1246 -0.1268
vn -0.9841 -0.0109 0.1774
vn -0.2171 0.9750 0.0479
vn 0.1325 0.9750 0.1785
vn 0.1325 0.9750 -0.1785
vn -0.1774 0.9750 -0.1340
vn -0.6377 0.3823 -0.6687
vn -0.5794 0.6944 -0.4267
vn -0.4394 0.5742 -0.6908
vn 0.7052 0.3944 -0.5892
vn 0.4394 0.5742 -0.6908
vn 0.5794 0.6944 -0.4267
vn 0.7069 -0.0000 -0.7073
vn 0.6424 -0.1760 -0.7459
vn 0.6949 0.1838 -0.6952
vn -0.0479 0.5359 -0.8429
vn -0.1885 0.7108 -0.6777
vn 0.1885 0.7108 -0.6777
vn 0.1785 0.5957 -0.7831
vn -0.5592 -0.0000 -0.8290
vn -0.7069 -0.0000 -0.7073
vn -0.6949 0.1838 -0.6952
vn 0.6509 0.7408 -0.1661
vn 0.5702 0.8214 0.0109
vn 0.7231 0.6557 0.2171
vn 0.7840 0.5948 -0.1774
vn -0.6880 -0.1774 -0.7037
vn -0.8274 -0.0234 -0.5612
vn -0.6940 0.1905 -0.6943
vn 0.8274 -0.0234 -0.5612
vn 0.6880 -0.1774 -0.7037
vn 0.5695 0.0729 -0.8187
vn -0.9830 -0.0000 0.1838
vn -0.9830 -0.0000 -0.1838
vn -0.9817 -0.1760 -0.0729
vn -0.9817 -0.1905 -0.0000
vn -0.6076 -0.1268 0.7841
vn -0.6424 0.1760 0.7459
vn -0.6947 0.1850 0.6951
vn -0.8112 -0.0616 0.5815
vn 0.7040 -0.1736 0.6886
vn 0.8156 0.0708 0.5743
vn 0.6940 0.1905 0.6943
vn 0.5782 -0.0633 0.8134
vn 0.9830 -0.0000 -0.1838
vn 0.9830 -0.0000 0.1838
vn 0.9817 -0.0729 0.1760
vn 0.9817 -0.1905 -0.0000
vn -0.1784 -0.0000 0.9840
vn -0.1709 -0.0708 0.9827
vn -0.0000 -0.1850 0.9827
vn 0.1785 -0.0000 0.9839
vn -0.0000 0.9936 0.1126
vn -0.0000 0.9849 0.1732
vn -0.0000 0.1790 0.9839
vn 0.0001 -0.1790 0.9839
vn -0.0000 -0.1790 0.9839
vn -0.0001 0.1790 0.9839
vn 0.0612 -0.5723 0.8177
vn -0.0612 -0.5723 0.8177
vn -0.1790 -0.5641 0.8060
vn 0.1790 -0.5641 0.8061
vn -0.0612 0.5723 0.8177
vn 0.0612 0.5723 0.8177
vn 0.1790 0.5641 0.8060
vn -0.1790 0.5641 0.8061
vn -0.0000 -0.9849 0.1732
vn -0.0000 -0.9936 0.1126
vn -0.0000 0.9849 -0.1732
vn -0.0000 0.9731 -0.2302
vn -1.0000 -0.0000 -0.0003
vn 1.0000 0.0002 -0.0004
vn 1.0000 -0.0002 -0.0002
vn 1.0000 -0.0002 0.0005
vn -1.0000 -0.0002 -0.0004
vn -1.0000 0.0004 -0.0003
vn -1.0000 -0.0000 0.0005
vn 1.0000 -0.0000 -0.0003
vn -0.0000 0.5737 -0.8190
vn -0.0582 0.5728 -0.8177
vn 0.0582 0.5727 -0.8177
vn 0.8492 0.1958 0.4904
vn 0.8660 -0.0000 0.5001
vn 0.9374 0.0852 0.3377
vn -0.0852 0.1763 0.9806
vn 0.1958 -0.0000 0.9806
vn -0.8493 0.1958 0.4903
vn -0.8661 -0.0000 0.4999
vn -0.7611 0.0852 0.6430
vn -0.8067 0.1763 -0.5641
vn -0.8660 -0.0000 -0.5000
vn -0.8499 0.1919 -0.4907
vn 0.8498 0.1919 -0.4908
vn 0.8659 -0.0000 -0.5001
vn 0.7512 -0.0000 -0.6600
vn -0.8658 0.0220 -0.4999
vn 0.4467 -0.7524 0.4841
vn 0.5159 -0.8445 0.1441
vn 0.5554 -0.7672 0.3207
vn -0.6426 -0.7524 0.1448
vn -0.3826 -0.8445 0.3746
vn -0.5554 -0.7673 0.3206
vn 0.6411 -0.7529 -0.1486
vn 0.3860 -0.8672 -0.3146
vn 0.5554 -0.7672 -0.3208
vn -0.4098 -0.7932 -0.4505
vn -0.6410 -0.7530 -0.1485
vn -0.5554 -0.7673 -0.3207
vn -0.1852 -0.7931 0.5802
vn 0.0794 -0.8672 0.4916
vn -0.0000 -0.7672 0.6414
vn -0.8658 0.0220 0.4999
vn 0.8658 0.0221 0.4999
vn -0.0000 0.0220 0.9998
vn 0.8658 0.0221 -0.4998
vn -0.2899 0.9423 -0.1674
vn -0.1470 0.9558 -0.2546
vn -0.0000 0.9423 -0.3348
vn -0.1470 0.9558 -0.2547
vn 0.2899 0.9423 -0.1674
vn 0.2899 0.9423 0.1674
vn -0.0000 0.9423 0.3348
vn -0.2899 0.9423 0.1674
vn -0.0000 0.1202 -0.9928
vn -0.0000 -0.0000 -1.0000
vn -0.0000 -1.0000 -0.0000
vt 0.956048 0.401557
vt 0.955445 0.402763
vt 0.954782 0.402795
vt 0.954179 0.404001
vt 0.956048 0.401557
vt 0.954782 0.402795
vt 0.956680 0.401719
vt 0.956077 0.402926
vt 0.955415 0.402632
vt 0.954812 0.403838
vt 0.956680 0.401719
vt 0.955415 0.402632
vt 0.982586 0.288305
vt 0.982877 0.288170
vt 0.982877 0.288170
vt 0.982586 0.288305
vt 0.982732 0.288132
vt 0.982441 0.288342
vt 0.982732 0.288132
vt 0.982441 0.288342
vt 0.982783 0.288214
vt 0.982681 0.288261
vt 0.982535 0.288274
vt 0.982637 0.288201
vt 0.953156 0.400107
vt 0.952945 0.400133
vt 0.953368 0.400849
vt 0.953156 0.400824
vt 0.952743 0.399912
vt 0.953156 0.400849
vt 0.952531 0.399938
vt 0.952945 0.400824
vt 0.953368 0.400107
vt 0.952743 0.400655
vt 0.953156 0.400133
vt 0.952531 0.400629
vt 0.948292 0.234039
vt 0.947073 0.235293
vt 0.949512 0.235313
vt 0.948127 0.235929
vt 0.948292 0.234959
vt 0.949512 0.234393
vt 0.897767 0.793583
vt 0.898720 0.792651
vt 0.947848 0.237683
vt 0.947608 0.237373
vt 0.899993 0.793615
vt 0.899885 0.793615
vt 0.899990 0.794598
vt 0.899883 0.794598
vt 0.899756 0.794033
vt 0.899412 0.794138
vt 0.899885 0.793929
vt 0.899755 0.794534
vt 0.899883 0.794285
vt 0.899412 0.794783
vt 0.946590 0.231340
vt 0.946703 0.231542
vt 0.946590 0.231551
vt 0.946708 0.231025
vt 0.946703 0.231439
vt 0.946579 0.231505
vt 0.946692 0.231551
vt 0.946708 0.231128
vt 0.946579 0.231717
vt 0.946692 0.231542
vt 0.946697 0.231025
vt 0.946644 0.231422
vt 0.946641 0.231472
vt 0.850747 0.120758
vt 0.850738 0.120758
vt 0.850747 0.120724
vt 0.850738 0.120724
vt 0.947961 0.235313
vt 0.948292 0.234080
vt 0.947073 0.235313
vt 0.899674 0.792896
vt 0.898720 0.793338
vt 0.946385 0.232495
vt 0.947515 0.231154
vt 0.947046 0.232495
vt 0.946360 0.233396
vt 0.946385 0.231826
vt 0.947515 0.231822
vt 0.947490 0.231154
vt 0.947046 0.231826
vt 0.946360 0.232727
vt 0.947490 0.231822
vt 0.947541 0.231151
vt 0.946385 0.233399
vt 0.946385 0.232724
vt 0.947515 0.231826
vt 0.947541 0.231826
vt 0.947515 0.231151
vt 0.947859 0.237408
vt 0.947896 0.237925
vt 0.948057 0.237925
vt 0.947619 0.237648
vt 0.898872 0.794317
vt 0.941173 0.239773
vt 0.898701 0.794560
vt 0.947686 0.237683
vt 0.943273 0.225687
vt 0.898865 0.794607
vt 0.947896 0.237743
vt 0.898696 0.794345
vt 0.947680 0.237408
vt 0.898866 0.794532
vt 0.898513 0.794317
vt 0.947446 0.237373
vt 0.941132 0.239773
vt 0.898984 0.794317
vt 0.941186 0.239773
vt 0.948057 0.237743
vt 0.898990 0.794607
vt 0.898990 0.794532
vt 0.947440 0.237648
vt 0.898508 0.794533
vt 0.899364 0.793040
vt 0.899030 0.793194
vt 0.898887 0.792997
vt 0.898554 0.793237
vt 0.850925 0.119580
vt 0.850908 0.119604
vt 0.850819 0.119783
vt 0.897613 0.795976
vt 0.897252 0.796699
vt 0.897184 0.796594
vt 0.897546 0.795872
vt 0.897613 0.795947
vt 0.850890 0.119580
vt 0.850800 0.119759
vt 0.850936 0.119580
vt 0.897662 0.795976
vt 0.897301 0.796699
vt 0.897662 0.795947
vt 0.897110 0.796669
vt 0.897471 0.795947
vt 0.850925 0.119580
vt 0.850908 0.119604
vt 0.850819 0.119783
vt 0.897252 0.796699
vt 0.897613 0.795976
vt 0.897184 0.796594
vt 0.897546 0.795872
vt 0.897613 0.795947
vt 0.850890 0.119580
vt 0.850800 0.119759
vt 0.850936 0.119580
vt 0.897662 0.795976
vt 0.897301 0.796699
vt 0.897662 0.795947
vt 0.897110 0.796669
vt 0.897471 0.795947
vt 0.897661 0.795927
vt 0.850936 0.119596
vt 0.897110 0.796650
vt 0.850889 0.119596
vt 0.897472 0.795927
vt 0.850800 0.119776
vt 0.850908 0.119592
vt 0.897185 0.796614
vt 0.850818 0.119767
vt 0.897546 0.795908
vt 0.897614 0.795916
vt 0.850925 0.119594
vt 0.850936 0.119596
vt 0.897661 0.795927
vt 0.897110 0.796650
vt 0.850889 0.119596
vt 0.897472 0.795927
vt 0.850800 0.119776
vt 0.897185 0.796614
vt 0.850908 0.119592
vt 0.897546 0.795908
vt 0.850818 0.119767
vt 0.850925 0.119592
vt 0.897614 0.795911
vt 0.896556 0.796173
vt 0.897568 0.796173
vt 0.896556 0.795835
vt 0.897568 0.795835
vt 0.896795 0.796173
vt 0.896929 0.796173
vt 0.897195 0.796173
vt 0.897329 0.796173
vt 0.896929 0.795835
vt 0.896795 0.795835
vt 0.897329 0.795835
vt 0.897195 0.795835
vt 0.896556 0.796173
vt 0.897568 0.796173
vt 0.896556 0.795835
vt 0.897568 0.795835
vt 0.896795 0.796173
vt 0.896929 0.796173
vt 0.897195 0.796173
vt 0.897329 0.796173
vt 0.896929 0.795835
vt 0.896795 0.795835
vt 0.897329 0.795835
vt 0.897195 0.795835
vt 0.873775 0.069237
vt 0.872339 0.069237
vt 0.873775 0.069955
vt 0.872339 0.069955
vt 0.873536 0.069237
vt 0.873536 0.069955
vt 0.873297 0.069237
vt 0.873297 0.069955
vt 0.873057 0.069237
vt 0.873057 0.069955
vt 0.872818 0.069237
vt 0.872818 0.069955
vt 0.872579 0.069237
vt 0.872579 0.069955
vt 0.872339 0.068519
vt 0.873775 0.069237
vt 0.872339 0.069237
vt 0.873536 0.069237
vt 0.873297 0.069237
vt 0.873057 0.069237
vt 0.872818 0.069237
vt 0.872579 0.069237
vt 0.872339 0.068519
vt 0.872339 0.068519
vt 0.872339 0.068519
vt 0.872339 0.068519
vt 0.872339 0.068519
vt 0.872339 0.068519
vt 0.872339 0.068519
vt 0.872339 0.068519
vt 0.872339 0.068519
vt 0.872339 0.068519
vt 0.872339 0.068519
vt 0.872339 0.068519
s 1
usemtl Material
f 5/7/1 7/11/1 3/5/1 1/1/1
f 1/1/2 3/5/2 4/6/2 2/3/2
f 2/3/3 4/6/3 8/12/3 6/9/3
f 2/4/4 6/10/4 5/8/4 1/2/4
f 14/18/3 16/20/3 12/16/3 9/13/3
f 10/14/1 11/15/1 15/19/1 13/17/1
f 20/24/4 17/21/4 10/14/4 13/17/4
f 14/18/4 9/13/4 18/22/4 19/23/4
f 23/27/5 24/28/5 28/35/5 27/33/5
f 27/34/6 28/36/6 26/31/6 25/29/6
f 25/30/7 26/32/7 22/26/7 21/25/7
f 35/43/4 62/78/4 61/77/4 36/44/4
f 33/41/3 60/76/3 30/38/3 29/37/3
f 59/74/2 32/40/2 30/38/2 60/76/2
f 31/39/1 32/40/1 59/75/1 34/42/1
f 81/112/8 83/116/9 79/108/10 75/99/11
f 82/114/12 73/97/13 72/96/14 77/105/15
f 38/46/1 74/98/16 84/117/17 80/110/18
f 41/49/1 42/50/1 46/55/1 45/54/1
f 45/54/4 46/56/4 44/52/4 43/51/4
f 43/51/3 44/53/3 40/48/3 39/47/3
f 50/63/2 48/59/2 47/57/2 49/61/2
f 47/58/3 51/66/3 54/69/3 49/61/3
f 50/64/1 53/68/1 52/67/1 48/60/1
f 49/62/4 54/69/4 53/68/4 50/65/4
f 57/72/4 58/73/4 56/71/4 55/70/4
f 66/86/19 64/81/20 63/79/21 65/83/22
f 63/80/23 67/89/24 70/93/24 65/84/25
f 66/87/26 69/91/27 68/90/27 64/82/28
f 65/85/29 70/94/30 69/92/30 66/88/31
f 77/104/32 78/106/33 79/108/34
f 82/115/35 83/116/36 84/118/37
f 73/97/38 82/114/39 84/117/40 74/98/41
f 83/116/42 81/112/43 80/109/44 84/118/45
f 82/115/46 77/104/47 79/108/48 83/116/49
f 78/106/50 76/101/51 75/99/52 79/108/53
f 77/105/54 72/96/55 71/95/56 78/107/57
f 76/102/58 78/107/59 71/95/60 37/45/3
f 85/119/4 87/121/4 88/122/4 86/120/4
f 24/28/2 22/26/2 26/32/2 28/36/2
f 64/82/61 68/90/62 67/89/62 63/80/63
f 109/155/64 97/136/65 93/130/66 112/165/67
f 110/157/68 114/169/69 108/153/70 98/137/71
f 91/126/72 92/129/73 93/130/74
f 96/134/75 97/136/76 98/138/77
f 101/142/78 102/144/79 92/128/80 91/127/81
f 109/156/82 95/133/83 94/131/84 110/158/85
f 96/134/86 91/126/87 93/130/88 97/136/89
f 111/161/90 90/124/91 89/123/92 112/166/93
f 115/173/94 111/162/95 92/128/96 102/144/97
f 106/151/98 101/142/99 91/127/100 96/135/101
f 101/143/102 103/146/103 102/145/104
f 106/150/105 108/154/106 107/152/107
f 113/167/108 114/170/109 104/147/110 105/149/108
f 106/150/111 107/152/112 103/146/113 101/143/114
f 115/174/115 116/177/116 99/139/116 100/140/117
f 98/137/118 108/153/119 106/151/120 96/135/121
f 102/145/122 103/146/123 116/178/116 115/175/124
f 107/152/125 108/154/126 114/171/127 113/168/108
f 100/141/128 90/125/129 111/163/130 115/176/131
f 92/129/132 111/164/133 112/165/134 93/130/135
f 97/136/136 109/155/137 110/159/138 98/138/139
f 94/132/140 104/148/141 114/172/142 110/160/143
f 95/133/144 109/156/145 112/166/146 89/123/147
f 127/189/148 120/182/149 118/180/149 124/186/148
f 125/187/150 128/190/151 123/185/152 122/184/153
f 121/183/154 126/188/155 125/187/156 122/184/157
f 127/189/158 124/186/159 123/185/160 128/190/161
f 119/181/162 126/188/163 121/183/163 117/179/162
f 131/193/4 132/194/4 130/192/4 129/191/4
f 131/193/164 129/191/164 133/195/165 138/200/165
f 119/181/1 120/182/1 132/194/1 131/193/1
f 118/180/3 117/179/166 129/191/166 130/192/3
f 121/183/3 122/184/3 134/196/3 133/195/3
f 125/187/1 126/188/167 138/200/168 137/199/1
f 127/189/169 128/190/1 140/202/1 139/201/1
f 123/185/3 124/186/170 136/198/171 135/197/3
f 126/188/167 119/181/1 131/193/1 138/200/168
f 117/179/172 121/183/3 133/195/3 129/191/172
f 128/190/1 125/187/1 137/199/1 140/202/1
f 122/184/3 123/185/3 135/197/3 134/196/3
f 120/182/173 127/189/169 139/201/1 132/194/173
f 124/186/170 118/180/3 130/192/3 136/198/171
f 134/196/174 137/199/174 138/200/175 133/195/176
f 141/203/177 142/205/178 144/208/178 143/207/179
f 143/207/180 144/208/4 146/210/4 145/209/181
f 145/209/182 146/210/183 148/212/183 147/211/184
f 147/211/185 148/212/186 150/214/186 149/213/187
f 151/215/188 152/216/189 142/206/189 141/204/190
f 165/230/191 167/232/191 166/231/191 164/229/191
f 141/203/192 143/207/193 155/220/194 154/218/194
f 145/209/195 147/211/196 157/222/197 156/221/197
f 151/215/198 141/204/199 154/219/200 159/224/200
f 147/211/201 149/213/202 158/223/203 157/222/203
f 143/207/204 145/209/205 156/221/206 155/220/206
f 160/225/207 171/236/207 167/232/207 165/230/207
f 162/227/208 169/234/208 170/235/208 161/226/208
f 161/226/209 170/235/209 171/236/209 160/225/209
f 163/228/210 168/233/210 169/234/210 162/227/210
f 153/217/211 166/231/212 167/232/211
f 153/217/213 168/233/213 166/231/214
f 153/217/215 169/234/215 168/233/215
f 153/217/216 170/235/216 169/234/216
f 153/217/217 171/236/217 170/235/217
f 153/217/218 167/232/218 171/236/218
f 24/28/219 23/27/219 21/25/219 22/26/219
f 29/37/220 30/38/220 32/40/220 31/39/220
f 33/41/221 29/37/221 31/39/221 34/42/221
f 9/13/221 12/16/221 11/15/221 10/14/221
f 41/49/221 45/54/221 43/51/221 39/47/221
f 54/69/221 51/66/221 52/67/221 53/68/221
f 38/46/221 80/110/221 76/102/221 37/45/221
f 80/111/221 81/113/221 75/100/221 76/103/221
f 12/16/220 16/20/220 15/19/220 11/15/220
f 3/5/220 7/11/220 8/12/220 4/6/220
