# Blender 3.3.1
# www.blender.org
mtllib dish_002.mtl
o dish_002
v 0.009625 0.031572 0.035818
v 0.006188 0.014072 -0.004729
v 0.045250 0.029790 0.009021
v -0.013187 0.053252 0.004412
v 0.022438 0.051460 -0.022385
v 0.026188 0.068970 0.018318
v -0.027875 0.017051 -0.035041
v -0.045687 0.037432 -0.048244
v -0.022875 0.025039 -0.063713
v -0.026625 0.046050 -0.026682
v -0.021625 0.054028 -0.055432
v -0.004125 0.033657 -0.042151
v -0.029437 0.035205 0.034021
v -0.032250 0.025815 0.005428
v -0.005687 0.023540 0.019490
v -0.033187 0.055322 0.011756
v -0.009437 0.043652 -0.002619
v -0.006625 0.053052 0.025896
v 0.004312 0.022080 -0.047229
v -0.016313 0.027754 -0.047072
v -0.001625 0.041221 -0.054651
v -0.005375 0.026235 -0.028713
v -0.011312 0.045376 -0.036213
v 0.009000 0.039712 -0.036369
v -0.007562 0.035542 0.014256
v -0.018812 0.030039 0.043474
v 0.005875 0.049312 0.039646
v 0.009625 0.020781 0.053162
v 0.021500 0.026284 0.024256
v 0.013375 0.031436 0.018396
v 0.021188 0.018828 0.043240
v 0.020250 0.047607 0.041287
v 0.038688 0.017729 0.020506
v 0.045563 0.033901 0.043474
v 0.037750 0.046509 0.018474
v -0.002875 0.035894 0.011365
v -0.017250 0.053638 -0.012463
v -0.035687 0.042114 0.012849
v -0.006625 0.022998 -0.018869
v -0.038812 0.029229 -0.017385
v -0.024437 0.011475 0.006443
v -0.030687 0.054790 0.020662
v -0.031625 0.041060 0.052303
v -0.001625 0.049570 0.037771
v -0.039750 0.021582 0.024881
v -0.009750 0.016367 0.041990
v -0.009125 0.030103 0.010349
v 0.019000 0.039136 -0.011994
v -0.006000 0.052349 -0.019260
v -0.006000 0.029443 -0.001291
v 0.008375 0.036680 -0.038947
v -0.016625 0.026982 -0.028322
v 0.008062 0.013765 -0.021057
v -0.001000 0.022642 0.075037
v -0.018500 0.029077 0.051521
v 0.009938 0.021099 0.046990
v -0.009750 0.051113 0.070037
v 0.001188 0.049570 0.041990
v 0.019000 0.043130 0.065506
v -0.030687 0.027456 0.030896
v -0.028500 0.037539 0.057849
v -0.005062 0.036157 0.041131
v -0.033187 0.009478 0.053396
v -0.007875 0.018179 0.063396
v -0.010062 0.008096 0.036521
v -0.003188 0.027246 -0.058323
v -0.019125 0.043042 -0.058322
v -0.003188 0.043042 -0.074182
v -0.003187 0.043042 -0.042463
v -0.003187 0.058843 -0.058322
v 0.012438 0.043042 -0.058323
v 0.039000 0.029111 -0.023088
v 0.042438 0.053296 -0.038791
v 0.022438 0.052417 -0.017697
v 0.030563 0.029634 -0.050901
v 0.014000 0.052954 -0.045510
v 0.010563 0.028765 -0.029807
v 0.030250 0.044692 -0.057932
v 0.003063 0.050479 -0.049182
v 0.020875 0.035488 -0.031916
v 0.007750 0.031353 -0.070588
v -0.001625 0.022148 -0.044572
v 0.025562 0.016367 -0.053323
v 0.042125 0.031206 0.000974
v 0.037750 0.021587 -0.023713
v 0.041188 0.047974 -0.019963
v 0.017438 0.021660 -0.005510
v 0.016813 0.038423 -0.026526
v 0.021500 0.048047 -0.001760
v -0.036937 0.016973 -0.004963
v -0.042250 0.040732 -0.026213
v -0.034438 0.011138 -0.036682
v -0.015687 0.041294 -0.007619
v -0.013187 0.035449 -0.039338
v -0.008188 0.011689 -0.018010
v 0.015250 0.012329 0.033474
v 0.000563 0.024927 0.054802
v 0.012750 0.041055 0.034177
v 0.026188 0.012554 0.060193
v 0.023375 0.041289 0.060974
v 0.038688 0.028682 0.039646
v -0.032563 0.000000 -0.060979
v -0.040375 0.000000 -0.052541
v -0.043813 0.047905 -0.079885
v -0.051938 0.047905 -0.071526
v -0.032562 -0.000000 0.072068
v -0.040687 -0.000000 0.063787
v -0.043500 0.047905 0.090974
v -0.052250 0.047905 0.082537
v 0.043062 0.047905 -0.079963
v 0.050875 0.047905 -0.071447
v 0.031500 -0.000000 -0.060979
v 0.039937 -0.000000 -0.052619
v 0.050875 0.047905 0.082615
v 0.043375 0.047905 0.090974
v 0.031500 -0.000000 0.072068
v 0.039625 -0.000000 0.063709
v -0.044750 0.047905 -0.074260
v -0.045062 0.047905 0.085271
v 0.044313 0.047905 0.085271
v 0.044312 0.047905 -0.074182
v -0.027875 0.010317 -0.043713
v -0.027875 0.010317 0.054646
v 0.027125 0.010317 0.054724
v 0.027125 0.010317 -0.043635
vn -0.9259 0.3702 -0.0754
vn -0.5042 -0.5847 -0.6356
vn -0.3664 0.0842 0.9266
vn 0.9944 0.0215 -0.1030
vn 0.2012 0.3159 -0.9272
vn 0.3220 0.8720 0.3686
vn -0.0828 0.4914 0.8670
vn -0.8742 0.4853 -0.0139
vn -0.1598 -0.2671 0.9503
vn 0.1680 0.2641 -0.9498
vn 0.1500 0.8655 -0.4779
vn 0.9128 0.3236 0.2490
vn -0.6437 0.7431 -0.1826
vn -0.8815 0.0721 -0.4667
vn -0.4369 0.2355 0.8681
vn 0.4149 0.5951 -0.6883
vn 0.8830 -0.0726 0.4637
vn 0.6023 0.6388 0.4786
vn 0.7678 -0.4209 -0.4830
vn -0.8834 0.0225 -0.4681
vn 0.1302 0.4965 -0.8582
vn -0.5162 0.7737 0.3673
vn -0.0091 -0.0895 0.9959
vn 0.8433 0.4020 0.3567
vn -0.1213 0.8981 -0.4228
vn -0.4863 0.7210 0.4936
vn 0.2101 0.9416 0.2630
vn 0.4180 0.4332 0.7985
vn 0.7862 0.6079 -0.1113
vn -0.7266 0.3654 -0.5819
vn -0.6126 0.0336 0.7897
vn -0.4531 0.7311 0.5102
vn 0.7002 0.4840 0.5248
vn 0.4111 0.6791 -0.6081
vn 0.6169 -0.0354 -0.7862
vn 0.5625 0.5224 0.6408
vn 0.1577 0.9009 -0.4043
vn -0.6216 0.4045 0.6708
vn 0.5428 0.3480 -0.7643
vn -0.8352 0.2575 -0.4859
vn -0.5398 -0.3575 0.7621
vn -0.4238 0.7924 -0.4387
vn -0.3108 0.6199 0.7205
vn 0.7733 0.5754 0.2663
vn -0.8519 0.1696 -0.4954
vn 0.8559 -0.1464 0.4961
vn 0.5216 0.2119 -0.8264
vn 0.7905 0.6051 0.0944
vn -0.3464 0.9370 0.0452
vn -0.4913 0.5376 0.6853
vn 0.4806 0.5297 -0.6989
vn -0.8595 0.4480 -0.2462
vn 0.9036 -0.2711 -0.3315
vn -0.4649 0.7019 0.5397
vn -0.9240 0.0967 -0.3701
vn 0.0790 -0.2612 0.9621
vn 0.7004 -0.3473 -0.6236
vn 0.0493 0.6301 -0.7749
vn 0.8856 0.3293 0.3274
vn -0.4329 0.6191 -0.6553
vn -0.4549 0.7205 0.5234
vn 0.6960 0.6534 -0.2978
vn -0.8092 0.0422 0.5861
vn 0.5781 0.2059 0.7896
vn 0.8109 -0.0487 -0.5832
vn 0.0039 -1.0000 -0.0000
vn -1.0000 -0.0001 -0.0000
vn 0.0039 -0.0001 -1.0000
vn 0.0039 -0.0001 1.0000
vn 0.0039 1.0000 -0.0000
vn 1.0000 -0.0001 -0.0000
vn 0.9731 0.0110 0.2299
vn 0.7720 0.5965 -0.2196
vn -0.1286 0.8563 0.5002
vn 0.2292 -0.1453 -0.9625
vn -0.6050 0.5802 -0.5452
vn -0.9729 -0.0116 -0.2308
vn 0.7724 0.5471 -0.3226
vn -0.5476 0.8308 0.0993
vn 0.3568 0.5061 0.7852
vn -0.2232 0.3245 -0.9192
vn -0.9335 0.2026 0.2959
vn 0.9334 -0.2027 -0.2962
vn 0.6581 0.2473 0.7112
vn 0.7369 0.0001 -0.6760
vn 0.6130 0.6928 -0.3798
vn -0.5426 0.5983 -0.5895
vn -0.4200 0.6995 0.5781
vn -0.7381 0.0178 0.6744
vn 0.4100 0.6564 0.6333
vn -0.4007 0.8947 -0.1974
vn -0.0805 0.1775 0.9808
vn -0.3674 0.2225 -0.9031
vn 0.3675 0.7531 -0.5456
vn 0.8185 0.0058 0.5744
vn 0.0410 0.8721 -0.4876
vn -0.5125 0.4353 0.7402
vn 0.1919 0.7109 0.6766
vn 0.3704 0.0110 0.9288
vn 0.7968 0.5155 -0.3152
vn 0.2259 0.0435 -0.9732
vn -0.8472 -0.3580 -0.3925
vn -0.8983 -0.3300 -0.2900
vn -0.8940 -0.3325 0.3005
vn -0.8414 -0.3595 0.4036
vn 0.8994 -0.3250 -0.2925
vn 0.8468 -0.3543 -0.3969
vn 0.8496 -0.3547 0.3904
vn 0.9009 -0.3249 0.2877
vn -0.3567 -0.4137 0.8376
vn -0.3337 -0.4124 0.8477
vn 0.3457 -0.4155 0.8414
vn 0.3729 -0.4171 0.8289
vn 0.3660 -0.4151 -0.8329
vn 0.3403 -0.4137 -0.8444
vn -0.3462 -0.4151 -0.8413
vn -0.3694 -0.4164 -0.8307
vn -0.0000 1.0000 -0.0000
vn 0.4906 0.6725 0.5542
vn 0.4923 0.6728 -0.5522
vn 0.6146 0.6466 -0.4518
vn 0.6143 0.6461 0.4530
vn -0.4913 0.6739 -0.5519
vn -0.6122 0.6484 -0.4526
vn -0.4919 0.6733 0.5520
vn -0.6129 0.6478 0.4525
vn -0.0000 -1.0000 -0.0000
vt 0.062824 0.487341
vt 0.062824 0.487942
vt 0.062824 0.487427
vt 0.062652 0.487427
vt 0.062738 0.487599
vt 0.062738 0.487770
vt 0.062996 0.487427
vt 0.062910 0.487599
vt 0.062910 0.487770
vt 0.062824 0.487599
vt 0.062824 0.487770
vt 0.062824 0.487341
vt 0.062824 0.487942
vt 0.062824 0.487427
vt 0.062652 0.487427
vt 0.062738 0.487599
vt 0.062996 0.487427
vt 0.062910 0.487599
vt 0.062910 0.487770
vt 0.062824 0.487599
vt 0.062824 0.487770
vt 0.049803 0.569355
vt 0.049803 0.572560
vt 0.049803 0.569813
vt 0.049345 0.570729
vt 0.049345 0.571644
vt 0.050719 0.569813
vt 0.050261 0.570729
vt 0.050261 0.571644
vt 0.049803 0.570729
vt 0.049803 0.571644
vt 0.043513 0.347008
vt 0.043513 0.350756
vt 0.043513 0.347544
vt 0.042442 0.347544
vt 0.042977 0.348615
vt 0.042977 0.349685
vt 0.044584 0.347544
vt 0.044048 0.348615
vt 0.044048 0.349685
vt 0.043513 0.348615
vt 0.043513 0.349685
vt 0.043513 0.347008
vt 0.043513 0.350756
vt 0.043513 0.347544
vt 0.042442 0.347544
vt 0.042977 0.348615
vt 0.042977 0.349685
vt 0.043513 0.348615
vt 0.043513 0.349685
vt 0.049803 0.569355
vt 0.049803 0.572560
vt 0.049803 0.569813
vt 0.048887 0.569813
vt 0.049345 0.570729
vt 0.049345 0.571644
vt 0.050261 0.570729
vt 0.050261 0.571644
vt 0.049803 0.570729
vt 0.049803 0.571644
vt 0.049803 0.569355
vt 0.049803 0.572560
vt 0.049803 0.569813
vt 0.048887 0.569813
vt 0.049345 0.570729
vt 0.049345 0.571644
vt 0.050719 0.569813
vt 0.049803 0.570729
vt 0.049803 0.571644
vt 0.043513 0.347008
vt 0.043513 0.350756
vt 0.043513 0.347544
vt 0.042442 0.347544
vt 0.042977 0.348615
vt 0.042977 0.349685
vt 0.044584 0.347544
vt 0.044048 0.349685
vt 0.043513 0.348615
vt 0.043513 0.349685
vt 0.049803 0.569355
vt 0.049803 0.572560
vt 0.049803 0.569813
vt 0.048887 0.569813
vt 0.050719 0.569813
vt 0.050261 0.571644
vt 0.049803 0.570729
vt 0.049803 0.571644
vt 0.049803 0.569355
vt 0.049803 0.572560
vt 0.049803 0.569813
vt 0.048887 0.569813
vt 0.049345 0.570729
vt 0.049345 0.571644
vt 0.050719 0.569813
vt 0.050261 0.570729
vt 0.050261 0.571644
vt 0.049803 0.570729
vt 0.049803 0.571644
vt 0.062824 0.487341
vt 0.062824 0.487942
vt 0.062824 0.487427
vt 0.062652 0.487427
vt 0.062738 0.487599
vt 0.062738 0.487770
vt 0.062996 0.487427
vt 0.062824 0.487599
vt 0.062824 0.487770
vt 0.049803 0.569355
vt 0.049803 0.572560
vt 0.049803 0.569813
vt 0.048887 0.569813
vt 0.049345 0.570729
vt 0.049345 0.571644
vt 0.050719 0.569813
vt 0.050261 0.570729
vt 0.050261 0.571644
vt 0.049803 0.570729
vt 0.049803 0.571644
vt 0.049803 0.569355
vt 0.049803 0.569813
vt 0.048887 0.569813
vt 0.049345 0.570729
vt 0.050719 0.569813
vt 0.050261 0.570729
vt 0.049803 0.570729
vt 0.049803 0.571644
vt 0.049803 0.569355
vt 0.049803 0.572560
vt 0.049803 0.569813
vt 0.048887 0.569813
vt 0.049345 0.571644
vt 0.050719 0.569813
vt 0.050261 0.571644
vt 0.049803 0.570729
vt 0.049803 0.571644
vt 0.043513 0.347008
vt 0.043513 0.350756
vt 0.043513 0.347544
vt 0.042442 0.347544
vt 0.042977 0.348615
vt 0.042977 0.349685
vt 0.044048 0.348615
vt 0.044048 0.349685
vt 0.043513 0.348615
vt 0.043513 0.349685
vt 0.062824 0.487341
vt 0.062824 0.487942
vt 0.062824 0.487427
vt 0.062652 0.487427
vt 0.062996 0.487427
vt 0.062910 0.487599
vt 0.062910 0.487770
vt 0.062824 0.487599
vt 0.062824 0.487770
vt 0.062824 0.487942
vt 0.062824 0.487427
vt 0.062652 0.487427
vt 0.062738 0.487599
vt 0.062738 0.487770
vt 0.062996 0.487427
vt 0.062910 0.487599
vt 0.062824 0.487599
vt 0.062824 0.487770
vt 0.319592 0.338152
vt 0.319392 0.338152
vt 0.319469 0.336827
vt 0.319409 0.336923
vt 0.318117 0.338152
vt 0.318318 0.338152
vt 0.318240 0.336827
vt 0.318301 0.336923
vt 0.320603 0.336923
vt 0.319469 0.335790
vt 0.319409 0.335694
vt 0.319469 0.334342
vt 0.320575 0.338152
vt 0.319392 0.334465
vt 0.318301 0.335694
vt 0.317107 0.336923
vt 0.318240 0.335790
vt 0.317134 0.338152
vt 0.318240 0.334342
vt 0.318318 0.334465
vt 0.319439 0.336875
vt 0.321313 0.338152
vt 0.316397 0.338152
vt 0.318271 0.336875
vt 0.316397 0.338152
vt 0.321313 0.338152
vt 0.318271 0.335742
vt 0.316397 0.338152
vt 0.321313 0.338152
vt 0.319439 0.335742
vt 0.316397 0.338152
vt 0.321313 0.338152
vt 0.321313 0.333236
vt 0.316397 0.333236
vt 0.316397 0.333236
vt 0.321313 0.333236
vt 0.316397 0.333236
vt 0.321313 0.333236
vt 0.316397 0.333236
vt 0.321313 0.333236
s 1
usemtl Material
f 4/7/1 2/3/2 1/1/3
f 3/4/4 2/3/2 5/10/5
f 5/10/5 2/3/2 4/7/1
f 3/5/4 5/10/5 6/11/6
f 6/11/6 5/10/5 4/8/1
f 3/6/4 6/11/6 1/2/3
f 1/2/3 6/11/6 4/9/1
f 10/17/7 8/14/8 7/12/9
f 9/15/10 8/14/8 11/20/11
f 11/20/11 8/14/8 10/17/7
f 9/16/10 11/20/11 12/21/12
f 12/21/12 11/20/11 10/18/7
f 7/13/9 12/21/12 10/19/7
f 16/27/13 14/24/14 13/22/15
f 17/30/16 14/24/14 16/27/13
f 15/25/17 17/30/16 18/31/18
f 18/31/18 17/30/16 16/28/13
f 15/26/17 18/31/18 13/23/15
f 13/23/15 18/31/18 16/29/13
f 19/32/19 20/34/20 21/35/21
f 21/35/21 20/34/20 23/41/22
f 23/41/22 20/34/20 22/38/23
f 21/36/21 23/41/22 24/42/24
f 24/42/24 23/41/22 22/39/23
f 21/37/21 24/42/24 19/33/19
f 19/33/19 24/42/24 22/40/23
f 25/43/25 26/45/26 27/46/27
f 27/46/27 26/45/26 28/49/28
f 27/47/27 28/49/28 29/50/29
f 27/48/27 29/50/29 25/44/25
f 30/51/30 31/53/31 32/54/32
f 32/54/32 31/53/31 34/59/33
f 32/55/32 34/59/33 35/60/34
f 35/60/34 34/59/33 33/57/35
f 32/56/32 35/60/34 30/52/30
f 30/52/30 35/60/34 33/58/35
f 36/61/36 37/63/37 38/64/38
f 39/67/39 37/63/37 36/61/36
f 38/64/38 37/63/37 40/68/40
f 40/68/40 37/63/37 39/67/39
f 38/65/38 40/68/40 41/69/41
f 38/66/38 41/69/41 36/62/36
f 42/70/42 43/72/43 44/73/44
f 45/76/45 43/72/43 42/70/42
f 44/73/44 43/72/43 46/78/46
f 44/74/44 46/78/46 47/79/47
f 44/75/44 47/79/47 42/71/42
f 42/71/42 47/79/47 45/77/45
f 48/80/48 49/82/49 50/83/50
f 51/84/51 49/82/49 48/80/48
f 50/83/50 49/82/49 52/86/52
f 52/86/52 49/82/49 51/84/51
f 48/81/48 53/87/53 51/85/51
f 57/94/54 55/90/55 54/88/56
f 56/91/57 55/90/55 58/97/58
f 58/97/58 55/90/55 57/94/54
f 56/92/57 58/97/58 59/98/59
f 59/98/59 58/97/58 57/95/54
f 56/93/57 59/98/59 54/89/56
f 54/89/56 59/98/59 57/96/54
f 60/99/60 61/101/61 62/102/62
f 63/105/63 61/101/61 60/99/60
f 62/102/62 61/101/61 64/106/64
f 64/106/64 61/101/61 63/105/63
f 62/103/62 64/106/64 65/107/65
f 62/104/62 65/107/65 60/100/60
f 66/108/66 67/110/67 68/111/68
f 69/114/69 67/110/67 66/108/66
f 68/111/68 67/110/67 70/117/70
f 70/117/70 67/110/67 69/114/69
f 68/112/68 70/117/70 71/118/71
f 71/118/71 70/117/70 69/115/69
f 68/113/68 71/118/71 66/109/66
f 66/109/66 71/118/71 69/116/69
f 72/119/72 73/120/73 74/121/74
f 75/123/75 73/120/73 72/119/72
f 74/121/74 73/120/73 76/125/76
f 76/125/76 73/120/73 75/123/75
f 74/122/74 76/125/76 77/126/77
f 77/126/77 76/125/76 75/124/75
f 78/127/78 79/129/79 80/130/80
f 81/132/81 79/129/79 78/127/78
f 80/130/80 79/129/79 82/134/82
f 82/134/82 79/129/79 81/132/81
f 80/131/80 83/135/83 78/128/78
f 78/128/78 83/135/83 81/133/81
f 84/136/84 85/138/85 86/139/86
f 86/139/86 85/138/85 88/144/87
f 86/140/86 88/144/87 89/145/88
f 89/145/88 88/144/87 87/142/89
f 86/141/86 89/145/88 84/137/84
f 84/137/84 89/145/88 87/143/89
f 93/150/90 91/148/91 90/146/92
f 92/149/93 91/148/91 94/153/94
f 94/153/94 91/148/91 93/150/90
f 95/154/95 94/153/94 93/151/90
f 90/147/92 95/154/95 93/152/90
f 98/157/96 97/156/97 100/162/98
f 100/162/98 97/156/97 99/160/99
f 98/158/96 100/162/98 101/163/100
f 101/163/100 100/162/98 99/161/99
f 98/159/96 101/163/100 96/155/101
f 105/167/102 103/165/103 107/169/104 109/171/105
f 113/177/106 111/174/107 114/178/108 117/183/109
f 108/170/110 106/168/111 116/181/112 115/179/113
f 110/172/114 112/176/115 102/164/116 104/166/117
f 102/164/116 103/165/103 105/167/102 104/166/117
f 107/169/104 106/168/111 108/170/110 109/171/105
f 110/173/114 111/174/107 113/177/106 112/175/115
f 114/178/108 115/180/113 116/182/112 117/183/109
f 104/166/118 105/167/118 118/184/118
f 105/167/118 109/171/118 119/187/118 118/184/118
f 109/171/118 108/170/118 119/187/118
f 108/170/118 115/180/118 120/190/118 119/187/118
f 115/180/118 114/178/118 120/190/118
f 114/178/118 111/174/118 121/193/118 120/190/118
f 111/174/118 110/173/118 121/193/118
f 110/173/118 104/166/118 118/184/118 121/193/118
f 118/185/119 119/188/120 123/198/121 122/196/122
f 119/189/120 120/191/123 124/200/124 123/199/121
f 120/192/123 121/194/125 125/202/126 124/201/124
f 121/195/125 118/186/119 122/197/122 125/203/126
f 103/165/127 102/164/127 112/176/127 113/177/127 117/183/127 116/182/127 106/168/127 107/169/127
