# Blender 3.3.1
# www.blender.org
mtllib drink_002.mtl
o drink_002
v 0.040114 -0.000000 -0.020540
v 0.040114 0.185119 -0.020540
v 0.037846 -0.000000 0.024469
v 0.002269 -0.000000 -0.045010
v 0.002269 0.185119 -0.045010
v -0.037846 -0.000000 -0.024469
v -0.037846 0.185119 -0.024469
v -0.040114 -0.000000 0.020542
v -0.040114 0.185119 0.020542
v -0.002267 -0.000000 0.045010
v -0.002267 0.185119 0.045010
v 0.037846 0.185119 0.024469
v -0.001230 0.241548 0.024424
v -0.021764 0.241548 0.011146
v 0.020536 0.241548 0.013278
v -0.000852 0.275308 0.016935
v 0.014239 0.275308 0.009207
v -0.015091 0.275308 0.007728
v -0.014237 0.275308 -0.009204
v -0.020534 0.241548 -0.013277
v 0.000854 0.275308 -0.016933
v 0.001232 0.241548 -0.024422
v 0.015093 0.275308 -0.007727
v 0.021766 0.241548 -0.011145
v 0.016069 0.272685 0.010390
v 0.017032 0.272685 -0.008720
v 0.015163 0.296061 0.009803
v -0.000962 0.272685 0.019110
v -0.017029 0.272685 0.008722
v -0.000908 0.296061 0.018034
v -0.016071 0.296061 0.008229
v -0.015162 0.296061 -0.009803
v 0.000910 0.296061 -0.018034
v -0.016067 0.272685 -0.010388
v 0.000963 0.272685 -0.019110
v 0.016072 0.296061 -0.008229
vn 0.0503 -0.0000 -0.9987
vn 0.0497 0.1654 -0.9850
vn 0.8778 0.1654 -0.4495
vn 0.8901 -0.0000 -0.4558
vn 0.8282 0.1654 0.5355
vn 0.8398 -0.0000 0.5429
vn -0.8398 -0.0000 -0.5430
vn -0.8282 0.1654 -0.5355
vn -0.8901 -0.0000 0.4558
vn -0.8778 0.1654 0.4495
vn -0.0503 -0.0000 0.9987
vn -0.0496 0.1654 0.9850
vn 0.8046 0.2864 0.5202
vn -0.0482 0.2864 0.9569
vn -0.8528 0.2864 0.4367
vn -0.0492 0.2168 0.9750
vn -0.8689 0.2168 0.4449
vn 0.8198 0.2168 0.5300
vn -0.8046 0.2864 -0.5202
vn -0.8198 0.2168 -0.5300
vn 0.0482 0.2864 -0.9569
vn 0.0491 0.2168 -0.9750
vn 0.8528 0.2864 -0.4367
vn 0.8689 0.2168 -0.4449
vn 0.8389 0.0461 0.5424
vn 0.8892 0.0461 -0.4553
vn 0.8389 0.0461 0.5423
vn -0.0503 0.0461 0.9977
vn -0.8891 0.0461 0.4553
vn -0.8892 0.0461 0.4553
vn -0.0000 1.0000 -0.0000
vn -0.8389 0.0460 -0.5423
vn 0.0503 0.0460 -0.9977
vn -0.0000 -1.0000 -0.0000
vt 0.872190 0.069819
vt 0.872190 0.068319
vt 0.872555 0.069819
vt 0.871606 0.069819
vt 0.871997 0.069819
vt 0.870579 0.067588
vt 0.871997 0.068319
vt 0.870579 0.069088
vt 0.870902 0.067588
vt 0.871529 0.069819
vt 0.870902 0.069088
vt 0.871529 0.068319
vt 0.871164 0.069819
vt 0.871164 0.068319
vt 0.870971 0.069819
vt 0.871928 0.069819
vt 0.871928 0.068319
vt 0.870971 0.068319
vt 0.871606 0.068319
vt 0.872555 0.068319
vt 0.871138 0.067861
vt 0.871922 0.067861
vt 0.871242 0.067861
vt 0.871747 0.067861
vt 0.872467 0.067861
vt 0.871198 0.067588
vt 0.871920 0.067588
vt 0.871799 0.067588
vt 0.872434 0.067588
vt 0.871271 0.067588
vt 0.871408 0.067588
vt 0.870708 0.069819
vt 0.870760 0.069546
vt 0.871440 0.067861
vt 0.870587 0.069819
vt 0.872224 0.067588
vt 0.872164 0.067861
vt 0.870585 0.069546
vt 0.872297 0.067588
vt 0.872268 0.067861
vt 0.332462 0.425236
vt 0.328550 0.424768
vt 0.332462 0.424495
vt 0.333368 0.425214
vt 0.328515 0.425674
vt 0.332071 0.421850
vt 0.327896 0.424768
vt 0.331967 0.422944
vt 0.331967 0.423337
vt 0.327897 0.425674
vt 0.332873 0.422986
vt 0.331453 0.421521
vt 0.330859 0.421891
vt 0.332873 0.423357
vt 0.330883 0.422591
vt 0.332873 0.424056
vt 0.327229 0.424768
vt 0.331501 0.422920
vt 0.327847 0.424768
vt 0.333368 0.424145
vt 0.331967 0.424078
vt 0.327194 0.425674
vt 0.327848 0.425674
vt 0.332462 0.424103
vt 0.332095 0.422550
vt 0.333368 0.424515
s 1
usemtl Material
f 4/5/1 5/7/2 2/2/3 1/1/4
f 1/1/4 2/2/3 12/20/5 3/3/6
f 6/9/7 7/11/8 5/8/2 4/6/1
f 8/13/9 9/14/10 7/12/8 6/10/7
f 10/15/11 11/18/12 9/14/10 8/13/9
f 3/4/6 12/19/5 11/17/12 10/16/11
f 11/17/12 12/19/5 15/24/13 13/22/14
f 9/14/10 11/18/12 13/21/14 14/23/15
f 14/23/15 13/21/14 16/26/16 18/30/17
f 13/22/14 15/24/13 17/28/18 16/27/16
f 20/34/19 14/23/15 18/30/17 19/31/20
f 22/38/21 20/33/19 19/32/20 21/35/22
f 24/40/23 22/37/21 21/36/22 23/39/24
f 15/25/13 24/40/23 23/39/24 17/29/18
f 2/2/3 5/7/2 22/37/21 24/40/23
f 12/20/5 2/2/3 24/40/23 15/25/13
f 5/8/2 7/11/8 20/33/19 22/38/21
f 7/12/8 9/14/10 14/23/15 20/34/19
f 25/41/25 26/43/26 36/66/26 27/44/27
f 28/47/28 25/42/25 27/45/27 30/50/28
f 29/49/29 28/48/28 30/51/28 31/54/30
f 27/46/31 36/65/31 33/58/31 32/55/31 31/53/31 30/52/31
f 34/61/32 29/49/29 31/54/30 32/56/32
f 35/63/33 34/62/32 32/57/32 33/59/33
f 26/43/26 35/64/33 33/60/33 36/66/26
f 3/4/34 10/16/34 8/13/34 6/10/34 4/6/34 1/1/34
