# Blender 3.3.1
# www.blender.org
mtllib drink_001.mtl
o drink_001
v 0.024094 0.000000 0.045192
v 0.039911 0.291588 0.074911
v -0.027134 0.000000 0.043495
v -0.044921 0.291588 0.072010
v -0.051160 0.000000 -0.001712
v -0.084820 0.291588 -0.002862
v -0.024014 0.000000 -0.045168
v -0.039940 0.291588 -0.074887
v 0.027104 0.000000 -0.043526
v 0.044892 0.291588 -0.072041
v 0.051186 0.000000 0.001791
v 0.084845 0.291588 0.002885
v -0.018760 0.371002 0.030032
v 0.016651 0.371002 0.031290
v -0.035453 0.371002 -0.001220
v -0.016680 0.371002 -0.031321
v 0.018731 0.371002 -0.030117
v 0.035424 0.371002 0.001189
v -0.013013 0.419969 0.020892
v 0.011561 0.419969 0.021713
v -0.024561 0.419969 -0.000836
v -0.011590 0.419969 -0.021689
v 0.012984 0.419969 -0.020868
v 0.024587 0.419969 0.000805
v 0.031373 0.182164 0.058875
v 0.066675 0.182164 0.002283
v 0.035259 0.182164 -0.056607
v -0.031348 0.182164 -0.058851
v -0.066649 0.182164 -0.002259
v -0.035288 0.182164 0.056576
v 0.034657 0.036495 0.064950
v 0.073680 0.036495 0.002502
v 0.038981 0.036495 -0.062573
v -0.034686 0.036495 -0.064981
v -0.073709 0.036495 -0.002478
v -0.039010 0.036495 0.062596
v -0.014710 0.416165 0.023573
v 0.013039 0.416165 0.024504
v -0.027736 0.416165 -0.000946
v -0.013068 0.416165 -0.024480
v 0.014681 0.416165 -0.023550
v 0.027707 0.416165 0.000915
v -0.013834 0.450064 0.022205
v 0.012327 0.450064 0.023081
v -0.026203 0.450064 -0.000891
v -0.012302 0.450064 -0.023112
v 0.013860 0.450064 -0.022236
v 0.026174 0.450064 0.000860
vn -0.5280 -0.0603 0.8471
vn 0.4693 -0.0604 0.8809
vn 0.4627 0.1764 0.8688
vn -0.5210 0.1762 0.8352
vn -0.9976 -0.0602 -0.0340
vn -0.9838 0.1761 -0.0332
vn -0.4695 -0.0603 -0.8808
vn -0.4632 0.1761 -0.8686
vn 0.5277 -0.0604 -0.8473
vn 0.5206 0.1762 -0.8354
vn -0.9168 0.3982 -0.0310
vn -0.4315 0.3983 -0.8095
vn 0.9976 -0.0604 0.0340
vn 0.9838 0.1763 0.0334
vn -0.4857 0.3979 0.7783
vn -0.5167 0.2160 0.8285
vn -0.9757 0.2167 -0.0328
vn 0.9168 0.3982 0.0309
vn 0.4311 0.3981 0.8098
vn 0.4850 0.3982 -0.7786
vn 0.5161 0.2169 -0.8286
vn 0.9758 0.2164 0.0325
vn -0.4596 0.2173 -0.8611
vn 0.4590 0.2160 0.8618
vn 0.4581 -0.2290 0.8589
vn 0.9728 -0.2291 0.0331
vn 0.5146 -0.2292 -0.8262
vn -0.4583 -0.2293 -0.8587
vn -0.9727 -0.2296 -0.0332
vn -0.5145 -0.2292 0.8263
vn 0.8510 -0.5243 0.0299
vn 0.4008 -0.5237 0.7517
vn 0.4500 -0.5245 -0.7228
vn -0.4000 -0.5246 -0.7515
vn -0.8503 -0.5255 -0.0293
vn -0.4500 -0.5247 0.7226
vn -0.0000 1.0000 -0.0000
vn 0.9984 0.0455 0.0336
vn 0.5284 0.0455 -0.8478
vn 0.9984 0.0455 0.0335
vn -0.4700 0.0458 -0.8815
vn -0.9983 0.0463 -0.0341
vn -0.9983 0.0463 -0.0340
vn -0.4695 0.0458 -0.8818
vn -0.5284 0.0471 0.8477
vn 0.4700 0.0466 0.8814
vn 0.4707 0.0466 0.8811
vn -0.5280 0.0471 0.8479
vn -0.0000 -1.0000 -0.0000
vt 0.767145 0.785205
vt 0.766266 0.785205
vt 0.046659 0.673147
vt 0.048242 0.673147
vt 0.767191 0.784602
vt 0.766242 0.784602
vt 0.766380 0.785205
vt 0.046960 0.673147
vt 0.766407 0.784602
vt 0.766567 0.785205
vt 0.047204 0.673147
vt 0.766568 0.784602
vt 0.766865 0.784352
vt 0.766663 0.785205
vt 0.047438 0.673147
vt 0.047739 0.673735
vt 0.766709 0.784602
vt 0.766889 0.784955
vt 0.766948 0.785205
vt 0.766751 0.784352
vt 0.047463 0.673735
vt 0.047764 0.673147
vt 0.766724 0.784955
vt 0.766904 0.784602
vt 0.767049 0.785205
vt 0.048008 0.673147
vt 0.767051 0.784602
vt 0.879181 0.422593
vt 0.766504 0.784447
vt 0.766356 0.784447
vt 0.878984 0.422593
vt 0.767106 0.784447
vt 0.766287 0.784447
vt 0.878892 0.422593
vt 0.879983 0.422593
vt 0.766565 0.784447
vt 0.879262 0.422593
vt 0.766624 0.784447
vt 0.766844 0.785110
vt 0.879340 0.422593
vt 0.879634 0.423477
vt 0.766775 0.785110
vt 0.766986 0.784447
vt 0.879824 0.422593
vt 0.879542 0.423477
vt 0.767047 0.784447
vt 0.879905 0.422593
vt 0.879205 0.422466
vt 0.878969 0.422466
vt 0.878905 0.422466
vt 0.879958 0.422466
vt 0.879261 0.422466
vt 0.879315 0.422466
vt 0.879621 0.423604
vt 0.879848 0.422466
vt 0.879557 0.423604
vt 0.879904 0.422466
vt 0.046687 0.673503
vt 0.048190 0.673503
vt 0.767160 0.784816
vt 0.766258 0.784816
vt 0.048006 0.673503
vt 0.767049 0.784816
vt 0.047494 0.673379
vt 0.047814 0.673503
vt 0.766934 0.784816
vt 0.766743 0.784741
vt 0.047386 0.673503
vt 0.047711 0.673379
vt 0.766873 0.784741
vt 0.766678 0.784816
vt 0.047202 0.673503
vt 0.766567 0.784816
vt 0.046904 0.673503
vt 0.047010 0.673503
vt 0.766388 0.784816
vt 0.767189 0.785124
vt 0.766243 0.785124
vt 0.767050 0.785124
vt 0.766906 0.785124
vt 0.766725 0.784433
vt 0.766888 0.784433
vt 0.766707 0.785124
vt 0.766568 0.785124
vt 0.766406 0.785124
vt 0.047080 0.672527
vt 0.045868 0.672541
vt 0.046989 0.672527
vt 0.045881 0.672557
vt 0.045868 0.672461
vt 0.045868 0.672384
vt 0.047195 0.672416
vt 0.045881 0.672713
vt 0.047104 0.672416
vt 0.045881 0.672633
vt 0.046709 0.672583
vt 0.047077 0.672416
vt 0.045758 0.672536
vt 0.046712 0.672668
vt 0.046992 0.672416
vt 0.045771 0.672561
vt 0.046634 0.672543
vt 0.045758 0.672461
vt 0.046561 0.672588
vt 0.045758 0.672389
vt 0.047192 0.672527
vt 0.046564 0.672673
vt 0.045771 0.672709
vt 0.047107 0.672527
vt 0.046639 0.672713
vt 0.045771 0.672634
s 1
usemtl Material
f 30/74/1 25/58/2 2/3/3 4/8/4
f 29/72/5 30/75/1 4/8/4 6/11/6
f 28/68/7 29/72/5 6/11/6 8/15/8
f 27/64/9 28/69/7 8/16/8 10/21/10
f 8/17/8 6/12/6 15/36/11 16/38/12
f 26/62/13 27/65/9 10/22/10 12/26/14
f 25/59/2 26/62/13 12/26/14 2/4/3
f 15/37/11 13/28/15 19/48/16 21/52/17
f 2/5/3 12/27/14 18/46/18 14/32/19
f 10/23/10 8/18/8 16/39/12 17/42/20
f 6/12/6 4/9/4 13/29/15 15/36/11
f 12/27/14 10/24/10 17/43/20 18/46/18
f 4/9/4 2/6/3 14/33/19 13/30/15
f 18/47/18 17/44/20 23/55/21 24/57/22
f 16/40/12 15/37/11 21/52/17 22/53/23
f 13/31/15 14/34/19 20/50/24 19/49/16
f 14/35/19 18/47/18 24/57/22 20/51/24
f 17/45/20 16/41/12 22/54/23 23/56/21
f 31/77/25 32/79/26 26/63/13 25/60/2
f 32/79/26 33/80/27 27/66/9 26/63/13
f 33/81/27 34/82/28 28/70/7 27/67/9
f 34/83/28 35/84/29 29/73/5 28/71/7
f 35/84/29 36/85/30 30/76/1 29/73/5
f 36/85/30 31/78/25 25/61/2 30/76/1
f 11/25/31 32/79/26 31/77/25 1/1/32
f 9/19/33 33/80/27 32/79/26 11/25/31
f 7/13/34 34/82/28 33/81/27 9/20/33
f 5/10/35 35/84/29 34/83/28 7/14/34
f 3/7/36 36/85/30 35/84/29 5/10/35
f 1/2/32 31/78/25 36/85/30 3/7/36
f 43/96/37 44/99/37 48/110/37 47/107/37 46/104/37 45/102/37
f 42/95/38 41/93/39 47/108/39 48/111/40
f 40/91/41 39/90/42 45/103/43 46/105/44
f 37/86/45 38/88/46 44/100/47 43/97/48
f 38/89/46 42/95/38 48/111/40 44/101/47
f 41/94/39 40/92/41 46/106/44 47/109/39
f 39/90/42 37/87/45 43/98/48 45/103/43
f 1/2/49 3/7/49 5/10/49 7/14/49 9/20/49 11/25/49
