# Blender 3.3.1
# www.blender.org
mtllib ketchup_001.mtl
o ketchup_001
v 0.004221 0.222446 -0.002596
v 0.000094 0.222446 -0.004979
v -0.004123 0.222446 -0.002362
v -0.004124 0.222446 0.002328
v 0.000003 0.222446 0.004711
v 0.004064 0.222446 0.002365
v 0.002899 0.260945 -0.001555
v -0.000146 0.260945 -0.003313
v -0.002973 0.260945 -0.001698
v -0.002958 0.260945 0.001558
v 0.000086 0.260945 0.003316
v 0.002981 0.260945 0.001740
v 0.000004 0.273164 0.000021
v 0.025828 0.186152 -0.015020
v 0.000050 0.186152 -0.029903
v -0.025841 0.186152 -0.014901
v -0.025731 0.186152 0.014752
v 0.000047 0.186152 0.029635
v 0.025782 0.186152 0.014904
v 0.025828 0.210801 -0.015020
v 0.000050 0.210801 -0.029903
v -0.025841 0.210801 -0.014901
v -0.025731 0.210801 0.014752
v 0.000047 0.210801 0.029635
v 0.025782 0.210801 0.014904
v 0.000004 0.228042 0.000021
v 0.035814 -0.000000 -0.020441
v -0.000113 0.000000 -0.041183
v -0.035787 0.000000 -0.020643
v -0.035894 0.000000 0.020792
v 0.000033 -0.000000 0.041534
v 0.035795 -0.000000 0.020685
v 0.035814 0.191667 -0.020441
v -0.000113 0.191667 -0.041183
v -0.035787 0.191667 -0.020643
v -0.035894 0.191667 0.020792
v 0.000033 0.191667 0.041534
v 0.035795 0.191667 0.020685
v 0.000004 0.215518 0.000021
vn 0.8665 0.0415 -0.4975
vn -0.0065 0.0421 -0.9991
vn -0.0062 0.1488 -0.9888
vn 0.8560 0.1474 -0.4955
vn -0.8701 0.0357 -0.4915
vn -0.8589 0.1484 -0.4901
vn -0.8647 0.0361 0.5010
vn -0.8571 0.1455 0.4942
vn -0.0057 0.0355 0.9994
vn -0.0069 0.1441 0.9895
vn 0.8607 0.0349 0.5079
vn 0.8540 0.1474 0.4990
vn 0.0012 1.0000 0.0007
vn 0.8664 -0.0000 -0.4993
vn -0.0008 -0.0000 -1.0000
vn -0.8673 -0.0000 -0.4977
vn -0.8651 -0.0000 0.5016
vn -0.0019 -0.0000 1.0000
vn 0.8647 -0.0000 0.5023
vn 0.4327 0.8662 -0.2499
vn -0.0002 0.8665 -0.4992
vn -0.0006 1.0000 0.0023
vn -0.4337 0.8659 -0.2492
vn -0.4351 0.8645 0.2517
vn -0.0006 0.8642 0.5031
vn 0.4335 0.8653 0.2515
vn 0.8661 -0.0000 -0.4998
vn 0.0006 -0.0000 -1.0000
vn -0.8651 -0.0000 -0.5016
vn -0.8667 -0.0000 0.4989
vn 0.0021 -0.0000 1.0000
vn 0.8670 -0.0000 0.4984
vn 0.4338 0.8657 -0.2498
vn -0.0000 0.8655 -0.5010
vn 0.0006 1.0000 -0.0015
vn -0.4325 0.8661 -0.2506
vn -0.4319 0.8669 0.2489
vn 0.0009 0.8671 0.4982
vn 0.4332 0.8661 0.2493
vn -0.0000 -1.0000 -0.0000
vt 0.065564 0.498886
vt 0.064361 0.498886
vt 0.065364 0.498886
vt 0.065163 0.498886
vt 0.064963 0.498886
vt 0.064762 0.498886
vt 0.064562 0.498886
vt 0.065564 0.497077
vt 0.064361 0.497077
vt 0.067368 0.500389
vt 0.062557 0.500389
vt 0.065364 0.497077
vt 0.062557 0.500389
vt 0.067368 0.500389
vt 0.065163 0.497077
vt 0.062557 0.500389
vt 0.067368 0.500389
vt 0.064963 0.497077
vt 0.062557 0.500389
vt 0.067368 0.500389
vt 0.064762 0.497077
vt 0.062557 0.500389
vt 0.067368 0.500389
vt 0.064562 0.497077
vt 0.062557 0.500389
vt 0.067368 0.500389
vt 0.064963 0.495578
vt 0.065564 0.498886
vt 0.064361 0.498886
vt 0.065364 0.498886
vt 0.065163 0.498886
vt 0.064963 0.498886
vt 0.064762 0.498886
vt 0.064562 0.498886
vt 0.065564 0.497077
vt 0.064361 0.497077
vt 0.067368 0.500389
vt 0.062557 0.500389
vt 0.065364 0.497077
vt 0.062557 0.500389
vt 0.067368 0.500389
vt 0.065163 0.497077
vt 0.062557 0.500389
vt 0.067368 0.500389
vt 0.064963 0.497077
vt 0.062557 0.500389
vt 0.067368 0.500389
vt 0.064762 0.497077
vt 0.062557 0.500389
vt 0.067368 0.500389
vt 0.064562 0.497077
vt 0.062557 0.500389
vt 0.067368 0.500389
vt 0.064963 0.495578
vt 0.065564 0.498886
vt 0.064361 0.498886
vt 0.065364 0.498886
vt 0.065163 0.498886
vt 0.064963 0.498886
vt 0.064762 0.498886
vt 0.064562 0.498886
vt 0.065564 0.497077
vt 0.064361 0.497077
vt 0.067368 0.500389
vt 0.062557 0.500389
vt 0.065364 0.497077
vt 0.062557 0.500389
vt 0.067368 0.500389
vt 0.065163 0.497077
vt 0.062557 0.500389
vt 0.067368 0.500389
vt 0.064963 0.497077
vt 0.062557 0.500389
vt 0.067368 0.500389
vt 0.064762 0.497077
vt 0.062557 0.500389
vt 0.067368 0.500389
vt 0.064562 0.497077
vt 0.062557 0.500389
vt 0.067368 0.500389
vt 0.064963 0.495578
s 1
usemtl Material
f 1/1/1 2/3/2 8/12/3 7/8/4
f 2/3/2 3/4/5 9/15/6 8/12/3
f 3/4/5 4/5/7 10/18/8 9/15/6
f 4/5/7 5/6/9 11/21/10 10/18/8
f 5/6/9 6/7/11 12/24/12 11/21/10
f 6/7/11 1/2/1 7/9/4 12/24/12
f 7/10/4 8/13/3 13/27/13
f 8/14/3 9/16/6 13/27/13
f 9/17/6 10/19/8 13/27/13
f 10/20/8 11/22/10 13/27/13
f 11/23/10 12/25/12 13/27/13
f 12/26/12 7/11/4 13/27/13
f 14/28/14 15/30/15 21/39/15 20/35/14
f 15/30/15 16/31/16 22/42/16 21/39/15
f 16/31/16 17/32/17 23/45/17 22/42/16
f 17/32/17 18/33/18 24/48/18 23/45/17
f 18/33/18 19/34/19 25/51/19 24/48/18
f 19/34/19 14/29/14 20/36/14 25/51/19
f 20/37/20 21/40/21 26/54/22
f 21/41/21 22/43/23 26/54/22
f 22/44/23 23/46/24 26/54/22
f 23/47/24 24/49/25 26/54/22
f 24/50/25 25/52/26 26/54/22
f 25/53/26 20/38/20 26/54/22
f 27/55/27 28/57/28 34/66/28 33/62/27
f 28/57/28 29/58/29 35/69/29 34/66/28
f 29/58/29 30/59/30 36/72/30 35/69/29
f 30/59/30 31/60/31 37/75/31 36/72/30
f 31/60/31 32/61/32 38/78/32 37/75/31
f 32/61/32 27/56/27 33/63/27 38/78/32
f 33/64/33 34/67/34 39/81/35
f 34/68/34 35/70/36 39/81/35
f 35/71/36 36/73/37 39/81/35
f 36/74/37 37/76/38 39/81/35
f 37/77/38 38/79/39 39/81/35
f 38/80/39 33/65/33 39/81/35
f 27/56/40 32/61/40 31/60/40 30/59/40 29/58/40 28/57/40
