# Blender 3.3.1
# www.blender.org
mtllib kitchen_chair_001.mtl
o kitchen_chair_001
v 0.256361 0.555996 -0.125406
v 0.157938 0.818374 -0.261838
v 0.251076 0.504996 -0.023640
v 0.236305 0.475757 0.127011
v 0.222457 0.455667 0.182442
v 0.173046 0.426416 0.208226
v 0.234950 0.637649 -0.189736
v 0.189772 0.512843 -0.148740
v 0.192064 0.480596 -0.025671
v 0.179699 0.597271 -0.208826
v 0.177745 0.453586 0.178732
v 0.187086 0.793153 -0.244964
v 0.154901 0.788584 -0.249487
v -0.256371 0.555996 -0.125406
v -0.157946 0.818374 -0.261838
v -0.251085 0.504996 -0.023639
v -0.236310 0.475757 0.127011
v -0.222462 0.455667 0.182442
v -0.173050 0.426416 0.208226
v -0.234957 0.637649 -0.189736
v -0.189781 0.512843 -0.148740
v -0.192074 0.480596 -0.025671
v -0.179703 0.597270 -0.208826
v -0.177750 0.453586 0.178732
v -0.187093 0.793153 -0.244965
v -0.154913 0.788583 -0.249487
v -0.000006 0.474467 -0.175560
v -0.000006 0.405014 0.218012
v -0.000006 0.789458 -0.272905
v -0.000006 0.559880 -0.239112
v -0.000006 0.458533 -0.029217
v -0.000006 0.444826 0.184716
v -0.000006 0.827320 -0.291021
v 0.271740 0.537798 -0.140450
v 0.162103 0.807434 -0.286180
v 0.262587 0.481008 -0.029626
v 0.243910 0.449462 0.122495
v 0.224608 0.430644 0.170517
v 0.174276 0.407423 0.189005
v 0.247125 0.629371 -0.212990
v 0.200792 0.490668 -0.164058
v 0.199569 0.437003 -0.030455
v 0.189196 0.587265 -0.232969
v 0.180719 0.428237 0.166221
v 0.195072 0.786226 -0.270145
v 0.160651 0.780810 -0.274996
v -0.271744 0.537798 -0.140450
v -0.162111 0.807434 -0.286180
v -0.262594 0.481008 -0.029626
v -0.243920 0.449462 0.122495
v -0.224615 0.430644 0.170517
v -0.174283 0.407423 0.189005
v -0.247133 0.629371 -0.212990
v -0.200802 0.490668 -0.164058
v -0.199574 0.437003 -0.030455
v -0.189205 0.587265 -0.232969
v -0.180731 0.428237 0.166221
v -0.195082 0.786226 -0.270145
v -0.160658 0.780810 -0.274996
v -0.000006 0.449353 -0.191598
v -0.000006 0.386516 0.198331
v -0.000006 0.781273 -0.299246
v -0.000006 0.548645 -0.265114
v -0.000006 0.419005 0.171688
v -0.000006 0.815983 -0.315815
v -0.272938 0.000000 0.199367
v -0.117027 0.435515 0.086059
v -0.257076 0.000000 0.184877
v -0.117027 0.414029 0.086059
v -0.258451 0.000000 0.215233
v -0.131517 0.414029 0.070195
v -0.242584 0.000000 0.200742
v -0.131517 0.435515 0.070195
v -0.203180 0.435515 0.135650
v -0.241766 0.390285 0.170891
v -0.228817 0.422267 0.159066
v -0.223192 0.391890 0.153930
v -0.208531 0.405764 0.140538
v -0.208702 0.391890 0.169794
v -0.194044 0.405764 0.156402
v -0.188693 0.435515 0.151514
v -0.227274 0.390285 0.186755
v -0.214325 0.422267 0.174930
v -0.272938 -0.000000 -0.199367
v -0.117028 0.450205 -0.086059
v -0.257076 -0.000000 -0.184877
v -0.117028 0.428719 -0.086059
v -0.258451 -0.000000 -0.215232
v -0.131517 0.428719 -0.070195
v -0.242584 -0.000000 -0.200741
v -0.131517 0.450205 -0.070195
v -0.203180 0.450205 -0.135650
v -0.241766 0.404975 -0.170890
v -0.228817 0.436958 -0.159065
v -0.223192 0.406580 -0.153930
v -0.208531 0.420454 -0.140538
v -0.208702 0.406580 -0.169794
v -0.194044 0.420454 -0.156402
v -0.188693 0.450205 -0.151514
v -0.227274 0.404975 -0.186755
v -0.214325 0.436958 -0.174930
v 0.272934 0.000000 0.199367
v 0.117018 0.435515 0.086059
v 0.257067 0.000000 0.184877
v 0.117018 0.414029 0.086059
v 0.258441 0.000000 0.215233
v 0.131508 0.414029 0.070195
v 0.242575 0.000000 0.200742
v 0.131508 0.435515 0.070195
v 0.203170 0.435515 0.135650
v 0.241754 0.390285 0.170891
v 0.228805 0.422267 0.159066
v 0.223182 0.391890 0.153930
v 0.208522 0.405764 0.140538
v 0.208693 0.391890 0.169794
v 0.194030 0.405764 0.156402
v 0.188680 0.435515 0.151514
v 0.227262 0.390285 0.186755
v 0.214315 0.422267 0.174930
v 0.272933 -0.000000 -0.199367
v 0.117018 0.450205 -0.086059
v 0.257067 -0.000000 -0.184877
v 0.117018 0.428719 -0.086059
v 0.258441 -0.000000 -0.215232
v 0.131508 0.428719 -0.070195
v 0.242575 -0.000000 -0.200741
v 0.131508 0.450205 -0.070195
v 0.203170 0.450205 -0.135650
v 0.241754 0.404975 -0.170890
v 0.228805 0.436958 -0.159066
v 0.223182 0.406580 -0.153930
v 0.208522 0.420454 -0.140538
v 0.208693 0.406580 -0.169794
v 0.194030 0.420454 -0.156402
v 0.188680 0.450205 -0.151514
v 0.227262 0.404975 -0.186755
v 0.214315 0.436958 -0.174930
vn -0.0000 0.2020 0.9794
vn -0.0000 0.4158 0.9094
vn 0.1405 0.4109 0.9008
vn 0.1984 0.1950 0.9605
vn -0.0000 0.9763 0.2163
vn -0.0000 0.9918 0.1279
vn 0.1855 0.9718 0.1454
vn 0.1008 0.9752 0.1968
vn 0.2957 0.8248 0.4820
vn -0.0000 0.8718 0.4898
vn -0.3135 0.9408 0.1286
vn -0.4126 0.8863 0.2104
vn -0.1855 0.9718 0.1454
vn -0.1008 0.9752 0.1968
vn -0.5446 0.6544 0.5245
vn -0.2957 0.8248 0.4820
vn -0.4354 0.2923 0.8514
vn -0.2607 0.3173 0.9118
vn 0.3388 0.1888 0.9217
vn 0.4354 0.2923 0.8514
vn 0.2606 0.3173 0.9118
vn -0.0000 0.6849 0.7287
vn -0.0291 0.6874 0.7257
vn -0.0758 0.9124 0.4022
vn -0.1984 0.1951 0.9605
vn -0.3388 0.1888 0.9217
vn -0.1406 0.4109 0.9008
vn 0.0291 0.6874 0.7257
vn 0.4126 0.8863 0.2104
vn 0.3135 0.9408 0.1286
vn 0.5446 0.6544 0.5246
vn -0.0000 0.3334 0.9428
vn 0.0758 0.9124 0.4022
vn -0.0000 -0.1982 -0.9802
vn -0.1998 -0.1912 -0.9610
vn -0.1415 -0.4099 -0.9011
vn -0.0000 -0.4150 -0.9098
vn -0.3590 -0.7034 -0.6135
vn -0.0000 -0.8578 -0.5140
vn -0.1655 -0.9787 -0.1217
vn 0.4361 -0.8977 -0.0623
vn 0.1366 -0.9730 -0.1862
vn 0.2016 -0.9692 -0.1415
vn 0.5223 -0.8278 -0.2048
vn 0.3590 -0.7034 -0.6135
vn 0.5779 -0.6193 -0.5315
vn 0.2651 -0.3307 -0.9057
vn 0.4402 -0.3008 -0.8460
vn -0.3387 -0.1868 -0.9222
vn -0.2651 -0.3307 -0.9057
vn -0.4402 -0.3008 -0.8460
vn 0.0309 -0.6848 -0.7281
vn -0.0000 -0.6817 -0.7316
vn -0.0184 -0.9564 -0.2913
vn 0.0881 -0.9184 -0.3858
vn 0.1998 -0.1912 -0.9610
vn 0.1415 -0.4099 -0.9011
vn 0.3387 -0.1868 -0.9221
vn -0.0746 -0.9858 -0.1505
vn -0.0309 -0.6848 -0.7281
vn -0.5223 -0.8278 -0.2048
vn -0.4361 -0.8977 -0.0623
vn -0.5778 -0.6194 -0.5315
vn -0.0000 -0.3473 -0.9378
vn -0.0881 -0.9184 -0.3858
vn -0.8072 -0.2025 0.5544
vn -0.9428 0.2582 0.2109
vn -0.9434 0.2526 0.2148
vn -0.7980 -0.2148 0.5631
vn 0.8659 0.4645 0.1858
vn 0.8725 0.4080 0.2688
vn 0.8735 0.4063 0.2680
vn 0.8662 0.4637 0.1864
vn 0.8550 0.4358 0.2811
vn 0.9063 0.3645 0.2140
vn 0.9081 0.3617 0.2110
vn 0.8555 0.4352 0.2807
vn 0.8072 -0.2026 0.5544
vn 0.2394 -0.6620 0.7102
vn 0.2385 -0.6625 0.7101
vn 0.7980 -0.2149 0.5630
vn 0.9428 0.2582 0.2109
vn 0.9434 0.2525 0.2148
vn 0.2355 0.9052 -0.3538
vn 0.2350 0.9052 -0.3541
vn -0.9063 0.3645 0.2140
vn -0.9081 0.3617 0.2111
vn -0.8550 0.4359 0.2812
vn -0.8725 0.4080 0.2688
vn -0.8736 0.4063 0.2680
vn -0.8553 0.4353 0.2808
vn -0.2394 -0.6620 0.7102
vn -0.2385 -0.6625 0.7101
vn -0.0000 -0.7181 0.6960
vn -0.8659 0.4645 0.1859
vn -0.2355 0.9052 -0.3538
vn -0.2349 0.9052 -0.3540
vn -0.8662 0.4636 0.1865
vn -0.0000 0.9147 -0.4042
vn 0.7333 -0.1163 -0.6698
vn 0.7276 -0.1702 -0.6646
vn 0.1297 -0.9845 -0.1184
vn 0.1296 -0.9845 -0.1184
vn 0.0583 -0.9969 -0.0533
vn -0.6744 -0.0000 -0.7384
vn 0.6744 -0.0000 0.7384
vn -0.7341 0.1076 0.6705
vn -0.7304 0.1470 0.6670
vn -0.7303 0.1471 0.6671
vn 0.6744 -0.0000 0.7383
vn 0.6745 -0.0000 0.7383
vn -0.2632 0.9343 0.2404
vn -0.4832 0.7561 0.4414
vn 0.7337 -0.1122 0.6702
vn 0.7283 -0.1641 0.6653
vn 0.7283 -0.1640 0.6654
vn 0.1296 -0.9845 0.1184
vn 0.0583 -0.9969 0.0533
vn -0.0738 0.9950 -0.0674
vn -0.0000 1.0000 -0.0000
vn -0.0739 0.9950 -0.0674
vn -0.6744 -0.0000 0.7384
vn 0.6744 -0.0000 -0.7383
vn 0.6744 -0.0000 -0.7384
vn -0.7344 0.1037 -0.6707
vn -0.7309 0.1420 -0.6676
vn -0.4832 0.7561 -0.4414
vn -0.4832 0.7560 -0.4414
vn -0.7333 -0.1163 -0.6698
vn -0.7276 -0.1702 -0.6646
vn -0.7274 -0.1702 -0.6647
vn -0.1296 -0.9845 -0.1183
vn -0.0583 -0.9969 -0.0533
vn -0.1296 -0.9845 -0.1184
vn 0.6743 -0.0000 -0.7384
vn 0.7340 0.1076 0.6705
vn 0.7303 0.1471 0.6671
vn 0.7303 0.1470 0.6671
vn 0.2632 0.9343 0.2404
vn 0.4832 0.7561 0.4414
vn -0.7337 -0.1122 0.6702
vn -0.7283 -0.1641 0.6653
vn -0.7284 -0.1641 0.6653
vn -0.1296 -0.9845 0.1184
vn -0.0583 -0.9969 0.0533
vn 0.0739 0.9950 -0.0674
vn 0.0739 0.9950 -0.0675
vn 0.6743 -0.0000 0.7384
vn 0.7343 0.1037 -0.6708
vn 0.7308 0.1420 -0.6676
vn 0.7309 0.1420 -0.6676
vn 0.4832 0.7561 -0.4414
vn -0.0000 -1.0000 -0.0000
vt 0.496929 0.292908
vt 0.499762 0.290535
vt 0.494135 0.291711
vt 0.499601 0.292321
vt 0.494700 0.288534
vt 0.496305 0.292969
vt 0.494004 0.291212
vt 0.495400 0.293107
vt 0.493602 0.290652
vt 0.495067 0.293205
vt 0.493464 0.290382
vt 0.494921 0.293496
vt 0.493341 0.290048
vt 0.497297 0.295161
vt 0.499666 0.291111
vt 0.493942 0.292170
vt 0.497078 0.293277
vt 0.499301 0.290486
vt 0.496331 0.293306
vt 0.499272 0.291047
vt 0.495105 0.293462
vt 0.499706 0.292104
vt 0.493341 0.292850
vt 0.494590 0.288361
vt 0.499553 0.292152
vt 0.497125 0.295870
vt 0.494921 0.295821
vt 0.498198 0.291041
vt 0.494760 0.294035
vt 0.494700 0.290362
vt 0.496496 0.295870
vt 0.498066 0.291540
vt 0.495580 0.295837
vt 0.497664 0.292099
vt 0.495237 0.295775
vt 0.497527 0.292369
vt 0.495053 0.295495
vt 0.497404 0.292703
vt 0.497447 0.293163
vt 0.494826 0.295245
vt 0.498005 0.290581
vt 0.497223 0.295470
vt 0.494460 0.295870
vt 0.496477 0.295525
vt 0.494432 0.295310
vt 0.495241 0.295515
vt 0.494865 0.294253
vt 0.494590 0.290527
vt 0.497404 0.289901
vt 0.494712 0.294204
vt 0.497297 0.294357
vt 0.493526 0.295644
vt 0.498367 0.290713
vt 0.494921 0.294496
vt 0.497297 0.294160
vt 0.494032 0.293851
vt 0.498873 0.292505
vt 0.493526 0.295092
vt 0.498367 0.291264
vt 0.496417 0.294410
vt 0.495134 0.294489
vt 0.494070 0.293624
vt 0.498910 0.292732
vt 0.494877 0.289449
vt 0.499409 0.295870
vt 0.495801 0.292846
vt 0.494304 0.291715
vt 0.495563 0.290991
vt 0.494842 0.288508
vt 0.498712 0.295775
vt 0.494155 0.291156
vt 0.497793 0.295605
vt 0.493745 0.290572
vt 0.497502 0.295474
vt 0.493608 0.290311
vt 0.493481 0.290020
vt 0.497396 0.295178
vt 0.495686 0.292204
vt 0.494087 0.292230
vt 0.499544 0.295476
vt 0.495308 0.292908
vt 0.498710 0.295416
vt 0.495272 0.292272
vt 0.497545 0.295223
vt 0.495695 0.291193
vt 0.493473 0.292908
vt 0.494738 0.288313
vt 0.495527 0.291144
vt 0.499644 0.292732
vt 0.497297 0.290634
vt 0.498367 0.291037
vt 0.497060 0.292489
vt 0.494842 0.290384
vt 0.498939 0.292743
vt 0.498217 0.291596
vt 0.498004 0.292788
vt 0.497808 0.292180
vt 0.497696 0.292881
vt 0.497671 0.292441
vt 0.497544 0.292732
vt 0.497547 0.293166
vt 0.497183 0.291276
vt 0.498150 0.290522
vt 0.499717 0.293157
vt 0.496805 0.290571
vt 0.498882 0.293112
vt 0.496769 0.291208
vt 0.497701 0.293136
vt 0.497191 0.292287
vt 0.494738 0.290571
vt 0.497536 0.289843
vt 0.497023 0.292336
vt 0.495801 0.290807
vt 0.499762 0.294333
vt 0.494304 0.292673
vt 0.497400 0.294170
vt 0.496302 0.292702
vt 0.494805 0.290778
vt 0.495801 0.291442
vt 0.494304 0.292038
vt 0.497583 0.294178
vt 0.496335 0.292908
vt 0.494839 0.290571
vt 0.495022 0.289447
vt 0.774055 0.388665
vt 0.775100 0.388072
vt 0.774365 0.388091
vt 0.775074 0.388083
vt 0.774986 0.388185
vt 0.773992 0.388541
vt 0.774353 0.388116
vt 0.774379 0.388665
vt 0.774026 0.388665
vt 0.774021 0.388542
vt 0.775074 0.388621
vt 0.774958 0.388186
vt 0.774353 0.388654
vt 0.775086 0.388646
vt 0.774072 0.389302
vt 0.775204 0.388595
vt 0.774056 0.388206
vt 0.775244 0.388513
vt 0.774072 0.389257
vt 0.774055 0.388165
vt 0.775240 0.388561
vt 0.774986 0.388646
vt 0.775214 0.388529
vt 0.774021 0.388379
vt 0.774023 0.388406
vt 0.775197 0.388556
vt 0.774958 0.388646
vt 0.774493 0.388208
vt 0.773992 0.388379
vt 0.774476 0.388181
vt 0.773994 0.388406
vt 0.774483 0.388142
vt 0.774100 0.389301
vt 0.774522 0.388223
vt 0.774027 0.388206
vt 0.774519 0.388176
vt 0.774100 0.389256
vt 0.774026 0.388165
vt 0.773704 0.389851
vt 0.774085 0.388143
vt 0.773749 0.388427
vt 0.773517 0.389851
vt 0.774986 0.388164
vt 0.773677 0.389840
vt 0.774129 0.389348
vt 0.773506 0.389825
vt 0.774056 0.388143
vt 0.773532 0.389259
vt 0.774100 0.389348
vt 0.773677 0.389285
vt 0.773506 0.389270
vt 0.775015 0.388164
vt 0.773720 0.388427
vt 0.773689 0.389259
vt 0.773720 0.388553
vt 0.773808 0.389309
vt 0.774086 0.388623
vt 0.773848 0.389390
vt 0.773720 0.388596
vt 0.774085 0.388665
vt 0.773844 0.389342
vt 0.774986 0.388646
vt 0.773818 0.389375
vt 0.774100 0.389191
vt 0.774102 0.389214
vt 0.773801 0.389348
vt 0.775015 0.388646
vt 0.773647 0.389735
vt 0.774129 0.389191
vt 0.773630 0.389762
vt 0.774130 0.389215
vt 0.773637 0.389801
vt 0.773749 0.388552
vt 0.773677 0.389720
vt 0.774058 0.388623
vt 0.773673 0.389767
vt 0.773749 0.388596
vt 0.774056 0.388665
vt 0.774209 0.388665
vt 0.775073 0.388146
vt 0.774534 0.388665
vt 0.773778 0.388136
vt 0.774183 0.388654
vt 0.773963 0.388379
vt 0.774522 0.388640
vt 0.775044 0.388146
vt 0.774549 0.388091
vt 0.773991 0.388379
vt 0.774183 0.388116
vt 0.774522 0.388102
vt 0.773807 0.388136
vt 0.774195 0.388091
vt 0.774072 0.389302
vt 0.774314 0.388142
vt 0.775074 0.388605
vt 0.774353 0.388223
vt 0.774072 0.389348
vt 0.775073 0.388646
vt 0.774349 0.388176
vt 0.773778 0.388596
vt 0.774323 0.388208
vt 0.773991 0.388542
vt 0.773992 0.388514
vt 0.774306 0.388181
vt 0.773807 0.388596
vt 0.774662 0.388548
vt 0.773963 0.388542
vt 0.774646 0.388575
vt 0.773964 0.388514
vt 0.774653 0.388614
vt 0.774100 0.389302
vt 0.774692 0.388532
vt 0.775045 0.388605
vt 0.774688 0.388580
vt 0.774100 0.389348
vt 0.775044 0.388646
vt 0.773504 0.389851
vt 0.773662 0.388596
vt 0.773778 0.388596
vt 0.773476 0.388596
vt 0.773636 0.388607
vt 0.775015 0.388646
vt 0.774159 0.389189
vt 0.773465 0.388622
vt 0.773491 0.389188
vt 0.773476 0.389850
vt 0.774130 0.389190
vt 0.773636 0.389163
vt 0.775044 0.388646
vt 0.773465 0.389177
vt 0.773749 0.388596
vt 0.773647 0.389188
vt 0.773750 0.388470
vt 0.773767 0.389138
vt 0.773506 0.389371
vt 0.773807 0.389058
vt 0.773749 0.388426
vt 0.773504 0.389329
vt 0.773803 0.389105
vt 0.775015 0.388164
vt 0.773777 0.389072
vt 0.774130 0.389348
vt 0.774132 0.389324
vt 0.773760 0.389099
vt 0.775044 0.388164
vt 0.773606 0.388712
vt 0.774159 0.389347
vt 0.773589 0.388685
vt 0.774161 0.389323
vt 0.773596 0.388646
vt 0.773778 0.388471
vt 0.773636 0.388727
vt 0.773477 0.389370
vt 0.773631 0.388680
vt 0.773778 0.388426
vt 0.773476 0.389328
s 1
usemtl Material
f 29/56/1 33/62/2 15/29/3 26/50/4
f 32/61/5 31/60/6 22/44/7 24/46/8
f 21/42/9 22/44/7 31/60/6 27/51/10
f 4/8/11 3/6/12 9/19/13 11/21/14
f 3/6/12 1/1/15 8/17/16 9/19/13
f 1/2/15 7/15/17 10/20/18 8/18/16
f 25/47/19 20/40/20 23/45/21 26/50/4
f 27/51/10 31/60/6 9/19/13 8/17/16
f 11/21/14 32/61/5 28/54/22 6/12/23
f 11/21/14 5/10/24 4/8/11
f 5/10/24 11/21/14 6/12/23
f 13/25/25 12/22/26 2/4/27
f 25/47/19 26/50/4 15/29/3
f 24/46/8 19/37/28 28/54/22 32/61/5
f 16/31/29 17/33/30 24/46/8 22/44/7
f 14/26/31 16/31/29 22/44/7 21/42/9
f 20/40/20 14/27/31 21/43/9 23/45/21
f 29/57/1 30/59/32 10/20/18 13/25/25
f 12/22/26 13/25/25 10/20/18 7/15/17
f 17/33/30 18/35/33 24/46/8
f 19/37/28 24/46/8 18/35/33
f 26/50/4 23/45/21 30/58/32 29/56/1
f 21/43/9 27/52/10 30/58/32 23/45/21
f 33/63/2 29/57/1 13/25/25 2/4/27
f 32/61/5 11/21/14 9/19/13 31/60/6
f 27/53/10 8/18/16 10/20/18 30/59/32
f 62/117/34 59/112/35 48/92/36 65/122/37
f 54/104/38 60/114/39 55/106/40
f 37/72/41 44/84/42 42/82/43 36/70/44
f 36/70/44 42/82/43 41/80/45 34/65/46
f 34/66/46 41/81/45 43/83/47 40/78/48
f 58/109/49 59/112/35 56/107/50 53/102/51
f 60/114/39 41/80/45 42/82/43
f 44/84/42 39/77/52 61/116/53 64/121/54
f 44/84/42 37/72/41 38/74/55
f 38/74/55 39/77/52 44/84/42
f 46/88/56 35/68/57 45/85/58
f 58/109/49 48/92/36 59/112/35
f 57/108/59 64/121/54 61/116/53 52/101/60
f 49/94/61 55/106/40 57/108/59 50/96/62
f 47/89/63 54/104/38 55/106/40 49/94/61
f 53/102/51 56/107/50 54/105/38 47/90/63
f 62/118/34 46/88/56 43/83/47 63/120/64
f 45/85/58 40/78/48 43/83/47 46/88/56
f 50/96/62 57/108/59 51/98/65
f 52/101/60 51/98/65 57/108/59
f 59/112/35 62/117/34 63/119/64 56/107/50
f 54/105/38 56/107/50 63/119/64 60/113/39
f 65/123/37 35/68/57 46/88/56 62/118/34
f 55/106/40 60/114/39 42/82/43
f 60/115/39 63/120/64 43/83/47 41/81/45
f 18/36/66 17/34/67 50/97/68 51/99/69
f 12/23/70 7/16/71 40/79/72 45/86/73
f 1/3/74 3/7/75 36/71/76 34/67/77
f 5/11/78 6/13/79 39/76/80 38/75/81
f 7/16/71 1/3/74 34/67/77 40/79/72
f 4/9/82 5/11/78 38/75/81 37/73/83
f 2/5/84 12/24/70 45/87/73 35/69/85
f 17/34/67 16/32/86 49/95/87 50/97/68
f 14/28/88 20/41/89 53/103/90 47/91/91
f 19/38/92 18/36/66 51/99/69 52/100/93
f 28/55/94 19/39/92 52/101/93 61/116/94
f 25/48/95 15/30/96 48/93/97 58/110/98
f 16/32/86 14/28/88 47/91/91 49/95/87
f 20/41/89 25/49/95 58/111/98 53/103/90
f 33/64/99 2/5/84 35/69/85 65/124/99
f 3/7/75 4/9/82 37/73/83 36/71/76
f 6/14/79 28/55/94 61/116/94 39/77/80
f 15/30/96 33/64/99 65/124/99 48/93/97
f 68/129/100 77/146/101 79/151/101 72/136/100
f 80/155/102 78/149/103 71/134/104 69/130/104
f 66/126/105 75/142/105 77/147/105 68/128/105
f 81/156/106 80/154/106 69/131/106 67/127/106
f 72/137/106 79/152/106 82/158/106 70/132/106
f 70/133/107 82/159/108 75/141/109 66/125/107
f 80/154/110 81/156/111 83/160/110
f 80/154/110 83/160/110 82/158/106 79/152/106
f 81/157/112 74/139/112 76/143/113 83/161/113
f 83/162/113 76/144/113 75/141/109 82/159/108
f 77/147/105 75/142/105 76/145/105 78/150/105
f 78/150/105 76/145/105 74/140/105
f 79/153/101 77/148/101 78/149/103 80/155/102
f 78/150/105 74/140/105 73/138/105 71/135/105
f 86/167/114 90/176/114 97/191/115 95/186/116
f 98/195/117 87/169/118 89/173/118 96/189/117
f 92/179/119 91/177/120 85/165/120 99/197/121
f 84/163/122 86/168/122 95/187/122 93/182/122
f 99/196/123 85/166/124 87/170/124 98/194/123
f 90/175/124 88/172/124 100/198/124 97/192/124
f 88/171/125 84/164/125 93/181/126 100/199/126
f 98/194/123 101/200/123 99/196/123
f 98/194/123 97/192/124 100/198/124 101/200/123
f 99/197/121 101/201/127 94/183/128 92/179/119
f 101/202/127 100/199/126 93/181/126 94/184/128
f 95/187/122 96/190/122 94/185/122 93/182/122
f 96/190/122 92/180/122 94/185/122
f 97/193/115 98/195/117 96/189/117 95/188/116
f 96/190/122 89/174/122 91/178/122 92/180/122
f 104/206/129 108/215/129 115/229/130 113/224/131
f 116/233/132 105/208/133 107/212/133 114/227/134
f 102/203/135 104/207/135 113/225/124 111/220/124
f 117/234/122 103/205/122 105/209/122 116/232/122
f 108/214/122 106/211/122 118/236/122 115/230/122
f 106/210/136 102/204/136 111/219/137 118/237/138
f 116/232/122 119/238/122 117/234/122
f 116/232/122 115/230/122 118/236/122 119/238/122
f 117/235/139 119/239/140 112/221/140 110/217/139
f 119/240/140 118/237/138 111/219/137 112/222/140
f 113/225/124 114/228/124 112/223/124 111/220/124
f 114/228/124 110/218/123 112/223/124
f 115/231/130 116/233/132 114/227/134 113/226/131
f 114/228/124 107/213/124 109/216/124 110/218/124
f 122/246/141 131/264/142 133/269/143 126/253/141
f 134/273/144 132/267/144 125/251/145 123/247/145
f 128/257/146 135/275/147 121/243/120 127/255/120
f 120/242/148 129/260/106 131/265/106 122/245/148
f 135/274/105 134/272/105 123/248/105 121/244/105
f 126/254/105 133/270/105 136/276/105 124/249/105
f 124/250/149 136/277/150 129/259/151 120/241/149
f 134/272/105 135/274/105 137/278/105
f 134/272/105 137/278/105 136/276/105 133/270/105
f 135/275/147 128/257/146 130/261/152 137/279/152
f 137/280/152 130/262/152 129/259/151 136/277/150
f 131/265/106 129/260/106 130/263/106 132/268/106
f 132/268/106 130/263/106 128/258/106
f 133/271/143 131/266/142 132/267/144 134/273/144
f 132/268/106 128/258/106 127/256/106 125/252/106
f 55/106/40 42/82/43 57/108/59
f 57/108/59 42/82/43 64/121/54
f 42/82/43 44/84/42 64/121/54
f 104/207/153 102/204/153 106/211/153 108/215/153
f 68/129/153 72/137/153 70/133/153 66/126/153
f 88/172/153 90/176/153 86/168/153 84/164/153
f 124/250/153 120/242/153 122/246/153 126/254/153
