# Blender 3.3.1
# www.blender.org
mtllib lamp_001.mtl
o lamp_001
v 0.004201 0.330853 0.004203
v 0.005939 0.330853 0.000001
v 0.004201 0.330853 -0.004200
v -0.000001 0.330853 -0.005941
v -0.004202 0.330853 -0.004200
v -0.005943 0.330853 0.000001
v -0.004202 0.330853 0.004203
v -0.000001 0.330853 0.005944
v -0.000001 0.410509 0.000001
v 0.024218 0.459712 0.000001
v 0.017123 0.459712 -0.017124
v -0.000001 0.459712 -0.024218
v -0.017127 0.459712 -0.017124
v -0.024219 0.459712 0.000001
v -0.017127 0.459712 0.017126
v -0.000001 0.459712 0.024220
v 0.017123 0.459712 0.017126
v 0.021472 0.469690 0.000001
v 0.015183 0.469690 -0.015183
v -0.000001 0.469690 -0.021473
v -0.015186 0.469690 -0.015183
v -0.021475 0.469690 0.000001
v -0.015186 0.469690 0.015185
v -0.000001 0.469690 0.021476
v 0.015183 0.469690 0.015185
v 0.012639 0.479629 0.000001
v 0.008935 0.479629 -0.008936
v -0.000001 0.479629 -0.012638
v -0.008939 0.479629 -0.008936
v -0.012640 0.479629 0.000001
v -0.008939 0.479629 0.008938
v -0.000001 0.479629 0.012640
v 0.008935 0.479629 0.008938
v 0.004287 0.428855 0.004289
v 0.006064 0.428855 0.000001
v 0.004287 0.428855 -0.004287
v -0.000001 0.428855 -0.006063
v -0.004290 0.428855 -0.004287
v -0.006065 0.428855 0.000001
v -0.004290 0.428855 0.004289
v -0.000001 0.428855 0.006066
v 0.055310 0.000000 0.055314
v 0.078222 0.000000 0.000001
v 0.055310 -0.000000 -0.055311
v -0.000000 -0.000000 -0.078221
v -0.055313 -0.000000 -0.055311
v -0.078223 0.000000 0.000001
v -0.055313 0.000000 0.055314
v -0.000000 0.000000 0.078224
v -0.000001 0.313745 0.000001
v 0.025417 0.054701 0.025419
v 0.035944 0.054701 0.000001
v 0.025417 0.054701 -0.025416
v -0.000000 0.054701 -0.035945
v -0.025418 0.054701 -0.025416
v -0.035948 0.054701 0.000001
v -0.025418 0.054701 0.025419
v -0.000000 0.054701 0.035947
v 0.029458 0.081151 0.029460
v 0.041660 0.081151 0.000001
v 0.029458 0.081151 -0.029458
v -0.000000 0.081151 -0.041661
v -0.029461 0.081151 -0.029458
v -0.041663 0.081151 0.000001
v -0.029461 0.081151 0.029460
v -0.000000 0.081151 0.041664
v 0.072709 0.178180 0.072711
v 0.102827 0.178180 0.000001
v 0.072709 0.178180 -0.072709
v -0.000001 0.178180 -0.102826
v -0.072710 0.178180 -0.072709
v -0.102830 0.178180 0.000001
v -0.072710 0.178180 0.072711
v -0.000001 0.178180 0.102828
v 0.076508 0.227954 0.076511
v 0.108200 0.227954 0.000001
v 0.076508 0.227954 -0.076509
v -0.000001 0.227954 -0.108199
v -0.076512 0.227954 -0.076509
v -0.108201 0.227954 0.000001
v -0.076512 0.227954 0.076511
v -0.000001 0.227954 0.108202
v 0.064443 0.255438 0.064447
v 0.091137 0.255438 0.000001
v 0.064443 0.255438 -0.064445
v -0.000001 0.255438 -0.091138
v -0.064446 0.255438 -0.064445
v -0.091141 0.255438 0.000001
v -0.064446 0.255438 0.064447
v -0.000001 0.255438 0.091140
v 0.074167 0.353727 0.128463
v 0.128461 0.353727 0.074169
v 0.148334 0.353727 0.000001
v 0.128461 0.353727 -0.074166
v 0.074167 0.353727 -0.128461
v -0.000001 0.353727 -0.148334
v -0.074168 0.353727 -0.128461
v -0.128465 0.353727 -0.074166
v -0.148338 0.353727 0.000001
v -0.128465 0.353727 0.074169
v -0.074168 0.353727 0.128463
v -0.000001 0.353727 0.148336
v 0.057514 0.557626 0.099618
v 0.099616 0.557626 0.057516
v 0.115026 0.557626 0.000001
v 0.099616 0.557626 -0.057514
v 0.057514 0.557626 -0.099616
v -0.000001 0.557626 -0.115027
v -0.057515 0.557626 -0.099616
v -0.099617 0.557626 -0.057514
v -0.115030 0.557626 0.000001
v -0.099617 0.557626 0.057516
v -0.057515 0.557626 0.099618
v -0.000001 0.557626 0.115029
v 0.075478 0.353727 0.130734
v 0.130732 0.353727 0.075480
v 0.150956 0.353727 0.000001
v 0.130732 0.353727 -0.075477
v 0.075478 0.353727 -0.130731
v -0.000001 0.353727 -0.150956
v -0.075479 0.353727 -0.130731
v -0.130733 0.353727 -0.075477
v -0.150958 0.353727 0.000001
v -0.130733 0.353727 0.075480
v -0.075479 0.353727 0.130734
v -0.000001 0.353727 0.150958
v 0.058530 0.557626 0.101378
v 0.101376 0.557626 0.058531
v 0.117060 0.557626 0.000001
v 0.101376 0.557626 -0.058529
v 0.058530 0.557626 -0.101376
v -0.000001 0.557626 -0.117059
v -0.058531 0.557626 -0.101376
v -0.101380 0.557626 -0.058529
v -0.117061 0.557626 0.000001
v -0.101380 0.557626 0.058531
v -0.058531 0.557626 0.101378
v -0.000001 0.557626 0.117062
v 0.036364 0.246462 0.036367
v 0.051428 0.246462 0.000001
v 0.036364 0.246462 -0.036365
v -0.000001 0.246462 -0.051428
v -0.036368 0.246462 -0.036365
v -0.051431 0.246462 0.000001
v -0.036368 0.246462 0.036367
v -0.000001 0.246462 0.051431
v 0.021542 0.339694 0.021544
v 0.030466 0.339694 0.000001
v 0.021542 0.339694 -0.021542
v -0.000001 0.339694 -0.030464
v -0.021544 0.339694 -0.021542
v -0.030467 0.339694 0.000001
v -0.021544 0.339694 0.021544
v -0.000001 0.339694 0.030466
v -0.147830 0.355641 0.002616
v 0.147827 0.355641 0.002616
v -0.147830 0.362152 0.002616
v 0.147827 0.362152 0.002616
v -0.147830 0.362152 -0.003893
v 0.147827 0.362152 -0.003893
v -0.147830 0.355641 -0.003893
v 0.147827 0.355641 -0.003893
v -0.003257 0.355641 -0.148466
v -0.003257 0.355641 0.147189
v -0.003257 0.362152 -0.148466
v -0.003257 0.362152 0.147189
v 0.003254 0.362152 -0.148466
v 0.003254 0.362152 0.147189
v 0.003254 0.355641 -0.148466
v 0.003254 0.355641 0.147189
vn 0.4874 0.8732 -0.0000
vn 0.3446 0.8732 -0.3446
vn -0.0000 0.8732 -0.4874
vn -0.3446 0.8732 -0.3446
vn -0.4873 0.8732 -0.0000
vn -0.3446 0.8732 0.3446
vn -0.0000 0.8732 0.4874
vn 0.3446 0.8732 0.3446
vn -0.0000 -1.0000 -0.0000
vn 0.7044 -0.0871 -0.7044
vn 0.9962 -0.0871 -0.0000
vn -0.0000 -0.0871 -0.9962
vn -0.7044 -0.0871 -0.7044
vn -0.9962 -0.0871 -0.0000
vn -0.7044 -0.0871 0.7044
vn -0.0000 -0.0871 0.9962
vn 0.7044 -0.0871 0.7044
vn 0.6295 0.4554 -0.6295
vn 0.8903 0.4554 -0.0000
vn -0.0000 0.4554 -0.8903
vn -0.6296 0.4554 -0.6295
vn -0.8903 0.4554 -0.0000
vn -0.6296 0.4554 0.6295
vn -0.0000 0.4554 0.8903
vn 0.6295 0.4554 0.6295
vn 0.7072 -0.0012 0.7070
vn 1.0000 -0.0013 -0.0000
vn 0.7072 -0.0012 -0.7070
vn 0.0001 -0.0012 -1.0000
vn -0.7071 -0.0013 -0.7071
vn -1.0000 -0.0013 -0.0000
vn -0.7071 -0.0013 0.7071
vn 0.0001 -0.0012 1.0000
vn 0.5210 0.6761 0.5210
vn 0.7368 0.6761 -0.0000
vn -0.0000 1.0000 -0.0000
vn 0.5210 0.6761 -0.5210
vn -0.0000 0.6761 -0.7368
vn -0.5210 0.6761 -0.5210
vn -0.7368 0.6761 -0.0000
vn -0.5210 0.6761 0.5210
vn -0.0000 0.6761 0.7368
vn 0.5595 0.6115 0.5595
vn 0.7912 0.6115 -0.0000
vn 0.9691 0.2467 -0.0000
vn 0.6853 0.2467 0.6852
vn 0.5595 0.6115 -0.5595
vn 0.6853 0.2467 -0.6852
vn -0.0000 0.6115 -0.7912
vn -0.0000 0.2467 -0.9691
vn -0.5595 0.6115 -0.5595
vn -0.6853 0.2466 -0.6853
vn -0.7912 0.6115 -0.0000
vn -0.9691 0.2467 -0.0000
vn -0.5595 0.6115 0.5595
vn -0.6853 0.2466 0.6853
vn -0.0000 0.6115 0.7912
vn -0.0000 0.2467 0.9691
vn 0.9192 -0.3937 -0.0000
vn 0.6500 -0.3937 0.6500
vn 0.6500 -0.3937 -0.6500
vn -0.0000 -0.3938 -0.9192
vn -0.6500 -0.3938 -0.6500
vn -0.9192 -0.3938 -0.0000
vn -0.6500 -0.3938 0.6500
vn -0.0000 -0.3938 0.9192
vn 0.9498 -0.3128 -0.0000
vn 0.6716 -0.3128 0.6716
vn 0.6716 -0.3128 -0.6716
vn -0.0000 -0.3128 -0.9498
vn -0.6716 -0.3128 -0.6716
vn -0.9498 -0.3128 -0.0000
vn -0.6716 -0.3128 0.6716
vn -0.0000 -0.3128 0.9498
vn 0.9784 0.2067 -0.0000
vn 0.6918 0.2067 0.6918
vn 0.6918 0.2067 -0.6918
vn -0.0000 0.2067 -0.9784
vn -0.6918 0.2067 -0.6918
vn -0.9784 0.2067 -0.0000
vn -0.6918 0.2067 0.6918
vn -0.0000 0.2067 0.9784
vn -0.4935 -0.1612 -0.8547
vn -0.8547 -0.1612 -0.4935
vn -0.9869 -0.1612 -0.0000
vn -0.8547 -0.1612 0.4935
vn -0.4935 -0.1612 0.8547
vn -0.0000 -0.1612 0.9869
vn 0.4935 -0.1612 0.8547
vn 0.8547 -0.1612 0.4935
vn 0.9869 -0.1612 -0.0000
vn 0.8547 -0.1612 -0.4935
vn 0.4935 -0.1612 -0.8547
vn -0.0000 -0.1612 -0.9869
vn 0.4932 0.1640 0.8543
vn 0.8543 0.1640 0.4932
vn 0.9865 0.1640 -0.0000
vn 0.8543 0.1640 -0.4932
vn 0.4932 0.1640 -0.8543
vn -0.0000 0.1640 -0.9865
vn -0.4932 0.1640 -0.8543
vn -0.8543 0.1640 -0.4932
vn -0.9865 0.1640 -0.0000
vn -0.8543 0.1640 0.4932
vn -0.4932 0.1640 0.8543
vn -0.0000 0.1640 0.9865
vn 0.6899 0.2194 0.6899
vn 0.9756 0.2194 -0.0000
vn 0.6899 0.2194 -0.6899
vn -0.0000 0.2194 -0.9756
vn -0.6899 0.2194 -0.6899
vn -0.9756 0.2194 -0.0000
vn -0.6899 0.2194 0.6899
vn -0.0000 0.2194 0.9756
vn -0.0000 -0.0000 1.0000
vn -0.0000 -0.0000 -1.0000
vn -1.0000 -0.0000 -0.0000
vn 1.0000 -0.0000 -0.0000
vt 0.882923 0.415735
vt 0.883160 0.415735
vt 0.882953 0.415735
vt 0.882983 0.415735
vt 0.883012 0.415735
vt 0.883042 0.415735
vt 0.883072 0.415735
vt 0.883101 0.415735
vt 0.883131 0.415735
vt 0.883027 0.416092
vt 0.882953 0.416092
vt 0.882983 0.416092
vt 0.883012 0.416092
vt 0.883042 0.416092
vt 0.883072 0.416092
vt 0.883101 0.416092
vt 0.883131 0.416092
vt 0.882923 0.416092
vt 0.882953 0.416092
vt 0.882983 0.416092
vt 0.883012 0.416092
vt 0.883042 0.416092
vt 0.883072 0.416092
vt 0.883101 0.416092
vt 0.883131 0.416092
vt 0.882923 0.416092
vt 0.882953 0.416092
vt 0.882983 0.416092
vt 0.883012 0.416092
vt 0.883042 0.416092
vt 0.883072 0.416092
vt 0.883101 0.416092
vt 0.883131 0.416092
vt 0.882923 0.416092
vt 0.882923 0.416055
vt 0.883160 0.416055
vt 0.882953 0.416055
vt 0.882983 0.416055
vt 0.883012 0.416055
vt 0.883042 0.416055
vt 0.883072 0.416055
vt 0.883101 0.416055
vt 0.883131 0.416055
vt 0.882923 0.415735
vt 0.883160 0.415735
vt 0.882953 0.415735
vt 0.882983 0.415735
vt 0.883012 0.415735
vt 0.883042 0.415735
vt 0.883072 0.415735
vt 0.883101 0.415735
vt 0.883131 0.415735
vt 0.883042 0.416092
vt 0.882923 0.415803
vt 0.883160 0.415803
vt 0.860201 0.511608
vt 0.882953 0.415803
vt 0.860133 0.511608
vt 0.882983 0.415803
vt 0.860143 0.511608
vt 0.883012 0.415803
vt 0.860152 0.511608
vt 0.883042 0.415803
vt 0.860162 0.511608
vt 0.883072 0.415803
vt 0.860172 0.511608
vt 0.883101 0.415803
vt 0.860182 0.511608
vt 0.883131 0.415803
vt 0.860191 0.511608
vt 0.860201 0.511617
vt 0.882923 0.415831
vt 0.883160 0.415831
vt 0.860133 0.511617
vt 0.882953 0.415831
vt 0.860143 0.511617
vt 0.882983 0.415831
vt 0.860152 0.511617
vt 0.883012 0.415831
vt 0.860162 0.511617
vt 0.883042 0.415831
vt 0.860172 0.511617
vt 0.883072 0.415831
vt 0.860182 0.511617
vt 0.883101 0.415831
vt 0.860191 0.511617
vt 0.883131 0.415831
vt 0.882923 0.415939
vt 0.883160 0.415939
vt 0.882953 0.415939
vt 0.882983 0.415939
vt 0.883012 0.415939
vt 0.883042 0.415939
vt 0.883072 0.415939
vt 0.883101 0.415939
vt 0.883131 0.415939
vt 0.882923 0.415990
vt 0.883160 0.415990
vt 0.882953 0.415990
vt 0.882983 0.415990
vt 0.883012 0.415990
vt 0.883042 0.415990
vt 0.883072 0.415990
vt 0.883101 0.415990
vt 0.883131 0.415990
vt 0.882923 0.416031
vt 0.883160 0.416031
vt 0.882953 0.416031
vt 0.882983 0.416031
vt 0.883012 0.416031
vt 0.883042 0.416031
vt 0.883072 0.416031
vt 0.883101 0.416031
vt 0.883131 0.416031
vt 0.690518 0.114986
vt 0.690702 0.114986
vt 0.690534 0.114986
vt 0.690549 0.114986
vt 0.690564 0.114986
vt 0.690580 0.114986
vt 0.690595 0.114986
vt 0.690610 0.114986
vt 0.690626 0.114986
vt 0.690641 0.114986
vt 0.690656 0.114986
vt 0.690672 0.114986
vt 0.690687 0.114986
vt 0.690518 0.115263
vt 0.690702 0.115263
vt 0.690534 0.115263
vt 0.690549 0.115263
vt 0.690564 0.115263
vt 0.690580 0.115263
vt 0.690595 0.115263
vt 0.690610 0.115263
vt 0.690626 0.115263
vt 0.690641 0.115263
vt 0.690656 0.115263
vt 0.690672 0.115263
vt 0.690687 0.115263
vt 0.597239 0.136228
vt 0.597508 0.136228
vt 0.597261 0.136228
vt 0.597284 0.136228
vt 0.597306 0.136228
vt 0.597328 0.136228
vt 0.597351 0.136228
vt 0.597373 0.136228
vt 0.597396 0.136228
vt 0.597418 0.136228
vt 0.597441 0.136228
vt 0.597463 0.136228
vt 0.597486 0.136228
vt 0.597239 0.136634
vt 0.597508 0.136634
vt 0.597261 0.136634
vt 0.597284 0.136634
vt 0.597306 0.136634
vt 0.597328 0.136634
vt 0.597351 0.136634
vt 0.597373 0.136634
vt 0.597396 0.136634
vt 0.597418 0.136634
vt 0.597441 0.136634
vt 0.597463 0.136634
vt 0.597486 0.136634
vt 0.882923 0.415735
vt 0.883160 0.415735
vt 0.882953 0.415735
vt 0.882983 0.415735
vt 0.883012 0.415735
vt 0.883042 0.415735
vt 0.883072 0.415735
vt 0.883101 0.415735
vt 0.883131 0.415735
vt 0.883160 0.416092
vt 0.882923 0.416092
vt 0.882953 0.416092
vt 0.882983 0.416092
vt 0.883012 0.416092
vt 0.883042 0.416092
vt 0.883072 0.416092
vt 0.883101 0.416092
vt 0.883131 0.416092
vt 0.871147 0.676519
vt 0.871147 0.666653
vt 0.868681 0.676519
vt 0.868681 0.666653
vt 0.871147 0.674053
vt 0.868681 0.674053
vt 0.871147 0.671586
vt 0.868681 0.671586
vt 0.871147 0.669120
vt 0.868681 0.669120
vt 0.871147 0.676519
vt 0.871147 0.666653
vt 0.868681 0.676519
vt 0.868681 0.666653
vt 0.871147 0.674053
vt 0.868681 0.674053
vt 0.871147 0.671586
vt 0.868681 0.671586
vt 0.871147 0.669120
vt 0.868681 0.669120
s 1
usemtl Material
f 26/27/1 27/28/2 28/29/3 29/30/4 30/31/5 31/32/6 32/33/7 33/34/8
f 9/10/9 11/12/10 10/11/11
f 9/10/9 12/13/12 11/12/10
f 9/10/9 13/14/13 12/13/12
f 9/10/9 14/15/14 13/14/13
f 9/10/9 15/16/15 14/15/14
f 9/10/9 16/17/16 15/16/15
f 9/10/9 17/18/17 16/17/16
f 9/10/9 10/11/11 17/18/17
f 10/11/11 11/12/10 19/20/18 18/19/19
f 11/12/10 12/13/12 20/21/20 19/20/18
f 12/13/12 13/14/13 21/22/21 20/21/20
f 13/14/13 14/15/14 22/23/22 21/22/21
f 14/15/14 15/16/15 23/24/23 22/23/22
f 15/16/15 16/17/16 24/25/24 23/24/23
f 16/17/16 17/18/17 25/26/25 24/25/24
f 17/18/17 10/11/11 18/19/19 25/26/25
f 18/19/19 19/20/18 27/28/2 26/27/1
f 19/20/18 20/21/20 28/29/3 27/28/2
f 20/21/20 21/22/21 29/30/4 28/29/3
f 21/22/21 22/23/22 30/31/5 29/30/4
f 22/23/22 23/24/23 31/32/6 30/31/5
f 23/24/23 24/25/24 32/33/7 31/32/6
f 24/25/24 25/26/25 33/34/8 32/33/7
f 25/26/25 18/19/19 26/27/1 33/34/8
f 1/1/26 2/3/27 35/37/27 34/35/26
f 2/3/27 3/4/28 36/38/28 35/37/27
f 3/4/28 4/5/29 37/39/29 36/38/28
f 4/5/29 5/6/30 38/40/30 37/39/29
f 5/6/30 6/7/31 39/41/31 38/40/30
f 6/7/31 7/8/32 40/42/32 39/41/31
f 7/8/32 8/9/33 41/43/33 40/42/32
f 8/9/33 1/2/26 34/36/26 41/43/33
f 83/106/34 84/108/35 50/53/36
f 84/108/35 85/109/37 50/53/36
f 85/109/37 86/110/38 50/53/36
f 86/110/38 87/111/39 50/53/36
f 87/111/39 88/112/40 50/53/36
f 88/112/40 89/113/41 50/53/36
f 89/113/41 90/114/42 50/53/36
f 90/114/42 83/107/34 50/53/36
f 42/44/43 43/46/44 52/57/45 51/54/46
f 43/46/44 44/47/47 53/59/48 52/57/45
f 44/47/47 45/48/49 54/61/50 53/59/48
f 45/48/49 46/49/51 55/63/52 54/61/50
f 46/49/51 47/50/53 56/65/54 55/63/52
f 47/50/53 48/51/55 57/67/56 56/65/54
f 48/51/55 49/52/57 58/69/58 57/67/56
f 49/52/57 42/45/43 51/55/46 58/69/58
f 51/56/46 52/58/45 60/74/59 59/71/60
f 52/58/45 53/60/48 61/76/61 60/74/59
f 53/60/48 54/62/50 62/78/62 61/76/61
f 54/62/50 55/64/52 63/80/63 62/78/62
f 55/64/52 56/66/54 64/82/64 63/80/63
f 56/66/54 57/68/56 65/84/65 64/82/64
f 57/68/56 58/70/58 66/86/66 65/84/65
f 58/70/58 51/56/46 59/71/60 66/86/66
f 59/72/60 60/75/59 68/90/67 67/88/68
f 60/75/59 61/77/61 69/91/69 68/90/67
f 61/77/61 62/79/62 70/92/70 69/91/69
f 62/79/62 63/81/63 71/93/71 70/92/70
f 63/81/63 64/83/64 72/94/72 71/93/71
f 64/83/64 65/85/65 73/95/73 72/94/72
f 65/85/65 66/87/66 74/96/74 73/95/73
f 66/87/66 59/73/60 67/89/68 74/96/74
f 67/88/68 68/90/67 76/99/75 75/97/76
f 68/90/67 69/91/69 77/100/77 76/99/75
f 69/91/69 70/92/70 78/101/78 77/100/77
f 70/92/70 71/93/71 79/102/79 78/101/78
f 71/93/71 72/94/72 80/103/80 79/102/79
f 72/94/72 73/95/73 81/104/81 80/103/80
f 73/95/73 74/96/74 82/105/82 81/104/81
f 74/96/74 67/89/68 75/98/76 82/105/82
f 75/97/76 76/99/75 84/108/35 83/106/34
f 76/99/75 77/100/77 85/109/37 84/108/35
f 77/100/77 78/101/78 86/110/38 85/109/37
f 78/101/78 79/102/79 87/111/39 86/110/38
f 79/102/79 80/103/80 88/112/40 87/111/39
f 80/103/80 81/104/81 89/113/41 88/112/40
f 81/104/81 82/105/82 90/114/42 89/113/41
f 82/105/82 75/98/76 83/107/34 90/114/42
f 91/115/83 103/128/83 104/130/84 92/117/84
f 92/117/84 104/130/84 105/131/85 93/118/85
f 93/118/85 105/131/85 106/132/86 94/119/86
f 94/119/86 106/132/86 107/133/87 95/120/87
f 95/120/87 107/133/87 108/134/88 96/121/88
f 96/121/88 108/134/88 109/135/89 97/122/89
f 97/122/89 109/135/89 110/136/90 98/123/90
f 98/123/90 110/136/90 111/137/91 99/124/91
f 99/124/91 111/137/91 112/138/92 100/125/92
f 100/125/92 112/138/92 113/139/93 101/126/93
f 101/126/93 113/139/93 114/140/94 102/127/94
f 102/127/94 114/140/94 103/129/83 91/116/83
f 115/141/95 116/143/96 128/156/96 127/154/95
f 116/143/96 117/144/97 129/157/97 128/156/96
f 117/144/97 118/145/98 130/158/98 129/157/97
f 118/145/98 119/146/99 131/159/99 130/158/98
f 119/146/99 120/147/100 132/160/100 131/159/99
f 120/147/100 121/148/101 133/161/101 132/160/100
f 121/148/101 122/149/102 134/162/102 133/161/101
f 122/149/102 123/150/103 135/163/103 134/162/102
f 123/150/103 124/151/104 136/164/104 135/163/103
f 124/151/104 125/152/105 137/165/105 136/164/104
f 125/152/105 126/153/106 138/166/106 137/165/105
f 126/153/106 115/142/95 127/155/95 138/166/106
f 139/167/107 140/169/108 148/178/108 147/177/107
f 140/169/108 141/170/109 149/179/109 148/178/108
f 141/170/109 142/171/110 150/180/110 149/179/109
f 142/171/110 143/172/111 151/181/111 150/180/110
f 143/172/111 144/173/112 152/182/112 151/181/111
f 144/173/112 145/174/113 153/183/113 152/182/112
f 145/174/113 146/175/114 154/184/114 153/183/113
f 146/175/114 139/168/107 147/176/107 154/184/114
f 148/178/36 149/179/36 150/180/36 151/181/36 152/182/36 153/183/36 154/184/36 147/177/36
f 155/185/115 156/187/115 158/190/115 157/189/115
f 157/189/36 158/190/36 160/192/36 159/191/36
f 159/191/116 160/192/116 162/194/116 161/193/116
f 161/193/9 162/194/9 156/188/9 155/186/9
f 163/195/117 164/197/117 166/200/117 165/199/117
f 165/199/36 166/200/36 168/202/36 167/201/36
f 167/201/118 168/202/118 170/204/118 169/203/118
f 169/203/9 170/204/9 164/198/9 163/196/9
f 43/46/9 42/45/9 44/47/9
f 42/45/9 49/52/9 44/47/9
f 49/52/9 48/51/9 44/47/9
f 48/51/9 47/50/9 44/47/9
f 47/50/9 46/49/9 44/47/9
f 46/49/9 45/48/9 44/47/9
